<?xml version="1.0" standalone="yes"?>

<svg version="1.1" viewBox="0.0 0.0 64.0 64.0" fill="none" stroke="none" stroke-linecap="square" stroke-miterlimit="10" xmlns="http://www.w3.org/2000/svg" xmlns:xlink="http://www.w3.org/1999/xlink"><clipPath id="p.0"><path d="m0 0l64.0 0l0 64.0l-64.0 0l0 -64.0z" clip-rule="nonzero"></path></clipPath><g clip-path="url(#p.0)"><path fill="#000000" fill-opacity="0.0" d="m0 0l64.0 0l0 64.0l-64.0 0z" fill-rule="evenodd"></path><path fill="#000000" fill-opacity="0.0" d="m1.3070866 23.262466l15.811024 0l0 21.070866l-15.811024 0z" fill-rule="evenodd"></path><path fill="#9fc5e8" d="m1.9711286 32.367455l7.3937006 -14.7873955l18.755905 0l7.3936996 14.7873955l-7.3936996 14.7873955l-18.755905 0z" fill-rule="evenodd"></path><path stroke="#666666" stroke-width="2.0" stroke-linejoin="round" stroke-linecap="butt" d="m1.9711286 32.367455l7.3937006 -14.7873955l18.755905 0l7.3936996 14.7873955l-7.3936996 14.7873955l-18.755905 0z" fill-rule="evenodd"></path><path fill="#e06666" d="m28.482939 47.288715l7.3937016 -14.7873955l18.755905 0l7.3936996 14.7873955l-7.3936996 14.787392l-18.755905 0z" fill-rule="evenodd"></path><path stroke="#666666" stroke-width="2.0" stroke-linejoin="round" stroke-linecap="butt" d="m28.482939 47.288715l7.3937016 -14.7873955l18.755905 0l7.3936996 14.7873955l-7.3936996 14.787392l-18.755905 0z" fill-rule="evenodd"></path><path fill="#93c47d" d="m28.482939 17.359581l7.3937016 -14.7873955l18.755905 0l7.3936996 14.7873955l-7.3936996 14.7873955l-18.755905 0z" fill-rule="evenodd"></path><path stroke="#666666" stroke-width="2.0" stroke-linejoin="round" stroke-linecap="butt" d="m28.482939 17.359581l7.3937016 -14.7873955l18.755905 0l7.3936996 14.7873955l-7.3936996 14.7873955l-18.755905 0z" fill-rule="evenodd"></path></g></svg>

