<?xml version="1.0" standalone="yes"?>

<svg version="1.1" viewBox="0.0 0.0 64.0 64.0" fill="none" stroke="none" stroke-linecap="square" stroke-miterlimit="10" xmlns="http://www.w3.org/2000/svg" xmlns:xlink="http://www.w3.org/1999/xlink"><clipPath id="p.0"><path d="m0 0l64.0 0l0 64.0l-64.0 0l0 -64.0z" clip-rule="nonzero"></path></clipPath><g clip-path="url(#p.0)"><path fill="#000000" fill-opacity="0.0" d="m0 0l64.0 0l0 64.0l-64.0 0z" fill-rule="nonzero"></path><path fill="#000000" fill-opacity="0.0" d="m1.2939633 25.023623l15.811023 0l0 21.070868l-15.811023 0z" fill-rule="nonzero"></path><path fill="#b6d7a8" d="m2.5879266 9.996063l0 0c0 4.0508127 13.13533 7.334646 29.338583 7.334646c16.20325 0 29.338581 -3.2838335 29.338581 -7.334646l0 45.70866c0 4.0508156 -13.13533 7.334648 -29.338581 7.334648c-16.203253 0 -29.338583 -3.2838326 -29.338583 -7.334648z" fill-rule="nonzero"></path><path fill="#d3e7ca" d="m2.5879266 9.996063l0 0c0 -4.050813 13.13533 -7.334646 29.338583 -7.334646c16.20325 0 29.338581 3.2838328 29.338581 7.334646l0 0c0 4.0508127 -13.13533 7.334646 -29.338581 7.334646c-16.203253 0 -29.338583 -3.2838335 -29.338583 -7.334646z" fill-rule="nonzero"></path><path fill="#000000" fill-opacity="0.0" d="m61.26509 9.996063l0 0c0 4.0508127 -13.13533 7.334646 -29.338581 7.334646c-16.203253 0 -29.338583 -3.2838335 -29.338583 -7.334646l0 0c0 -4.050813 13.13533 -7.334646 29.338583 -7.334646c16.20325 0 29.338581 3.2838328 29.338581 7.334646l0 45.70866c0 4.0508156 -13.13533 7.334648 -29.338581 7.334648c-16.203253 0 -29.338583 -3.2838326 -29.338583 -7.334648l0 -45.70866" fill-rule="nonzero"></path><path stroke="#434343" stroke-width="3.0" stroke-linejoin="round" stroke-linecap="butt" d="m61.26509 9.996063l0 0c0 4.0508127 -13.13533 7.334646 -29.338581 7.334646c-16.203253 0 -29.338583 -3.2838335 -29.338583 -7.334646l0 0c0 -4.050813 13.13533 -7.334646 29.338583 -7.334646c16.20325 0 29.338581 3.2838328 29.338581 7.334646l0 45.70866c0 4.0508156 -13.13533 7.334648 -29.338581 7.334648c-16.203253 0 -29.338583 -3.2838326 -29.338583 -7.334648l0 -45.70866" fill-rule="nonzero"></path><path fill="#a4c2f4" d="m11.784777 20.918634l18.204725 0l0 14.897638l-18.204725 0z" fill-rule="nonzero"></path><path stroke="#434343" stroke-width="2.0" stroke-linejoin="round" stroke-linecap="butt" d="m11.784777 20.918634l18.204725 0l0 14.897638l-18.204725 0z" fill-rule="nonzero"></path><path fill="#000000" fill-opacity="0.0" d="m16.603674 20.847769l0 14.740156" fill-rule="nonzero"></path><path stroke="#434343" stroke-width="1.0" stroke-linejoin="round" stroke-linecap="butt" d="m16.603674 20.847769l0 14.740156" fill-rule="nonzero"></path><path fill="#000000" fill-opacity="0.0" d="m11.713911 25.952755l18.267715 0" fill-rule="nonzero"></path><path stroke="#434343" stroke-width="1.0" stroke-linejoin="round" stroke-linecap="butt" d="m11.713911 25.952755l18.267715 0" fill-rule="nonzero"></path><path fill="#ea9999" d="m30.060368 42.64042l18.204723 0l0 14.89764l-18.204723 0z" fill-rule="nonzero"></path><path stroke="#434343" stroke-width="2.0" stroke-linejoin="round" stroke-linecap="butt" d="m30.060368 42.64042l18.204723 0l0 14.89764l-18.204723 0z" fill-rule="nonzero"></path><path fill="#000000" fill-opacity="0.0" d="m34.879265 42.569553l0 14.740158" fill-rule="nonzero"></path><path stroke="#434343" stroke-width="1.0" stroke-linejoin="round" stroke-linecap="butt" d="m34.879265 42.569553l0 14.740158" fill-rule="nonzero"></path><path fill="#000000" fill-opacity="0.0" d="m29.989502 47.67454l18.267715 0" fill-rule="nonzero"></path><path stroke="#434343" stroke-width="1.0" stroke-linejoin="round" stroke-linecap="butt" d="m29.989502 47.67454l18.267715 0" fill-rule="nonzero"></path><path fill="#000000" fill-opacity="0.0" d="m20.887138 35.816273l0 14.267715l9.165356 0" fill-rule="nonzero"></path><path stroke="#434343" stroke-width="2.0" stroke-linejoin="round" stroke-linecap="butt" d="m20.887138 47.072823l0 3.0111656l9.165356 0" fill-rule="evenodd"></path><path fill="#434343" stroke="#434343" stroke-width="2.0" stroke-linecap="butt" d="m20.887138 47.072826l3.330574 -4.7565536l-3.330574 -4.7565536l-3.330574 4.7565536z" fill-rule="evenodd"></path></g></svg>

