<?xml version="1.0" standalone="yes"?>

<svg version="1.1" viewBox="0.0 0.0 64.0 64.0" fill="none" stroke="none" stroke-linecap="square" stroke-miterlimit="10" xmlns="http://www.w3.org/2000/svg" xmlns:xlink="http://www.w3.org/1999/xlink"><clipPath id="p.0"><path d="m0 0l64.0 0l0 64.0l-64.0 0l0 -64.0z" clip-rule="nonzero"></path></clipPath><g clip-path="url(#p.0)"><path fill="#000000" fill-opacity="0.0" d="m0 0l64.0 0l0 64.0l-64.0 0z" fill-rule="nonzero"></path><path fill="#6d9eeb" d="m0.79002625 22.244204l0 0c0 -3.0238552 2.4513195 -5.475174 5.4751754 -5.475174l51.474846 0c1.4521065 0 2.844738 0.5768471 3.8715324 1.6036415c1.0267944 1.0267944 1.6036415 2.419426 1.6036415 3.8715324l0 21.900045c0 3.0238533 -2.4513168 5.475174 -5.475174 5.475174l-51.474846 0c-3.023856 0 -5.4751754 -2.4513206 -5.4751754 -5.475174z" fill-rule="nonzero"></path><path stroke="#6d9eeb" stroke-width="1.0" stroke-linejoin="round" stroke-linecap="butt" d="m0.79002625 22.244204l0 0c0 -3.0238552 2.4513195 -5.475174 5.4751754 -5.475174l51.474846 0c1.4521065 0 2.844738 0.5768471 3.8715324 1.6036415c1.0267944 1.0267944 1.6036415 2.419426 1.6036415 3.8715324l0 21.900045c0 3.0238533 -2.4513168 5.475174 -5.475174 5.475174l-51.474846 0c-3.023856 0 -5.4751754 -2.4513206 -5.4751754 -5.475174z" fill-rule="nonzero"></path><path fill="#000000" fill-opacity="0.0" d="m-3.808399 16.76903l71.62205 0l0 30.55118l-71.62205 0z" fill-rule="nonzero"></path><path fill="#434343" d="m10.073074 25.370869l0 5.0q1.25 -1.484375 3.015625 -1.484375q0.890625 0 1.609375 0.34375q0.734375 0.328125 1.09375 0.84375q0.375 0.515625 0.5 1.15625q0.140625 0.625 0.140625 1.953125l0 5.78125l-2.609375 0l0 -5.203125q0 -1.546875 -0.15625 -1.96875q-0.140625 -0.421875 -0.515625 -0.65625q-0.375 -0.25 -0.9375 -0.25q-0.65625 0 -1.171875 0.3125q-0.5 0.3125 -0.734375 0.953125q-0.234375 0.640625 -0.234375 1.875l0 4.9375l-2.6093745 0l0 -13.59375l2.6093745 0zm13.302231 3.734375l0 2.078125l-1.78125 0l0 3.984375q0 1.203125 0.046875 1.40625q0.0625 0.1875 0.234375 0.328125q0.1875 0.125 0.453125 0.125q0.359375 0 1.046875 -0.25l0.21875 2.015625q-0.90625 0.390625 -2.0625 0.390625q-0.703125 0 -1.265625 -0.234375q-0.5625 -0.234375 -0.828125 -0.609375q-0.265625 -0.375 -0.375 -1.015625q-0.078125 -0.453125 -0.078125 -1.84375l0 -4.296875l-1.203125 0l0 -2.078125l1.203125 0l0 -1.953125l2.609375 -1.515625l0 3.46875l1.78125 0zm6.212677 0l0 2.078125l-1.78125 0l0 3.984375q0 1.203125 0.046875 1.40625q0.0625 0.1875 0.234375 0.328125q0.1875 0.125 0.453125 0.125q0.359375 0 1.046875 -0.25l0.21875 2.015625q-0.90625 0.390625 -2.0625 0.390625q-0.703125 0 -1.265625 -0.234375q-0.5625 -0.234375 -0.828125 -0.609375q-0.265625 -0.375 -0.375 -1.015625q-0.078125 -0.453125 -0.078125 -1.84375l0 -4.296875l-1.203125 0l0 -2.078125l1.203125 0l0 -1.953125l2.609375 -1.515625l0 3.46875l1.78125 0zm1.634552 0l2.421875 0l0 1.453125q0.46875 -0.734375 1.28125 -1.203125q0.8125 -0.46875 1.796875 -0.46875q1.703125 0 2.90625 1.34375q1.203125 1.34375 1.203125 3.75q0 2.46875 -1.21875 3.84375q-1.203125 1.359375 -2.921875 1.359375q-0.8125 0 -1.484375 -0.3125q-0.65625 -0.328125 -1.390625 -1.125l0 4.96875l-2.59375 0l0 -13.609375zm2.578125 4.765625q0 1.65625 0.65625 2.453125q0.65625 0.796875 1.59375 0.796875q0.921875 0 1.515625 -0.71875q0.609375 -0.734375 0.609375 -2.40625q0 -1.546875 -0.625 -2.296875q-0.625 -0.75 -1.53125 -0.75q-0.96875 0 -1.59375 0.734375q-0.625 0.734375 -0.625 2.1875zm9.380356 -2.15625l0 -2.609375l2.609375 0l0 2.609375l-2.609375 0zm0 7.25l0 -2.609375l2.609375 0l0 2.609375l-2.609375 0zm4.322052 0.234375l3.375 -14.0625l1.953125 0l-3.40625 14.0625l-1.921875 0zm5.183304 0l3.375 -14.0625l1.953125 0l-3.40625 14.0625l-1.921875 0z" fill-rule="nonzero"></path></g></svg>

