<?xml version="1.0" standalone="yes"?>

<svg version="1.1" viewBox="0.0 0.0 64.0 64.0" fill="none" stroke="none" stroke-linecap="square" stroke-miterlimit="10" xmlns="http://www.w3.org/2000/svg" xmlns:xlink="http://www.w3.org/1999/xlink"><clipPath id="p.0"><path d="m0 0l64.0 0l0 64.0l-64.0 0l0 -64.0z" clip-rule="nonzero"></path></clipPath><g clip-path="url(#p.0)"><path fill="#000000" fill-opacity="0.0" d="m0 0l64.0 0l0 64.0l-64.0 0z" fill-rule="nonzero"></path><path fill="#6d9eeb" d="m35.897636 7.3308l0 0c0 -2.5193968 2.0423775 -4.5617714 4.5617714 -4.5617714l18.246536 0l0 0c1.209858 0 2.370163 0.4806137 3.2256622 1.3361118c0.85549545 0.85549784 1.3361092 2.0158024 1.3361092 3.2256594l0 18.93945c0 2.5193958 -2.0423737 4.5617714 -4.5617714 4.5617714l-18.246536 0l0 0c-2.519394 0 -4.5617714 -2.0423756 -4.5617714 -4.5617714z" fill-rule="nonzero"></path><path stroke="#6d9eeb" stroke-width="1.0" stroke-linejoin="round" stroke-linecap="butt" d="m35.897636 7.3308l0 0c0 -2.5193968 2.0423775 -4.5617714 4.5617714 -4.5617714l18.246536 0l0 0c1.209858 0 2.370163 0.4806137 3.2256622 1.3361118c0.85549545 0.85549784 1.3361092 2.0158024 1.3361092 3.2256594l0 18.93945c0 2.5193958 -2.0423737 4.5617714 -4.5617714 4.5617714l-18.246536 0l0 0c-2.519394 0 -4.5617714 -2.0423756 -4.5617714 -4.5617714z" fill-rule="nonzero"></path><path fill="#000000" fill-opacity="0.0" d="m1.3070866 23.262466l15.811024 0l0 21.070866l-15.811024 0z" fill-rule="nonzero"></path><path fill="#6d9eeb" d="m6.3097115 37.72975l0 0c0 -2.5193977 2.0423746 -4.5617714 4.5617704 -4.5617714l18.246536 0l0 0c1.209856 0 2.370161 0.4806137 3.2256584 1.3361092c0.85549927 0.85549927 1.336113 2.0158043 1.336113 3.2256622l0 18.93945c0 2.519394 -2.0423756 4.5617714 -4.5617714 4.5617714l-18.246536 0l0 0c-2.5193958 0 -4.5617704 -2.0423775 -4.5617704 -4.5617714z" fill-rule="nonzero"></path><path stroke="#6d9eeb" stroke-width="1.0" stroke-linejoin="round" stroke-linecap="butt" d="m6.3097115 37.72975l0 0c0 -2.5193977 2.0423746 -4.5617714 4.5617704 -4.5617714l18.246536 0l0 0c1.209856 0 2.370161 0.4806137 3.2256584 1.3361092c0.85549927 0.85549927 1.336113 2.0158043 1.336113 3.2256622l0 18.93945c0 2.519394 -2.0423756 4.5617714 -4.5617714 4.5617714l-18.246536 0l0 0c-2.5193958 0 -4.5617704 -2.0423775 -4.5617704 -4.5617714z" fill-rule="nonzero"></path><path fill="#6d9eeb" d="m35.897636 37.72975l0 0c0 -2.5193977 2.0423775 -4.5617714 4.5617714 -4.5617714l18.246536 0l0 0c1.209858 0 2.370163 0.4806137 3.2256622 1.3361092c0.85549545 0.85549927 1.3361092 2.0158043 1.3361092 3.2256622l0 18.93945c0 2.519394 -2.0423737 4.5617714 -4.5617714 4.5617714l-18.246536 0l0 0c-2.519394 0 -4.5617714 -2.0423775 -4.5617714 -4.5617714z" fill-rule="nonzero"></path><path stroke="#6d9eeb" stroke-width="1.0" stroke-linejoin="round" stroke-linecap="butt" d="m35.897636 37.72975l0 0c0 -2.5193977 2.0423775 -4.5617714 4.5617714 -4.5617714l18.246536 0l0 0c1.209858 0 2.370163 0.4806137 3.2256622 1.3361092c0.85549545 0.85549927 1.3361092 2.0158043 1.3361092 3.2256622l0 18.93945c0 2.519394 -2.0423737 4.5617714 -4.5617714 4.5617714l-18.246536 0l0 0c-2.519394 0 -4.5617714 -2.0423775 -4.5617714 -4.5617714z" fill-rule="nonzero"></path><path fill="#e06666" d="m0.7322835 7.3308l0 0c0 -2.5193968 2.0423746 -4.5617714 4.561771 -4.5617714l18.246536 0l0 0c1.209858 0 2.370163 0.4806137 3.2256603 1.3361118c0.85549736 0.85549784 1.3361111 2.0158024 1.3361111 3.2256594l0 18.93945c0 2.5193958 -2.0423737 4.5617714 -4.5617714 4.5617714l-18.246536 0l0 0c-2.5193965 0 -4.561771 -2.0423756 -4.561771 -4.5617714z" fill-rule="nonzero"></path><path stroke="#e06666" stroke-width="1.0" stroke-linejoin="round" stroke-linecap="butt" d="m0.7322835 7.3308l0 0c0 -2.5193968 2.0423746 -4.5617714 4.561771 -4.5617714l18.246536 0l0 0c1.209858 0 2.370163 0.4806137 3.2256603 1.3361118c0.85549736 0.85549784 1.3361111 2.0158024 1.3361111 3.2256594l0 18.93945c0 2.5193958 -2.0423737 4.5617714 -4.5617714 4.5617714l-18.246536 0l0 0c-2.5193965 0 -4.561771 -2.0423756 -4.561771 -4.5617714z" fill-rule="nonzero"></path><path fill="#000000" fill-opacity="0.0" d="m0.7322835 16.800526l35.181103 0" fill-rule="nonzero"></path><path stroke="#434343" stroke-width="3.0" stroke-linejoin="round" stroke-linecap="butt" d="m0.7322835 16.800526l24.899843 0" fill-rule="evenodd"></path><path fill="#434343" stroke="#434343" stroke-width="3.0" stroke-linecap="butt" d="m25.632126 16.800526l-3.3737507 3.3737507l9.269304 -3.3737507l-9.269304 -3.3737516z" fill-rule="evenodd"></path></g></svg>

