<?xml version="1.0" standalone="yes"?>

<svg version="1.1" viewBox="0.0 0.0 64.0 64.0" fill="none" stroke="none" stroke-linecap="square" stroke-miterlimit="10" xmlns="http://www.w3.org/2000/svg" xmlns:xlink="http://www.w3.org/1999/xlink"><clipPath id="p.0"><path d="m0 0l64.0 0l0 64.0l-64.0 0l0 -64.0z" clip-rule="nonzero"></path></clipPath><g clip-path="url(#p.0)"><path fill="#000000" fill-opacity="0.0" d="m0 0l64.0 0l0 64.0l-64.0 0z" fill-rule="evenodd"></path><path fill="#000000" fill-opacity="0.0" d="m50.435696 29.485565l-7.994751 -1.5748043l-4.577427 -16.87664l4.422573 -9.467192l-4.734909 0.31496072l-5.5065613 2.367454l-3.650919 7.729659l3.338581 16.24672l-22.818897 0.5538063l-4.5774274 3.7821522l1.3175855 3.629921l3.417323 2.2860909l-4.267717 1.6561661l-1.9396327 3.0761147l2.4829395 3.3149605l4.1128607 0.86351776l-3.8057737 1.7375336l-2.4803152 3.2309723l2.9475064 3.3149605l5.6666665 0.15747833l-2.8740158 1.4173241l-2.0813646 2.4383202l3.9553804 2.661419l31.20735 -1.0078773l8.519684 -6.2992096l11.640419 0" fill-rule="evenodd"></path><path stroke="#434343" stroke-width="3.0" stroke-linejoin="round" stroke-linecap="butt" d="m50.435696 29.485565l-7.994751 -1.5748043l-4.577427 -16.87664l4.422573 -9.467192l-4.734909 0.31496072l-5.5065613 2.367454l-3.650919 7.729659l3.338581 16.24672l-22.818897 0.5538063l-4.5774274 3.7821522l1.3175855 3.629921l3.417323 2.2860909l-4.267717 1.6561661l-1.9396327 3.0761147l2.4829395 3.3149605l4.1128607 0.86351776l-3.8057737 1.7375336l-2.4803152 3.2309723l2.9475064 3.3149605l5.6666665 0.15747833l-2.8740158 1.4173241l-2.0813646 2.4383202l3.9553804 2.661419l31.20735 -1.0078773l8.519684 -6.2992096l11.640419 0" fill-rule="evenodd"></path><path fill="#000000" fill-opacity="0.0" d="m9.225378 38.399723l10.544182 -0.32799911" fill-rule="evenodd"></path><path stroke="#434343" stroke-width="3.0" stroke-linejoin="round" stroke-linecap="butt" d="m9.225378 38.399723l10.544182 -0.32799911" fill-rule="evenodd"></path><path fill="#000000" fill-opacity="0.0" d="m9.458497 47.468227l10.328996 -0.25510788" fill-rule="evenodd"></path><path stroke="#434343" stroke-width="3.0" stroke-linejoin="round" stroke-linecap="butt" d="m9.458497 47.468227l10.328996 -0.25510788" fill-rule="evenodd"></path><path fill="#000000" fill-opacity="0.0" d="m10.564304 55.958004l9.763779 -0.56692886" fill-rule="evenodd"></path><path stroke="#434343" stroke-width="3.0" stroke-linejoin="round" stroke-linecap="butt" d="m10.564304 55.958004l9.763779 -0.56692886" fill-rule="evenodd"></path><path fill="#000000" fill-opacity="0.0" d="m49.824146 29.44357l12.346458 -0.031496048" fill-rule="evenodd"></path><path stroke="#434343" stroke-width="3.0" stroke-linejoin="round" stroke-linecap="butt" d="m49.824146 29.44357l12.346458 -0.031496048" fill-rule="evenodd"></path><path fill="#000000" fill-opacity="0.0" d="m60.706036 29.091864l0 26.299212" fill-rule="evenodd"></path><path stroke="#434343" stroke-width="3.0" stroke-linejoin="round" stroke-linecap="butt" d="m60.706036 29.091864l0 26.299212" fill-rule="evenodd"></path></g></svg>

