<?xml version="1.0" standalone="yes"?>

<svg version="1.1" viewBox="0.0 0.0 64.0 64.0" fill="none" stroke="none" stroke-linecap="square" stroke-miterlimit="10" xmlns="http://www.w3.org/2000/svg" xmlns:xlink="http://www.w3.org/1999/xlink"><clipPath id="p.0"><path d="m0 0l64.0 0l0 64.0l-64.0 0l0 -64.0z" clip-rule="nonzero"></path></clipPath><g clip-path="url(#p.0)"><path fill="#000000" fill-opacity="0.0" d="m0 0l64.0 0l0 64.0l-64.0 0z" fill-rule="nonzero"></path><path fill="#93c47d" d="m1.007874 47.152298l0 0c0 -1.8148956 1.4712617 -3.2861557 3.2861547 -3.2861557l55.474934 0c0.8715439 0 1.7073898 0.3462181 2.3236618 0.9624901c0.6162758 0.6162758 0.9624939 1.4521217 0.9624939 2.3236656l0 13.144226c0 1.8148918 -1.4712639 3.286152 -3.2861557 3.286152l-55.474934 0c-1.814893 0 -3.2861547 -1.4712601 -3.2861547 -3.286152z" fill-rule="nonzero"></path><path stroke="#93c47d" stroke-width="1.0" stroke-linejoin="round" stroke-linecap="butt" d="m1.007874 47.152298l0 0c0 -1.8148956 1.4712617 -3.2861557 3.2861547 -3.2861557l55.474934 0c0.8715439 0 1.7073898 0.3462181 2.3236618 0.9624901c0.6162758 0.6162758 0.9624939 1.4521217 0.9624939 2.3236656l0 13.144226c0 1.8148918 -1.4712639 3.286152 -3.2861557 3.286152l-55.474934 0c-1.814893 0 -3.2861547 -1.4712601 -3.2861547 -3.286152z" fill-rule="nonzero"></path><path fill="#434343" d="m19.273165 49.21191l3.4375 0q1.15625 0 1.765625 0.1875q0.828125 0.234375 1.40625 0.859375q0.578125 0.609375 0.875 1.5q0.3125 0.890625 0.3125 2.203125q0 1.140625 -0.28125 1.984375q-0.34375 1.015625 -1.0 1.640625q-0.484375 0.46875 -1.3125 0.734375q-0.625 0.203125 -1.671875 0.203125l-3.53125 0l0 -9.3125zm1.875 1.578125l0 6.171875l1.40625 0q0.796875 0 1.140625 -0.09375q0.453125 -0.109375 0.75 -0.375q0.3125 -0.28125 0.5 -0.90625q0.1875 -0.625 0.1875 -1.703125q0 -1.078125 -0.1875 -1.65625q-0.1875 -0.578125 -0.53125 -0.90625q-0.34375 -0.328125 -0.875 -0.4375q-0.390625 -0.09375 -1.546875 -0.09375l-0.84375 0zm16.156404 7.734375l-2.046875 0l-0.8125 -2.109375l-3.718752 0l-0.765625 2.109375l-2.0 0l3.625 -9.3125l1.9843731 0l3.7343788 9.3125zm-3.4687538 -3.6875l-1.28125 -3.453125l-1.2499981 3.453125l2.531248 0zm4.7501564 3.6875l0 -9.234375l1.875 0l0 7.671875l4.671875 0l0 1.5625l-6.546875 0z" fill-rule="nonzero"></path><path fill="#6d9eeb" d="m1.007874 25.433136l0 0c0 -1.8148918 1.4712617 -3.2861538 3.2861547 -3.2861538l55.474934 0c0.8715439 0 1.7073898 0.3462181 2.3236618 0.962492c0.6162758 0.6162739 0.9624939 1.4521198 0.9624939 2.3236618l0 13.144226c0 1.8148918 -1.4712639 3.2861557 -3.2861557 3.2861557l-55.474934 0c-1.814893 0 -3.2861547 -1.4712639 -3.2861547 -3.2861557z" fill-rule="nonzero"></path><path stroke="#6d9eeb" stroke-width="1.0" stroke-linejoin="round" stroke-linecap="butt" d="m1.007874 25.433136l0 0c0 -1.8148918 1.4712617 -3.2861538 3.2861547 -3.2861538l55.474934 0c0.8715439 0 1.7073898 0.3462181 2.3236618 0.962492c0.6162758 0.6162739 0.9624939 1.4521198 0.9624939 2.3236618l0 13.144226c0 1.8148918 -1.4712639 3.2861557 -3.2861557 3.2861557l-55.474934 0c-1.814893 0 -3.2861547 -1.4712639 -3.2861547 -3.2861557z" fill-rule="nonzero"></path><path fill="#434343" d="m24.101366 27.492748l3.71875 0q1.109375 0 1.640625 0.09375q0.546875 0.09375 0.96875 0.390625q0.4375 0.296875 0.71875 0.78125q0.296875 0.484375 0.296875 1.078125q0 0.65625 -0.359375 1.203125q-0.359375 0.546875 -0.953125 0.828125q0.84375 0.234375 1.296875 0.84375q0.46875 0.59375 0.46875 1.390625q0 0.640625 -0.296875 1.25q-0.296875 0.59375 -0.8125 0.953125q-0.5 0.359375 -1.25 0.4375q-0.46875 0.046875 -2.265625 0.0625l-3.171875 0l0 -9.3125zm1.875 1.5625l0 2.140625l1.234375 0q1.09375 0 1.359375 -0.03125q0.484375 -0.046875 0.765625 -0.328125q0.28125 -0.28125 0.28125 -0.734375q0 -0.421875 -0.25 -0.6875q-0.234375 -0.28125 -0.703125 -0.328125q-0.28125 -0.03125 -1.609375 -0.03125l-1.078125 0zm0 3.6875l0 2.5l1.75 0q1.015625 0 1.28125 -0.0625q0.421875 -0.078125 0.6875 -0.375q0.265625 -0.296875 0.265625 -0.78125q0 -0.421875 -0.203125 -0.71875q-0.203125 -0.296875 -0.59375 -0.421875q-0.390625 -0.140625 -1.671875 -0.140625l-1.515625 0zm7.7970257 4.0625l0 -9.234375l1.8750038 0l0 7.671875l4.671875 0l0 1.5625l-6.546879 0z" fill-rule="nonzero"></path><path fill="#e06666" d="m1.007874 3.7139764l0 0c0 -1.8148931 1.4712617 -3.2861547 3.2861547 -3.2861547l55.474934 0c0.8715439 0 1.7073898 0.34621888 2.3236618 0.96249247c0.6162758 0.61627376 0.9624939 1.45212 0.9624939 2.3236623l0 13.144226c0 1.8148937 -1.4712639 3.2861557 -3.2861557 3.2861557l-55.474934 0c-1.814893 0 -3.2861547 -1.471262 -3.2861547 -3.2861557z" fill-rule="nonzero"></path><path stroke="#e06666" stroke-width="1.0" stroke-linejoin="round" stroke-linecap="butt" d="m1.007874 3.7139764l0 0c0 -1.8148931 1.4712617 -3.2861547 3.2861547 -3.2861547l55.474934 0c0.8715439 0 1.7073898 0.34621888 2.3236618 0.96249247c0.6162758 0.61627376 0.9624939 1.45212 0.9624939 2.3236623l0 13.144226c0 1.8148937 -1.4712639 3.2861557 -3.2861557 3.2861557l-55.474934 0c-1.814893 0 -3.2861547 -1.471262 -3.2861547 -3.2861557z" fill-rule="nonzero"></path><path fill="#434343" d="m26.304926 5.773589l1.875 0l0 5.046875q0 1.203125 0.0625 1.5625q0.125 0.5625 0.578125 0.90625q0.453125 0.34375 1.25 0.34375q0.796875 0 1.203125 -0.3125q0.40625 -0.328125 0.484375 -0.796875q0.078125 -0.484375 0.078125 -1.59375l0 -5.15625l1.8906231 0l0 4.890625q0 1.671875 -0.15625 2.375q-0.15625 0.6875 -0.5625 1.171875q-0.40625 0.46875 -1.0937481 0.75q-0.6875 0.28125 -1.796875 0.28125q-1.328125 0 -2.015625 -0.296875q-0.6875 -0.3125 -1.09375 -0.796875q-0.390625 -0.5 -0.515625 -1.046875q-0.1875 -0.796875 -0.1875 -2.359375l0 -4.96875zm9.5782795 9.3125l0 -9.3125l1.875 0l0 9.3125l-1.875 0z" fill-rule="nonzero"></path></g></svg>

