<?xml version="1.0" standalone="yes"?>

<svg version="1.1" viewBox="0.0 0.0 64.0 64.0" fill="none" stroke="none" stroke-linecap="square" stroke-miterlimit="10" xmlns="http://www.w3.org/2000/svg" xmlns:xlink="http://www.w3.org/1999/xlink"><clipPath id="p.0"><path d="m0 0l64.0 0l0 64.0l-64.0 0l0 -64.0z" clip-rule="nonzero"></path></clipPath><g clip-path="url(#p.0)"><path fill="#000000" fill-opacity="0.0" d="m0 0l64.0 0l0 64.0l-64.0 0z" fill-rule="nonzero"></path><path fill="#000000" fill-opacity="0.0" d="m1.2939633 25.023623l15.811023 0l0 21.070868l-15.811023 0z" fill-rule="nonzero"></path><path fill="#000000" fill-opacity="0.0" d="m10.427821 0.503937l43.496063 0l0 35.149605l-43.496063 0z" fill-rule="nonzero"></path><path fill="#434343" d="m34.13679 23.892488l-3.984375 0q-0.015625 -0.859375 -0.015625 -1.046875q0 -1.9375 0.640625 -3.1875q0.640625 -1.25 2.5625 -2.8125q1.921875 -1.5625 2.296875 -2.046875q0.578125 -0.765625 0.578125 -1.6875q0 -1.28125 -1.03125 -2.1875q-1.015625 -0.921875 -2.75 -0.921875q-1.671875 0 -2.796875 0.953125q-1.125 0.953125 -1.546875 2.90625l-4.03125 -0.5q0.171875 -2.796875 2.375 -4.75q2.21875 -1.9531245 5.8125 -1.9531245q3.78125 0 6.015625 1.9843745q2.234375 1.96875 2.234375 4.59375q0 1.453125 -0.828125 2.75q-0.8125 1.296875 -3.5 3.53125q-1.390625 1.15625 -1.734375 1.859375q-0.328125 0.703125 -0.296875 2.515625zm-3.984375 5.90625l0 -4.390625l4.390625 0l0 4.390625l-4.390625 0z" fill-rule="nonzero"></path><path fill="#93c47d" d="m0.95013124 46.98169l0 0c0 -1.7685051 1.4336576 -3.2021637 3.202164 -3.2021637l17.595673 0c0.84926796 0 1.6637497 0.33737183 2.2642727 0.9378929c0.6005211 0.6005249 0.937891 1.4150047 0.937891 2.2642708l0 12.808273c0 1.7685051 -1.4336567 3.2021637 -3.2021637 3.2021637l-17.595673 0l0 0c-1.7685063 0 -3.202164 -1.4336586 -3.202164 -3.2021637z" fill-rule="nonzero"></path><path stroke="#93c47d" stroke-width="1.0" stroke-linejoin="round" stroke-linecap="butt" d="m0.95013124 46.98169l0 0c0 -1.7685051 1.4336576 -3.2021637 3.202164 -3.2021637l17.595673 0c0.84926796 0 1.6637497 0.33737183 2.2642727 0.9378929c0.6005211 0.6005249 0.937891 1.4150047 0.937891 2.2642708l0 12.808273c0 1.7685051 -1.4336567 3.2021637 -3.2021637 3.2021637l-17.595673 0l0 0c-1.7685063 0 -3.202164 -1.4336586 -3.202164 -3.2021637z" fill-rule="nonzero"></path><path fill="#e06666" d="m38.902885 46.98169l0 0c0 -1.7685051 1.4336586 -3.2021637 3.2021637 -3.2021637l17.595673 0c0.84926987 0 1.6637497 0.33737183 2.2642746 0.9378929c0.6005211 0.6005249 0.9378891 1.4150047 0.9378891 2.2642708l0 12.808273c0 1.7685051 -1.4336548 3.2021637 -3.2021637 3.2021637l-17.595673 0l0 0c-1.7685051 0 -3.2021637 -1.4336586 -3.2021637 -3.2021637z" fill-rule="nonzero"></path><path stroke="#e06666" stroke-width="1.0" stroke-linejoin="round" stroke-linecap="butt" d="m38.902885 46.98169l0 0c0 -1.7685051 1.4336586 -3.2021637 3.2021637 -3.2021637l17.595673 0c0.84926987 0 1.6637497 0.33737183 2.2642746 0.9378929c0.6005211 0.6005249 0.9378891 1.4150047 0.9378891 2.2642708l0 12.808273c0 1.7685051 -1.4336548 3.2021637 -3.2021637 3.2021637l-17.595673 0l0 0c-1.7685051 0 -3.2021637 -1.4336586 -3.2021637 -3.2021637z" fill-rule="nonzero"></path><path fill="#000000" fill-opacity="0.0" d="m-1.67979 42.850395l29.259844 0l0 21.070866l-29.259844 0z" fill-rule="nonzero"></path><path fill="#434343" d="m14.0858345 56.6677l-3.890625 0l-0.390625 0.96875l0.390625 0q0.578125 0 0.8125 0.234375q0.25 0.21875 0.25 0.578125q0 0.34375 -0.25 0.578125q-0.234375 0.21875 -0.8125 0.21875l-2.15625 0q-0.5781245 0 -0.8281245 -0.21875q-0.25 -0.234375 -0.25 -0.59375q0 -0.359375 0.265625 -0.578125q0.25 -0.234375 0.8437495 -0.21875l2.515625 -6.265625l-1.046875 0q-0.578125 0 -0.828125 -0.21875q-0.234375 -0.21875 -0.234375 -0.578125q0 -0.359375 0.234375 -0.578125q0.25 -0.234375 0.828125 -0.234375l3.46875 0.015625l3.1875 7.859375q0.5625 0 0.734375 0.125q0.359375 0.265625 0.359375 0.6875q0 0.34375 -0.25 0.578125q-0.234375 0.21875 -0.8125 0.21875l-2.15625 0q-0.578125 0 -0.828125 -0.21875q-0.234375 -0.234375 -0.234375 -0.59375q0 -0.34375 0.234375 -0.5625q0.25 -0.234375 0.828125 -0.234375l0.390625 0l-0.375 -0.96875zm-0.671875 -1.609375l-1.28125 -3.171875l-1.296875 3.171875l2.578125 0z" fill-rule="nonzero"></path><path fill="#000000" fill-opacity="0.0" d="m15.196851 18.04987l0 0c0 -9.1757555 7.5230265 -16.614174 16.80315 -16.614174l0 0c4.4564705 0 8.730419 1.7504169 11.881622 4.8661785c3.1511993 3.1157618 4.921528 7.3416414 4.921528 11.747995l0 0c0 9.175755 -7.5230255 16.614174 -16.80315 16.614174l0 0c-9.280123 0 -16.80315 -7.4384193 -16.80315 -16.614174z" fill-rule="nonzero"></path><path stroke="#434343" stroke-width="3.0" stroke-linejoin="round" stroke-linecap="butt" d="m15.196851 18.04987l0 0c0 -9.1757555 7.5230265 -16.614174 16.80315 -16.614174l0 0c4.4564705 0 8.730419 1.7504169 11.881622 4.8661785c3.1511993 3.1157618 4.921528 7.3416414 4.921528 11.747995l0 0c0 9.175755 -7.5230255 16.614174 -16.80315 16.614174l0 0c-9.280123 0 -16.80315 -7.4384193 -16.80315 -16.614174z" fill-rule="nonzero"></path><path fill="#000000" fill-opacity="0.0" d="m20.11838 29.797863l-7.1811028 13.0393715" fill-rule="nonzero"></path><path stroke="#434343" stroke-width="2.0" stroke-linejoin="round" stroke-linecap="butt" d="m20.11838 29.797865l-3.5244656 6.399687" fill-rule="evenodd"></path><path fill="#434343" stroke="#434343" stroke-width="2.0" stroke-linecap="butt" d="m13.419683 41.96129c-1.5916119 -0.87654114 -2.1712923 -2.8773727 -1.2947531 -4.4689865c0.8765402 -1.59161 2.8773718 -2.1712914 4.4689837 -1.2947502c1.5916119 0.8765373 2.1712933 2.8773727 1.2947521 4.4689827c-0.87653923 1.59161 -2.8773718 2.1712914 -4.4689827 1.294754z" fill-rule="nonzero"></path><path fill="#000000" fill-opacity="0.0" d="m43.881622 29.797863l7.0236206 13.0393715" fill-rule="nonzero"></path><path stroke="#434343" stroke-width="2.0" stroke-linejoin="round" stroke-linecap="butt" d="m43.881622 29.797865l3.4289856 6.3659153" fill-rule="evenodd"></path><path fill="#434343" stroke="#434343" stroke-width="2.0" stroke-linecap="butt" d="m50.43102 41.956833c-1.5997086 0.86167526 -3.5950546 0.26338577 -4.45673 -1.336319c-0.8616791 -1.5997086 -0.2633896 -3.5950546 1.336319 -4.4567337c1.5997047 -0.86167526 3.5950508 -0.26338577 4.45673 1.336319c0.8616791 1.5997086 0.26338577 3.5950546 -1.336319 4.4567337z" fill-rule="nonzero"></path><path fill="#000000" fill-opacity="0.0" d="m36.272964 42.850395l29.259842 0l0 21.070866l-29.259842 0z" fill-rule="nonzero"></path><path fill="#434343" d="m46.804214 57.63645l0 -6.265625l-0.25 0q-0.578125 0 -0.828125 -0.21875q-0.234375 -0.21875 -0.234375 -0.578125q0 -0.359375 0.234375 -0.578125q0.25 -0.234375 0.828125 -0.234375l4.015625 0q1.4375 0 2.3125 0.8125q0.875 0.796875 0.875 1.890625q0 0.53125 -0.203125 1.0q-0.203125 0.453125 -0.609375 0.84375q0.75 0.453125 1.125 1.0625q0.390625 0.59375 0.390625 1.359375q0 0.609375 -0.28125 1.140625q-0.203125 0.390625 -0.5 0.625q-0.390625 0.328125 -0.96875 0.546875q-0.578125 0.203125 -1.453125 0.203125l-4.703125 0q-0.578125 0 -0.828125 -0.21875q-0.234375 -0.234375 -0.234375 -0.59375q0 -0.34375 0.25 -0.5625q0.25 -0.234375 0.8125 -0.234375l0.25 0zm1.609375 -3.9375l1.75 0q0.953125 0 1.578125 -0.46875q0.421875 -0.328125 0.421875 -0.796875q0 -0.421875 -0.40625 -0.734375q-0.390625 -0.328125 -1.265625 -0.328125l-2.078125 0l0 2.328125zm0 3.9375l2.765625 0q0.96875 0 1.375 -0.28125q0.296875 -0.21875 0.296875 -0.625q0 -0.484375 -0.609375 -0.953125q-0.59375 -0.46875 -1.71875 -0.46875l-2.109375 0l0 2.328125z" fill-rule="nonzero"></path></g></svg>

