<?xml version="1.0" standalone="yes"?>

<svg version="1.1" viewBox="0.0 0.0 64.0 64.0" fill="none" stroke="none" stroke-linecap="square" stroke-miterlimit="10" xmlns="http://www.w3.org/2000/svg" xmlns:xlink="http://www.w3.org/1999/xlink"><clipPath id="p.0"><path d="m0 0l64.0 0l0 64.0l-64.0 0l0 -64.0z" clip-rule="nonzero"></path></clipPath><g clip-path="url(#p.0)"><path fill="#000000" fill-opacity="0.0" d="m0 0l64.0 0l0 64.0l-64.0 0z" fill-rule="nonzero"></path><path fill="#cfe2f3" d="m4.2073493 8.191601l0 0c0 -2.6179166 2.2350507 -4.740157 4.992126 -4.740157l0 0c1.3239937 0 2.5937605 0.499408 3.5299664 1.38836c0.9362049 0.8889518 1.4621592 2.0946293 1.4621592 3.351797l0 0c0 2.617917 -2.2350512 4.740158 -4.9921255 4.740158l0 0c-2.7570753 0 -4.992126 -2.122241 -4.992126 -4.740158z" fill-rule="nonzero"></path><path stroke="#000000" stroke-width="1.0" stroke-linejoin="round" stroke-linecap="butt" d="m4.2073493 8.191601l0 0c0 -2.6179166 2.2350507 -4.740157 4.992126 -4.740157l0 0c1.3239937 0 2.5937605 0.499408 3.5299664 1.38836c0.9362049 0.8889518 1.4621592 2.0946293 1.4621592 3.351797l0 0c0 2.617917 -2.2350512 4.740158 -4.9921255 4.740158l0 0c-2.7570753 0 -4.992126 -2.122241 -4.992126 -4.740158z" fill-rule="nonzero"></path><path fill="#e06666" d="m22.36483 29.63793l0 0c0 -3.6993675 2.998928 -6.6982975 6.6982956 -6.6982975l27.485298 0l0 0c1.7764969 0 3.480236 0.70571136 4.736408 1.9618855c1.256176 1.2561741 1.9618874 2.9599133 1.9618874 4.736412l0 26.792383c0 3.6993675 -2.998928 6.6982956 -6.6982956 6.6982956l-27.485298 0c-3.6993675 0 -6.6982956 -2.998928 -6.6982956 -6.6982956z" fill-rule="nonzero"></path><path stroke="#e06666" stroke-width="1.0" stroke-linejoin="round" stroke-linecap="butt" d="m22.36483 29.63793l0 0c0 -3.6993675 2.998928 -6.6982975 6.6982956 -6.6982975l27.485298 0l0 0c1.7764969 0 3.480236 0.70571136 4.736408 1.9618855c1.256176 1.2561741 1.9618874 2.9599133 1.9618874 4.736412l0 26.792383c0 3.6993675 -2.998928 6.6982956 -6.6982956 6.6982956l-27.485298 0c-3.6993675 0 -6.6982956 -2.998928 -6.6982956 -6.6982956z" fill-rule="nonzero"></path><path fill="#000000" fill-opacity="0.0" d="m42.82677 37.11811l0 -21.952755" fill-rule="nonzero"></path><path stroke="#434343" stroke-width="2.0" stroke-linejoin="round" stroke-linecap="butt" d="m42.82677 30.263935l0 -15.09858" fill-rule="evenodd"></path><path fill="#434343" stroke="#434343" stroke-width="2.0" stroke-linecap="butt" d="m42.82677 30.263937l-2.2491646 -2.2491665l2.2491646 6.179535l2.2491684 -6.179535z" fill-rule="evenodd"></path><path fill="#ffd966" d="m35.88189 44.07874l0 0c0 -3.8442497 3.1093292 -6.9606285 6.9448814 -6.9606285l0 0c1.8418999 0 3.6083565 0.73334885 4.910774 2.0387192c1.3024178 1.3053741 2.0341072 3.0758362 2.0341072 4.9219093l0 0c0 3.8442497 -3.1093292 6.9606323 -6.9448814 6.9606323l0 0c-3.8355522 0 -6.9448814 -3.1163826 -6.9448814 -6.9606323z" fill-rule="nonzero"></path><path stroke="#434343" stroke-width="2.0" stroke-linejoin="round" stroke-linecap="butt" d="m35.88189 44.07874l0 0c0 -3.8442497 3.1093292 -6.9606285 6.9448814 -6.9606285l0 0c1.8418999 0 3.6083565 0.73334885 4.910774 2.0387192c1.3024178 1.3053741 2.0341072 3.0758362 2.0341072 4.9219093l0 0c0 3.8442497 -3.1093292 6.9606323 -6.9448814 6.9606323l0 0c-3.8355522 0 -6.9448814 -3.1163826 -6.9448814 -6.9606323z" fill-rule="nonzero"></path><path fill="#6d9eeb" d="m34.92126 3.5512276l0 0c0 -1.2814422 1.0388145 -2.3202565 2.3202553 -2.3202565l11.170509 0c0.6153717 0 1.2055397 0.24445486 1.6406708 0.67958736c0.43513107 0.4351325 0.6795883 1.0252988 0.6795883 1.6406691l0 9.280747c0 1.2814417 -1.0388145 2.3202562 -2.320259 2.3202562l-11.170509 0c-1.2814407 0 -2.3202553 -1.0388145 -2.3202553 -2.3202562z" fill-rule="nonzero"></path><path stroke="#6d9eeb" stroke-width="1.0" stroke-linejoin="round" stroke-linecap="butt" d="m34.92126 3.5512276l0 0c0 -1.2814422 1.0388145 -2.3202565 2.3202553 -2.3202565l11.170509 0c0.6153717 0 1.2055397 0.24445486 1.6406708 0.67958736c0.43513107 0.4351325 0.6795883 1.0252988 0.6795883 1.6406691l0 9.280747c0 1.2814417 -1.0388145 2.3202562 -2.320259 2.3202562l-11.170509 0c-1.2814407 0 -2.3202553 -1.0388145 -2.3202553 -2.3202562z" fill-rule="nonzero"></path><path fill="#000000" fill-opacity="0.0" d="m12.729442 11.543399l25.19685 27.622047" fill-rule="nonzero"></path><path stroke="#434343" stroke-width="2.0" stroke-linejoin="round" stroke-linecap="butt" d="m12.729441 11.543398l20.57762 22.558214" fill-rule="evenodd"></path><path fill="#434343" stroke="#434343" stroke-width="2.0" stroke-linecap="butt" d="m33.30706 34.101616l-3.177454 -0.14589691l5.8262463 3.049633l-2.5028992 -6.081192z" fill-rule="evenodd"></path><path fill="#6d9eeb" d="m1.2939633 3.5512276l0 0c0 -1.2814422 1.0388142 -2.3202565 2.3202562 -2.3202565l11.170511 0c0.6153698 0 1.2055359 0.24445486 1.6406689 0.67958736c0.43513298 0.4351325 0.6795864 1.0252988 0.6795864 1.6406691l0 9.280747c0 1.2814417 -1.0388126 2.3202562 -2.3202553 2.3202562l-11.170511 0c-1.2814422 0 -2.3202562 -1.0388145 -2.3202562 -2.3202562z" fill-rule="nonzero"></path><path stroke="#6d9eeb" stroke-width="1.0" stroke-linejoin="round" stroke-linecap="butt" d="m1.2939633 3.5512276l0 0c0 -1.2814422 1.0388142 -2.3202565 2.3202562 -2.3202565l11.170511 0c0.6153698 0 1.2055359 0.24445486 1.6406689 0.67958736c0.43513298 0.4351325 0.6795864 1.0252988 0.6795864 1.6406691l0 9.280747c0 1.2814417 -1.0388126 2.3202562 -2.3202553 2.3202562l-11.170511 0c-1.2814422 0 -2.3202562 -1.0388145 -2.3202562 -2.3202562z" fill-rule="nonzero"></path><path fill="#6d9eeb" d="m1.2939633 39.438366l0 0c0 -1.2814407 1.0388142 -2.3202553 2.3202562 -2.3202553l11.170511 0c0.6153698 0 1.2055359 0.24445343 1.6406689 0.6795883c0.43513298 0.43513107 0.6795864 1.0252991 0.6795864 1.640667l0 9.280746c0 1.2814445 -1.0388126 2.320259 -2.3202553 2.320259l-11.170511 0c-1.2814422 0 -2.3202562 -1.0388145 -2.3202562 -2.320259z" fill-rule="nonzero"></path><path stroke="#6d9eeb" stroke-width="1.0" stroke-linejoin="round" stroke-linecap="butt" d="m1.2939633 39.438366l0 0c0 -1.2814407 1.0388142 -2.3202553 2.3202562 -2.3202553l11.170511 0c0.6153698 0 1.2055359 0.24445343 1.6406689 0.6795883c0.43513298 0.43513107 0.6795864 1.0252991 0.6795864 1.640667l0 9.280746c0 1.2814445 -1.0388126 2.320259 -2.3202553 2.320259l-11.170511 0c-1.2814422 0 -2.3202562 -1.0388145 -2.3202562 -2.320259z" fill-rule="nonzero"></path><path fill="#000000" fill-opacity="0.0" d="m17.104986 44.07874l18.771654 0" fill-rule="nonzero"></path><path stroke="#434343" stroke-width="2.0" stroke-linejoin="round" stroke-linecap="butt" d="m17.104986 44.07874l11.91748 0" fill-rule="evenodd"></path><path fill="#434343" stroke="#434343" stroke-width="2.0" stroke-linecap="butt" d="m29.022467 44.07874l-2.2491665 2.2491684l6.179535 -2.2491684l-6.179535 -2.2491646z" fill-rule="evenodd"></path></g></svg>

