<?xml version="1.0" standalone="yes"?>

<svg version="1.1" viewBox="0.0 0.0 64.0 64.0" fill="none" stroke="none" stroke-linecap="square" stroke-miterlimit="10" xmlns="http://www.w3.org/2000/svg" xmlns:xlink="http://www.w3.org/1999/xlink"><clipPath id="p.0"><path d="m0 0l64.0 0l0 64.0l-64.0 0l0 -64.0z" clip-rule="nonzero"></path></clipPath><g clip-path="url(#p.0)"><path fill="#000000" fill-opacity="0.0" d="m0 0l64.0 0l0 64.0l-64.0 0z" fill-rule="nonzero"></path><path fill="#4a86e8" d="m0.61417323 46.14173l28.692913 0l0 17.259842l-28.692913 0z" fill-rule="nonzero"></path><path stroke="#4a86e8" stroke-width="1.0" stroke-linejoin="round" stroke-linecap="butt" d="m0.61417323 46.14173l28.692913 0l0 17.259842l-28.692913 0z" fill-rule="nonzero"></path><path fill="#e06666" d="m11.724409 23.267717l37.51181 0l0 17.25984l-37.51181 0z" fill-rule="nonzero"></path><path stroke="#e06666" stroke-width="1.0" stroke-linejoin="round" stroke-linecap="butt" d="m11.724409 23.267717l37.51181 0l0 17.25984l-37.51181 0z" fill-rule="nonzero"></path><path fill="#93c47d" d="m34.04462 0.8687664l29.228344 0l0 17.259842l-29.228344 0z" fill-rule="nonzero"></path><path stroke="#93c47d" stroke-width="1.0" stroke-linejoin="round" stroke-linecap="butt" d="m34.04462 0.8687664l29.228344 0l0 17.259842l-29.228344 0z" fill-rule="nonzero"></path><path fill="#000000" fill-opacity="0.0" d="m11.3149605 22.832022l0.12598419 22.96063" fill-rule="nonzero"></path><path stroke="#000000" stroke-width="1.0" stroke-linejoin="round" stroke-linecap="butt" d="m11.3149605 22.832022l0.12598419 22.96063" fill-rule="nonzero"></path><path fill="#000000" fill-opacity="0.0" d="m33.60105 0.40944883l0 22.425198" fill-rule="nonzero"></path><path stroke="#000000" stroke-width="1.0" stroke-linejoin="round" stroke-linecap="butt" d="m33.60105 0.40944883l0 22.425198" fill-rule="nonzero"></path></g></svg>

