<?xml version="1.0" standalone="yes"?>

<svg version="1.1" viewBox="0.0 0.0 64.0 64.0" fill="none" stroke="none" stroke-linecap="square" stroke-miterlimit="10" xmlns="http://www.w3.org/2000/svg" xmlns:xlink="http://www.w3.org/1999/xlink"><clipPath id="p.0"><path d="m0 0l64.0 0l0 64.0l-64.0 0l0 -64.0z" clip-rule="nonzero"></path></clipPath><g clip-path="url(#p.0)"><path fill="#000000" fill-opacity="0.0" d="m0 0l64.0 0l0 64.0l-64.0 0z" fill-rule="evenodd"></path><path fill="#000000" fill-opacity="0.0" d="m1.2939633 25.023623l15.811023 0l0 21.070868l-15.811023 0z" fill-rule="evenodd"></path><path fill="#93c47d" d="m8.632545 21.015749l0 0c0 -6.45347 5.280925 -11.68504 11.795277 -11.68504l0 0c3.1283016 0 6.128475 1.2310991 8.340519 3.4224691c2.2120438 2.19137 3.4547577 5.1635056 3.4547577 8.262571l0 0c0 6.4534683 -5.2809258 11.685038 -11.795277 11.685038l0 0c-6.514352 0 -11.795277 -5.2315693 -11.795277 -11.685038z" fill-rule="evenodd"></path><path stroke="#93c47d" stroke-width="1.0" stroke-linejoin="round" stroke-linecap="butt" d="m8.632545 21.015749l0 0c0 -6.45347 5.280925 -11.68504 11.795277 -11.68504l0 0c3.1283016 0 6.128475 1.2310991 8.340519 3.4224691c2.2120438 2.19137 3.4547577 5.1635056 3.4547577 8.262571l0 0c0 6.4534683 -5.2809258 11.685038 -11.795277 11.685038l0 0c-6.514352 0 -11.795277 -5.2315693 -11.795277 -11.685038z" fill-rule="evenodd"></path><path fill="#e06666" d="m32.2231 43.55643l0 0c0 -6.4534683 5.280922 -11.6850395 11.795273 -11.6850395l0 0c3.1283035 0 6.128479 1.2310982 8.340519 3.42247c2.2120438 2.191368 3.4547577 5.1635056 3.4547577 8.262569l0 0c0 6.4534683 -5.2809258 11.6850395 -11.795277 11.6850395l0 0c-6.514351 0 -11.795273 -5.231571 -11.795273 -11.6850395z" fill-rule="evenodd"></path><path stroke="#e06666" stroke-width="1.0" stroke-linejoin="round" stroke-linecap="butt" d="m32.2231 43.55643l0 0c0 -6.4534683 5.280922 -11.6850395 11.795273 -11.6850395l0 0c3.1283035 0 6.128479 1.2310982 8.340519 3.42247c2.2120438 2.191368 3.4547577 5.1635056 3.4547577 8.262569l0 0c0 6.4534683 -5.2809258 11.6850395 -11.795277 11.6850395l0 0c-6.514351 0 -11.795273 -5.231571 -11.795273 -11.6850395z" fill-rule="evenodd"></path><path fill="#000000" fill-opacity="0.0" d="m32.2231 21.015749c5.90551 0 11.811024 5.433069 11.811024 10.86614" fill-rule="evenodd"></path><path stroke="#666666" stroke-width="1.0" stroke-linejoin="round" stroke-linecap="butt" d="m32.2231 21.015749c2.952755 0 5.90551 1.3582668 8.120075 3.395668c1.1072845 1.0187016 2.0300217 2.2071857 2.6759377 3.4805622c0.08073807 0.15917206 0.15715027 0.31967163 0.22906494 0.48132896l0.067653656 0.15761375" fill-rule="evenodd"></path><path fill="#666666" stroke="#666666" stroke-width="1.0" stroke-linecap="butt" d="m43.315834 28.530922l-1.3353081 -0.86390305l1.7471924 2.7854385l0.45201874 -3.2568436z" fill-rule="evenodd"></path><path fill="#000000" fill-opacity="0.0" d="m32.2231 43.55643c-5.905514 0 -11.811026 -5.433071 -11.811026 -10.866142" fill-rule="evenodd"></path><path stroke="#666666" stroke-width="1.0" stroke-linejoin="round" stroke-linecap="butt" d="m32.2231 43.55643c-2.952757 0 -5.905514 -1.3582687 -8.120081 -3.395668c-1.1072826 -1.0187035 -2.0300198 -2.2071877 -2.6759338 -3.480564c-0.080739975 -0.15917206 -0.15715408 -0.31967163 -0.22906303 -0.48132706l-0.06765938 -0.15761566" fill-rule="evenodd"></path><path fill="#666666" stroke="#666666" stroke-width="1.0" stroke-linecap="butt" d="m21.13036 36.041256l1.3353081 0.86390305l-1.7471924 -2.7854385l-0.45201874 3.2568436z" fill-rule="evenodd"></path><path fill="#000000" fill-opacity="0.0" d="m44.01837 55.24147c0 1.7886887 4.7700806 4.1178856 9.377953 3.5773735c4.607876 -0.5405121 9.053543 -3.9507294 9.377953 -7.6312065c0.32440948 -3.6804771 -3.4724388 -7.6312065 -6.9448814 -7.6312065" fill-rule="evenodd"></path><path stroke="#666666" stroke-width="1.0" stroke-linejoin="round" stroke-linecap="butt" d="m46.44472 57.66175l0.20998001 0.100112915c0.10588455 0.04831314 0.21416092 0.09560013 0.3246956 0.1417427c1.7685013 0.7383194 4.1129913 1.1854935 6.4169273 0.91524124c4.607876 -0.5405159 9.053547 -3.9507332 9.377953 -7.6312103c0.32440948 -3.6804771 -3.4724388 -7.6312065 -6.9448814 -7.6312065" fill-rule="evenodd"></path><path fill="#666666" stroke="#666666" stroke-width="1.0" stroke-linecap="butt" d="m46.44472 57.661747l1.5904007 -0.001991272l-2.9817352 -1.3858604l1.3933296 2.9782524z" fill-rule="evenodd"></path><path fill="#000000" fill-opacity="0.0" d="m8.632545 21.015749c-3.7716727 0 -7.827858 -3.9097252 -7.543346 -7.543337c0.2845118 -3.6336107 4.9097204 -6.991108 9.677185 -7.5433354c4.7674646 -0.552227 9.677185 1.7008162 9.677185 3.4016318" fill-rule="evenodd"></path><path stroke="#666666" stroke-width="1.0" stroke-linejoin="round" stroke-linecap="butt" d="m8.632545 21.015749c-3.7716727 0 -7.827858 -3.9097252 -7.543346 -7.543336c0.2845118 -3.6336117 4.90972 -6.991109 9.677186 -7.5433364c2.383731 -0.2761135 4.803028 0.14909077 6.6263914 0.8559251c0.113960266 0.044177532 0.22559357 0.089454174 0.3347416 0.13572931l0.19638062 0.08700943" fill-rule="evenodd"></path><path fill="#666666" stroke="#666666" stroke-width="1.0" stroke-linecap="butt" d="m17.923899 7.0077405l-1.5890903 0.06454706l3.0339375 1.2675056l-1.5093937 -2.9211435z" fill-rule="evenodd"></path></g></svg>

