<?xml version="1.0" standalone="yes"?>

<svg version="1.1" viewBox="0.0 0.0 64.0 64.0" fill="none" stroke="none" stroke-linecap="square" stroke-miterlimit="10" xmlns="http://www.w3.org/2000/svg" xmlns:xlink="http://www.w3.org/1999/xlink"><clipPath id="p.0"><path d="m0 0l64.0 0l0 64.0l-64.0 0l0 -64.0z" clip-rule="nonzero"></path></clipPath><g clip-path="url(#p.0)"><path fill="#000000" fill-opacity="0.0" d="m0 0l64.0 0l0 64.0l-64.0 0z" fill-rule="nonzero"></path><path fill="#000000" fill-opacity="0.0" d="m1.2939633 25.023623l15.811023 0l0 21.070868l-15.811023 0z" fill-rule="nonzero"></path><path fill="#000000" fill-opacity="0.0" d="m21.828653 62.24281c0.73573875 -5.0830536 4.653076 -10.54829 2.43285 -15.21756c-1.9869022 -4.1785736 -10.160038 1.6540604 -14.355037 -0.56121826c-3.4842443 -1.8399467 2.2061644 -7.5946007 1.5136366 -11.350731c-0.4869318 -2.6410217 -6.937407 -0.56746674 -7.7244496 -3.1410637c-1.4902794 -4.8731537 7.0519195 -7.7699833 9.2350235 -12.396774c3.6305647 -7.6944914 10.249639 -17.409088 19.055275 -17.550587c11.421377 -0.1835289 28.94752 6.35676 29.129847 17.309643c0.25411606 15.265253 -22.485493 29.380342 -15.782879 43.22857" fill-rule="evenodd"></path><path stroke="#434343" stroke-width="3.0" stroke-linejoin="round" stroke-linecap="butt" d="m21.828653 62.24281c0.73573875 -5.0830536 4.653076 -10.54829 2.43285 -15.21756c-1.9869022 -4.1785736 -10.160038 1.6540604 -14.355037 -0.56121826c-3.4842443 -1.8399467 2.2061644 -7.5946007 1.5136366 -11.350731c-0.4869318 -2.6410217 -6.937407 -0.56746674 -7.7244496 -3.1410637c-1.4902794 -4.8731537 7.0519195 -7.7699833 9.2350235 -12.396774c3.6305647 -7.6944914 10.249639 -17.409088 19.055275 -17.550587c11.421377 -0.1835289 28.94752 6.35676 29.129847 17.309643c0.25411606 15.265253 -22.485493 29.380342 -15.782879 43.22857" fill-rule="evenodd"></path><path fill="#000000" fill-opacity="0.0" d="m8.110236 3.3805773l55.086613 0l0 35.149605l-55.086613 0z" fill-rule="nonzero"></path><path fill="#6d9eeb" d="m25.484257 11.063803l0 0c0.3435669 -1.7907944 1.8380566 -3.145574 3.8493004 -3.4894562c2.0112438 -0.34388256 4.186512 0.38344288 5.6027603 1.8733444l0 0c0.969429 -0.7625494 2.337017 -1.0361958 3.6890984 -0.73816776c1.3520775 0.298028 2.5298424 1.1327267 3.17704 2.2516146l0 0c0.8453789 -0.70352936 2.0874062 -0.93214226 3.285347 -0.60471535c1.1979408 0.3274269 2.182251 1.1645546 2.603653 2.2143278l0 0c1.2857361 -0.60465336 2.9301376 -0.45982456 4.221657 0.3718176c1.291523 0.83164215 1.9981956 2.2007275 1.8142433 3.514845l0 0c1.057682 0.6869297 1.7722397 1.7183418 1.9590569 2.8277493c0.18681717 1.1094093 -0.17243195 2.1879845 -0.98493195 2.957056l0 0c0.6797905 1.6742477 0.33607864 3.452713 -0.90286636 4.6717052c-1.238945 1.2189903 -3.186985 1.6953678 -5.1171494 1.2513542c-0.5145607 1.3787918 -1.8645248 2.3261013 -3.5295563 2.4767933c-1.6650314 0.15069199 -3.385128 -0.5187626 -4.4972954 -1.7503262c-1.1875267 1.4444904 -3.2812958 2.0655746 -5.3767242 1.5949192c-2.0954247 -0.47065544 -3.816864 -1.9486752 -4.4205894 -3.7955017c-1.6367741 0.20988083 -3.3662643 -0.18517303 -4.7983303 -1.0960464c-1.4320679 -0.9108753 -2.4460812 -2.2608395 -2.813301 -3.7453728l0 0c-1.4607773 -0.36979485 -2.5980453 -1.4862232 -2.8473797 -2.795208c-0.24933624 -1.3089848 0.44233704 -2.5318718 1.7317448 -3.0617485l0 0c-1.0287495 -1.086546 -1.2163982 -2.5713806 -0.46509552 -3.6802206c0.7513027 -1.10884 2.2713108 -1.5904188 3.7673988 -1.1936121z" fill-rule="nonzero"></path><path fill="#000000" fill-opacity="0.0" d="m22.130434 15.992794l0 0c0.48546982 0.5127449 1.1220589 0.8961029 1.8242931 1.0986061m-0.70900726 4.7583485c0.3055191 0.07734108 0.6171169 0.11968231 0.9267597 0.1259346m6.6844883 4.7152576c-0.111242294 -0.3402958 -0.18214035 -0.68655777 -0.21148491 -1.0328903m10.009176 3.233551l0 0c0.21650314 -0.26335144 0.39853668 -0.54917145 0.5430603 -0.85268784m7.483486 0.12624359c0.5478287 -1.4679356 0.055671692 -3.1718292 -1.2650719 -4.3798084m7.285 -1.543108c-0.4335823 0.41040802 -0.9792137 0.7161751 -1.5941162 0.8933277m0.6202736 -6.678179l0 0c-0.030525208 0.21807861 -0.08520126 0.4308567 -0.16326523 0.6353855m-5.8725433 -4.521946l0 0c-0.3207245 0.15083122 -0.6100807 0.3443861 -0.85905457 0.5746403m-5.0299606 -2.1843748l0 0c-0.20303345 0.16896534 -0.3788452 0.3618927 -0.5233841 0.5743389m-6.3428574 -2.0878038l0 0c0.2996788 0.3152628 0.5584717 0.65781593 0.77069473 1.0201368m-10.222664 0.59603596l0 0c-0.047351837 0.24681854 -0.07206535 0.49857998 -0.073905945 0.75292873" fill-rule="nonzero"></path><path stroke="#434343" stroke-width="1.0" stroke-linejoin="round" stroke-linecap="butt" d="m25.484257 11.063803l0 0c0.3435669 -1.7907944 1.8380566 -3.145574 3.8493004 -3.4894562c2.0112438 -0.34388256 4.186512 0.38344288 5.6027603 1.8733444l0 0c0.969429 -0.7625494 2.337017 -1.0361958 3.6890984 -0.73816776c1.3520775 0.298028 2.5298424 1.1327267 3.17704 2.2516146l0 0c0.8453789 -0.70352936 2.0874062 -0.93214226 3.285347 -0.60471535c1.1979408 0.3274269 2.182251 1.1645546 2.603653 2.2143278l0 0c1.2857361 -0.60465336 2.9301376 -0.45982456 4.221657 0.3718176c1.291523 0.83164215 1.9981956 2.2007275 1.8142433 3.514845l0 0c1.057682 0.6869297 1.7722397 1.7183418 1.9590569 2.8277493c0.18681717 1.1094093 -0.17243195 2.1879845 -0.98493195 2.957056l0 0c0.6797905 1.6742477 0.33607864 3.452713 -0.90286636 4.6717052c-1.238945 1.2189903 -3.186985 1.6953678 -5.1171494 1.2513542c-0.5145607 1.3787918 -1.8645248 2.3261013 -3.5295563 2.4767933c-1.6650314 0.15069199 -3.385128 -0.5187626 -4.4972954 -1.7503262c-1.1875267 1.4444904 -3.2812958 2.0655746 -5.3767242 1.5949192c-2.0954247 -0.47065544 -3.816864 -1.9486752 -4.4205894 -3.7955017c-1.6367741 0.20988083 -3.3662643 -0.18517303 -4.7983303 -1.0960464c-1.4320679 -0.9108753 -2.4460812 -2.2608395 -2.813301 -3.7453728l0 0c-1.4607773 -0.36979485 -2.5980453 -1.4862232 -2.8473797 -2.795208c-0.24933624 -1.3089848 0.44233704 -2.5318718 1.7317448 -3.0617485l0 0c-1.0287495 -1.086546 -1.2163982 -2.5713806 -0.46509552 -3.6802206c0.7513027 -1.10884 2.2713108 -1.5904188 3.7673988 -1.1936121z" fill-rule="nonzero"></path><path stroke="#434343" stroke-width="1.0" stroke-linejoin="round" stroke-linecap="butt" d="m22.130434 15.992794l0 0c0.48546982 0.5127449 1.1220589 0.8961029 1.8242931 1.0986061m-0.70900726 4.7583485c0.3055191 0.07734108 0.6171169 0.11968231 0.9267597 0.1259346m6.6844883 4.7152576c-0.111242294 -0.3402958 -0.18214035 -0.68655777 -0.21148491 -1.0328903m10.009176 3.233551l0 0c0.21650314 -0.26335144 0.39853668 -0.54917145 0.5430603 -0.85268784m7.483486 0.12624359c0.5478287 -1.4679356 0.055671692 -3.1718292 -1.2650719 -4.3798084m7.285 -1.543108c-0.4335823 0.41040802 -0.9792137 0.7161751 -1.5941162 0.8933277m0.6202736 -6.678179l0 0c-0.030525208 0.21807861 -0.08520126 0.4308567 -0.16326523 0.6353855m-5.8725433 -4.521946l0 0c-0.3207245 0.15083122 -0.6100807 0.3443861 -0.85905457 0.5746403m-5.0299606 -2.1843748l0 0c-0.20303345 0.16896534 -0.3788452 0.3618927 -0.5233841 0.5743389m-6.3428574 -2.0878038l0 0c0.2996788 0.3152628 0.5584717 0.65781593 0.77069473 1.0201368m-10.222664 0.59603596l0 0c-0.047351837 0.24681854 -0.07206535 0.49857998 -0.073905945 0.75292873" fill-rule="nonzero"></path></g></svg>

