<?xml version="1.0" standalone="yes"?>

<svg version="1.1" viewBox="0.0 0.0 64.0 64.0" fill="none" stroke="none" stroke-linecap="square" stroke-miterlimit="10" xmlns="http://www.w3.org/2000/svg" xmlns:xlink="http://www.w3.org/1999/xlink"><clipPath id="p.0"><path d="m0 0l64.0 0l0 64.0l-64.0 0l0 -64.0z" clip-rule="nonzero"></path></clipPath><g clip-path="url(#p.0)"><path fill="#000000" fill-opacity="0.0" d="m0 0l64.0 0l0 64.0l-64.0 0z" fill-rule="evenodd"></path><path fill="#e06666" d="m16.562222 5.647053l0 0c0 -1.7685063 1.4336586 -3.2021637 3.2021637 -3.2021637l20.461815 0c0.84926605 0 1.6637497 0.33736968 2.2642708 0.93789196c0.6005249 0.6005223 0.9378929 1.4150052 0.9378929 2.2642717l0 12.808271c0 1.7685051 -1.4336586 3.2021637 -3.2021637 3.2021637l-20.461815 0c-1.7685051 0 -3.2021637 -1.4336586 -3.2021637 -3.2021637z" fill-rule="evenodd"></path><path stroke="#e06666" stroke-width="1.0" stroke-linejoin="round" stroke-linecap="butt" d="m16.562222 5.647053l0 0c0 -1.7685063 1.4336586 -3.2021637 3.2021637 -3.2021637l20.461815 0c0.84926605 0 1.6637497 0.33736968 2.2642708 0.93789196c0.6005249 0.6005223 0.9378929 1.4150052 0.9378929 2.2642717l0 12.808271c0 1.7685051 -1.4336586 3.2021637 -3.2021637 3.2021637l-20.461815 0c-1.7685051 0 -3.2021637 -1.4336586 -3.2021637 -3.2021637z" fill-rule="evenodd"></path><path fill="#434343" d="m19.902222 6.2366257l0 0c0 -0.3623991 0.2937832 -0.65618134 0.65618134 -0.65618134l6.0577164 0c0.1740303 0 0.34093285 0.06913328 0.46399117 0.19219112c0.12305641 0.12305784 0.19219017 0.2899599 0.19219017 0.4639902l0 2.6246452c0 0.3623991 -0.29378128 0.65618134 -0.65618134 0.65618134l-6.0577164 0c-0.36239815 0 -0.65618134 -0.29378223 -0.65618134 -0.65618134z" fill-rule="evenodd"></path><path stroke="#434343" stroke-width="1.0" stroke-linejoin="round" stroke-linecap="butt" d="m19.902222 6.2366257l0 0c0 -0.3623991 0.2937832 -0.65618134 0.65618134 -0.65618134l6.0577164 0c0.1740303 0 0.34093285 0.06913328 0.46399117 0.19219112c0.12305641 0.12305784 0.19219017 0.2899599 0.19219017 0.4639902l0 2.6246452c0 0.3623991 -0.29378128 0.65618134 -0.65618134 0.65618134l-6.0577164 0c-0.36239815 0 -0.65618134 -0.29378223 -0.65618134 -0.65618134z" fill-rule="evenodd"></path><path fill="#434343" d="m33.039555 6.2366257l0 0c0 -0.3623991 0.2937851 -0.65618134 0.65618134 -0.65618134l6.0577164 0c0.1740303 0 0.34093475 0.06913328 0.46398926 0.19219112c0.12305832 0.12305784 0.19219208 0.2899599 0.19219208 0.4639902l0 2.6246452c0 0.3623991 -0.29378128 0.65618134 -0.65618134 0.65618134l-6.0577164 0c-0.36239624 0 -0.65618134 -0.29378223 -0.65618134 -0.65618134z" fill-rule="evenodd"></path><path stroke="#434343" stroke-width="1.0" stroke-linejoin="round" stroke-linecap="butt" d="m33.039555 6.2366257l0 0c0 -0.3623991 0.2937851 -0.65618134 0.65618134 -0.65618134l6.0577164 0c0.1740303 0 0.34093475 0.06913328 0.46398926 0.19219112c0.12305832 0.12305784 0.19219208 0.2899599 0.19219208 0.4639902l0 2.6246452c0 0.3623991 -0.29378128 0.65618134 -0.65618134 0.65618134l-6.0577164 0c-0.36239624 0 -0.65618134 -0.29378223 -0.65618134 -0.65618134z" fill-rule="evenodd"></path><path fill="#434343" d="m19.902222 17.524073l0 0c0 -0.19714355 0.15981865 -0.3569622 0.3569622 -0.3569622l19.790014 0c0.09466934 0 0.18546677 0.0376091 0.2524109 0.10455322c0.06694031 0.066942215 0.10454941 0.15773773 0.10454941 0.25240898l0 1.4278088c0 0.19714355 -0.15981674 0.3569622 -0.3569603 0.3569622l-19.790014 0l0 0c-0.19714355 0 -0.3569622 -0.15981865 -0.3569622 -0.3569622z" fill-rule="evenodd"></path><path stroke="#434343" stroke-width="1.0" stroke-linejoin="round" stroke-linecap="butt" d="m19.902222 17.524073l0 0c0 -0.19714355 0.15981865 -0.3569622 0.3569622 -0.3569622l19.790014 0c0.09466934 0 0.18546677 0.0376091 0.2524109 0.10455322c0.06694031 0.066942215 0.10454941 0.15773773 0.10454941 0.25240898l0 1.4278088c0 0.19714355 -0.15981674 0.3569622 -0.3569603 0.3569622l-19.790014 0l0 0c-0.19714355 0 -0.3569622 -0.15981865 -0.3569622 -0.3569622z" fill-rule="evenodd"></path><path fill="#6d9eeb" d="m1.6186666 44.139053l0 0c0 -1.7685051 1.4336576 -3.2021637 3.2021637 -3.2021637l20.461815 0c0.84926605 0 1.6637497 0.337368 2.2642727 0.9378929c0.6005211 0.6005211 0.937891 1.4150047 0.937891 2.2642708l0 12.8082695c0 1.7685051 -1.4336567 3.2021637 -3.2021637 3.2021637l-20.461815 0c-1.768506 0 -3.2021637 -1.4336586 -3.2021637 -3.2021637z" fill-rule="evenodd"></path><path stroke="#6d9eeb" stroke-width="1.0" stroke-linejoin="round" stroke-linecap="butt" d="m1.6186666 44.139053l0 0c0 -1.7685051 1.4336576 -3.2021637 3.2021637 -3.2021637l20.461815 0c0.84926605 0 1.6637497 0.337368 2.2642727 0.9378929c0.6005211 0.6005211 0.937891 1.4150047 0.937891 2.2642708l0 12.8082695c0 1.7685051 -1.4336567 3.2021637 -3.2021637 3.2021637l-20.461815 0c-1.768506 0 -3.2021637 -1.4336586 -3.2021637 -3.2021637z" fill-rule="evenodd"></path><path fill="#434343" d="m4.958667 44.728626l0 0c0 -0.36240005 0.29378223 -0.65618134 0.65618086 -0.65618134l6.057717 0c0.1740303 0 0.3409319 0.06913376 0.4639902 0.19219208c0.123057365 0.123054504 0.19219112 0.28995895 0.19219112 0.46398926l0 2.6246452c0 0.36240005 -0.2937832 0.65618134 -0.65618134 0.65618134l-6.057717 0c-0.36239862 0 -0.65618086 -0.29378128 -0.65618086 -0.65618134z" fill-rule="evenodd"></path><path stroke="#434343" stroke-width="1.0" stroke-linejoin="round" stroke-linecap="butt" d="m4.958667 44.728626l0 0c0 -0.36240005 0.29378223 -0.65618134 0.65618086 -0.65618134l6.057717 0c0.1740303 0 0.3409319 0.06913376 0.4639902 0.19219208c0.123057365 0.123054504 0.19219112 0.28995895 0.19219112 0.46398926l0 2.6246452c0 0.36240005 -0.2937832 0.65618134 -0.65618134 0.65618134l-6.057717 0c-0.36239862 0 -0.65618086 -0.29378128 -0.65618086 -0.65618134z" fill-rule="evenodd"></path><path fill="#434343" d="m18.096 44.728626l0 0c0 -0.36240005 0.29378128 -0.65618134 0.65618134 -0.65618134l6.0577164 0c0.1740284 0 0.34093094 0.06913376 0.46398926 0.19219208c0.12305832 0.123054504 0.19219017 0.28995895 0.19219017 0.46398926l0 2.6246452c0 0.36240005 -0.29378128 0.65618134 -0.6561794 0.65618134l-6.0577164 0c-0.36240005 0 -0.65618134 -0.29378128 -0.65618134 -0.65618134z" fill-rule="evenodd"></path><path stroke="#434343" stroke-width="1.0" stroke-linejoin="round" stroke-linecap="butt" d="m18.096 44.728626l0 0c0 -0.36240005 0.29378128 -0.65618134 0.65618134 -0.65618134l6.0577164 0c0.1740284 0 0.34093094 0.06913376 0.46398926 0.19219208c0.12305832 0.123054504 0.19219017 0.28995895 0.19219017 0.46398926l0 2.6246452c0 0.36240005 -0.29378128 0.65618134 -0.6561794 0.65618134l-6.0577164 0c-0.36240005 0 -0.65618134 -0.29378128 -0.65618134 -0.65618134z" fill-rule="evenodd"></path><path fill="#434343" d="m4.958667 56.016075l0 0c0 -0.19714737 0.15981722 -0.3569641 0.3569622 -0.3569641l19.790012 0c0.09467316 0 0.18546867 0.0376091 0.2524109 0.10455322c0.06694412 0.06694031 0.10455322 0.15773773 0.10455322 0.2524109l0 1.4278069c0 0.19714355 -0.15981865 0.3569603 -0.3569641 0.3569603l-19.790012 0l0 0c-0.19714499 0 -0.3569622 -0.15981674 -0.3569622 -0.3569603z" fill-rule="evenodd"></path><path stroke="#434343" stroke-width="1.0" stroke-linejoin="round" stroke-linecap="butt" d="m4.958667 56.016075l0 0c0 -0.19714737 0.15981722 -0.3569641 0.3569622 -0.3569641l19.790012 0c0.09467316 0 0.18546867 0.0376091 0.2524109 0.10455322c0.06694412 0.06694031 0.10455322 0.15773773 0.10455322 0.2524109l0 1.4278069c0 0.19714355 -0.15981865 0.3569603 -0.3569641 0.3569603l-19.790012 0l0 0c-0.19714499 0 -0.3569622 -0.15981674 -0.3569622 -0.3569603z" fill-rule="evenodd"></path><path fill="#93c47d" d="m35.30622 44.021038l0 0c0 -1.8022499 6.011326 -3.26326 13.42667 -3.26326c7.4153404 0 13.426666 1.46101 13.426666 3.26326l0 13.053036c0 1.8022499 -6.011326 3.26326 -13.426666 3.26326c-7.415344 0 -13.42667 -1.46101 -13.42667 -3.26326z" fill-rule="evenodd"></path><path fill="#000000" fill-opacity="0.0" d="m62.159557 44.021038l0 0c0 1.8022461 -6.011326 3.26326 -13.426666 3.26326c-7.415344 0 -13.42667 -1.4610138 -13.42667 -3.26326" fill-rule="evenodd"></path><path fill="#000000" fill-opacity="0.0" d="m35.30622 44.021038l0 0c0 -1.8022499 6.011326 -3.26326 13.42667 -3.26326c7.4153404 0 13.426666 1.46101 13.426666 3.26326l0 13.053036c0 1.8022499 -6.011326 3.26326 -13.426666 3.26326c-7.415344 0 -13.42667 -1.46101 -13.42667 -3.26326z" fill-rule="evenodd"></path><path stroke="#434343" stroke-width="2.0" stroke-linejoin="round" stroke-linecap="butt" d="m62.159557 44.021038l0 0c0 1.8022461 -6.011326 3.26326 -13.426666 3.26326c-7.415344 0 -13.42667 -1.4610138 -13.42667 -3.26326" fill-rule="evenodd"></path><path stroke="#434343" stroke-width="2.0" stroke-linejoin="round" stroke-linecap="butt" d="m35.30622 44.021038l0 0c0 -1.8022499 6.011326 -3.26326 13.42667 -3.26326c7.4153404 0 13.426666 1.46101 13.426666 3.26326l0 13.053036c0 1.8022499 -6.011326 3.26326 -13.426666 3.26326c-7.415344 0 -13.42667 -1.46101 -13.42667 -3.26326z" fill-rule="evenodd"></path><path fill="#000000" fill-opacity="0.0" d="m29.995293 21.657488l0 9.638372l-14.929133 0l0 9.637218" fill-rule="evenodd"></path><path stroke="#434343" stroke-width="2.0" stroke-linejoin="round" stroke-linecap="butt" d="m29.995293 21.657488l0 9.638372l-14.929133 0l0 9.637218" fill-rule="evenodd"></path><path fill="#000000" fill-opacity="0.0" d="m29.995293 21.657488l0 9.606483l18.740158 0l0 9.480131" fill-rule="evenodd"></path><path stroke="#434343" stroke-width="2.0" stroke-linejoin="round" stroke-linecap="butt" d="m29.995293 21.657488l0 9.606483l18.740158 0l0 9.480131" fill-rule="evenodd"></path></g></svg>

