<?xml version="1.0" standalone="yes"?>

<svg version="1.1" viewBox="0.0 0.0 64.0 64.0" fill="none" stroke="none" stroke-linecap="square" stroke-miterlimit="10" xmlns="http://www.w3.org/2000/svg" xmlns:xlink="http://www.w3.org/1999/xlink"><clipPath id="p.0"><path d="m0 0l64.0 0l0 64.0l-64.0 0l0 -64.0z" clip-rule="nonzero"></path></clipPath><g clip-path="url(#p.0)"><path fill="#000000" fill-opacity="0.0" d="m0 0l64.0 0l0 64.0l-64.0 0z" fill-rule="nonzero"></path><path fill="#000000" fill-opacity="0.0" d="m1.9081365 11.756106l0 0c0 -5.5519495 4.500745 -10.052694 10.052694 -10.052694l40.20957 0l0 0c2.6661415 0 5.2230835 1.0591202 7.10833 2.944366c1.8852463 1.8852458 2.9443665 4.442188 2.9443665 7.1083283l0 40.493034c0 5.5519524 -4.5007477 10.052696 -10.052696 10.052696l-40.20957 0c-5.5519495 0 -10.052694 -4.500744 -10.052694 -10.052696z" fill-rule="nonzero"></path><path stroke="#434343" stroke-width="3.0" stroke-linejoin="round" stroke-linecap="butt" d="m1.9081365 11.756106l0 0c0 -5.5519495 4.500745 -10.052694 10.052694 -10.052694l40.20957 0l0 0c2.6661415 0 5.2230835 1.0591202 7.10833 2.944366c1.8852463 1.8852458 2.9443665 4.442188 2.9443665 7.1083283l0 40.493034c0 5.5519524 -4.5007477 10.052696 -10.052696 10.052696l-40.20957 0c-5.5519495 0 -10.052694 -4.500744 -10.052694 -10.052696z" fill-rule="nonzero"></path><path fill="#000000" fill-opacity="0.0" d="m1.2939633 25.023623l15.811023 0l0 21.070868l-15.811023 0z" fill-rule="nonzero"></path><path fill="#000000" fill-opacity="0.0" d="m6.391801 9.601049l15.180314 0" fill-rule="nonzero"></path><path stroke="#000000" stroke-width="4.0" stroke-linejoin="round" stroke-linecap="butt" d="m6.391801 9.601049l15.180314 0" fill-rule="nonzero"></path><path fill="#000000" fill-opacity="0.0" d="m6.391801 16.740158l15.180314 0" fill-rule="nonzero"></path><path stroke="#000000" stroke-width="4.0" stroke-linejoin="round" stroke-linecap="butt" d="m6.391801 16.740158l15.180314 0" fill-rule="nonzero"></path><path fill="#000000" fill-opacity="0.0" d="m6.3652377 24.015749l15.180315 0" fill-rule="nonzero"></path><path stroke="#000000" stroke-width="4.0" stroke-linejoin="round" stroke-linecap="butt" d="m6.3652377 24.015749l15.180315 0" fill-rule="nonzero"></path><path fill="#000000" fill-opacity="0.0" d="m6.3652377 31.566929l15.180315 0" fill-rule="nonzero"></path><path stroke="#000000" stroke-width="4.0" stroke-linejoin="round" stroke-linecap="butt" d="m6.3652377 31.566929l15.180315 0" fill-rule="nonzero"></path><path fill="#000000" fill-opacity="0.0" d="m6.391801 39.11286l15.180314 0" fill-rule="nonzero"></path><path stroke="#000000" stroke-width="4.0" stroke-linejoin="round" stroke-linecap="butt" d="m6.391801 39.11286l15.180314 0" fill-rule="nonzero"></path><path fill="#000000" fill-opacity="0.0" d="m6.3652377 46.866142l15.180315 0" fill-rule="nonzero"></path><path stroke="#000000" stroke-width="4.0" stroke-linejoin="round" stroke-linecap="butt" d="m6.3652377 46.866142l15.180315 0" fill-rule="nonzero"></path><path fill="#000000" fill-opacity="0.0" d="m6.391801 54.417324l15.180314 0" fill-rule="nonzero"></path><path stroke="#000000" stroke-width="4.0" stroke-linejoin="round" stroke-linecap="butt" d="m6.391801 54.417324l15.180314 0" fill-rule="nonzero"></path><path fill="#000000" fill-opacity="0.0" d="m24.835047 9.601049l15.001181 0" fill-rule="nonzero"></path><path stroke="#000000" stroke-width="4.0" stroke-linejoin="round" stroke-linecap="butt" d="m24.835047 9.601049l15.001181 0" fill-rule="nonzero"></path><path fill="#000000" fill-opacity="0.0" d="m24.835047 16.740158l15.001181 0" fill-rule="nonzero"></path><path stroke="#000000" stroke-width="4.0" stroke-linejoin="round" stroke-linecap="butt" d="m24.835047 16.740158l15.001181 0" fill-rule="nonzero"></path><path fill="#000000" fill-opacity="0.0" d="m24.808796 24.015749l15.001183 0" fill-rule="nonzero"></path><path stroke="#000000" stroke-width="4.0" stroke-linejoin="round" stroke-linecap="butt" d="m24.808796 24.015749l15.001183 0" fill-rule="nonzero"></path><path fill="#000000" fill-opacity="0.0" d="m24.808796 31.566929l15.001183 0" fill-rule="nonzero"></path><path stroke="#000000" stroke-width="4.0" stroke-linejoin="round" stroke-linecap="butt" d="m24.808796 31.566929l15.001183 0" fill-rule="nonzero"></path><path fill="#000000" fill-opacity="0.0" d="m24.835047 39.11286l15.001181 0" fill-rule="nonzero"></path><path stroke="#000000" stroke-width="4.0" stroke-linejoin="round" stroke-linecap="butt" d="m24.835047 39.11286l15.001181 0" fill-rule="nonzero"></path><path fill="#000000" fill-opacity="0.0" d="m24.808796 46.866142l15.001183 0" fill-rule="nonzero"></path><path stroke="#000000" stroke-width="4.0" stroke-linejoin="round" stroke-linecap="butt" d="m24.808796 46.866142l15.001183 0" fill-rule="nonzero"></path><path fill="#000000" fill-opacity="0.0" d="m24.835047 54.417324l15.001181 0" fill-rule="nonzero"></path><path stroke="#000000" stroke-width="4.0" stroke-linejoin="round" stroke-linecap="butt" d="m24.835047 54.417324l15.001181 0" fill-rule="nonzero"></path><path fill="#000000" fill-opacity="0.0" d="m42.812 9.594488l13.921261 0" fill-rule="nonzero"></path><path stroke="#000000" stroke-width="4.0" stroke-linejoin="round" stroke-linecap="butt" d="m42.812 9.594488l13.921261 0" fill-rule="nonzero"></path><path fill="#000000" fill-opacity="0.0" d="m42.812 16.733595l13.921261 0" fill-rule="nonzero"></path><path stroke="#000000" stroke-width="4.0" stroke-linejoin="round" stroke-linecap="butt" d="m42.812 16.733595l13.921261 0" fill-rule="nonzero"></path><path fill="#000000" fill-opacity="0.0" d="m42.78764 24.009186l13.921261 0" fill-rule="nonzero"></path><path stroke="#000000" stroke-width="4.0" stroke-linejoin="round" stroke-linecap="butt" d="m42.78764 24.009186l13.921261 0" fill-rule="nonzero"></path><path fill="#000000" fill-opacity="0.0" d="m42.78764 31.560368l13.921261 0" fill-rule="nonzero"></path><path stroke="#000000" stroke-width="4.0" stroke-linejoin="round" stroke-linecap="butt" d="m42.78764 31.560368l13.921261 0" fill-rule="nonzero"></path><path fill="#000000" fill-opacity="0.0" d="m42.812 39.1063l13.921261 0" fill-rule="nonzero"></path><path stroke="#000000" stroke-width="4.0" stroke-linejoin="round" stroke-linecap="butt" d="m42.812 39.1063l13.921261 0" fill-rule="nonzero"></path><path fill="#000000" fill-opacity="0.0" d="m42.78764 46.85958l13.921261 0" fill-rule="nonzero"></path><path stroke="#000000" stroke-width="4.0" stroke-linejoin="round" stroke-linecap="butt" d="m42.78764 46.85958l13.921261 0" fill-rule="nonzero"></path><path fill="#000000" fill-opacity="0.0" d="m42.812 54.410763l13.921261 0" fill-rule="nonzero"></path><path stroke="#000000" stroke-width="4.0" stroke-linejoin="round" stroke-linecap="butt" d="m42.812 54.410763l13.921261 0" fill-rule="nonzero"></path></g></svg>

