<?xml version="1.0" standalone="yes"?>

<svg version="1.1" viewBox="0.0 0.0 64.0 64.0" fill="none" stroke="none" stroke-linecap="square" stroke-miterlimit="10" xmlns="http://www.w3.org/2000/svg" xmlns:xlink="http://www.w3.org/1999/xlink"><clipPath id="p.0"><path d="m0 0l64.0 0l0 64.0l-64.0 0l0 -64.0z" clip-rule="nonzero"></path></clipPath><g clip-path="url(#p.0)"><path fill="#000000" fill-opacity="0.0" d="m0 0l64.0 0l0 64.0l-64.0 0z" fill-rule="evenodd"></path><path fill="#e06666" d="m1.6186666 34.359913l0 0c0 -3.090538 2.5053754 -5.595913 5.5959125 -5.595913l49.186127 0c1.484127 0 2.9074707 0.5895672 3.9569092 1.6390057c1.0494347 1.0494366 1.6390038 2.4727802 1.6390038 3.9569073l0 22.382977c0 3.090538 -2.505375 5.595913 -5.595913 5.595913l-49.186127 0c-3.090537 0 -5.5959125 -2.505375 -5.5959125 -5.595913z" fill-rule="evenodd"></path><path stroke="#e06666" stroke-width="1.0" stroke-linejoin="round" stroke-linecap="butt" d="m1.6186666 34.359913l0 0c0 -3.090538 2.5053754 -5.595913 5.5959125 -5.595913l49.186127 0c1.484127 0 2.9074707 0.5895672 3.9569092 1.6390057c1.0494347 1.0494366 1.6390038 2.4727802 1.6390038 3.9569073l0 22.382977c0 3.090538 -2.505375 5.595913 -5.595913 5.595913l-49.186127 0c-3.090537 0 -5.5959125 -2.505375 -5.5959125 -5.595913z" fill-rule="evenodd"></path><path fill="#434343" d="m25.906666 40.58624l0 0c0 -3.1136665 2.636938 -5.6377945 5.889765 -5.6377945l0 0c1.5620632 0 3.0601482 0.5939789 4.16469 1.6512718c1.1045456 1.0572929 1.7250748 2.4912872 1.7250748 3.9865227l0 0c0 3.1136703 -2.63694 5.6377945 -5.889765 5.6377945l0 0c-3.2528267 0 -5.889765 -2.5241241 -5.889765 -5.6377945z" fill-rule="evenodd"></path><path stroke="#434343" stroke-width="1.0" stroke-linejoin="round" stroke-linecap="butt" d="m25.906666 40.58624l0 0c0 -3.1136665 2.636938 -5.6377945 5.889765 -5.6377945l0 0c1.5620632 0 3.0601482 0.5939789 4.16469 1.6512718c1.1045456 1.0572929 1.7250748 2.4912872 1.7250748 3.9865227l0 0c0 3.1136703 -2.63694 5.6377945 -5.889765 5.6377945l0 0c-3.2528267 0 -5.889765 -2.5241241 -5.889765 -5.6377945z" fill-rule="evenodd"></path><path fill="#434343" d="m25.906666 57.613426l5.889765 -19.716537l5.889765 19.716537z" fill-rule="evenodd"></path><path stroke="#434343" stroke-width="1.0" stroke-linejoin="round" stroke-linecap="butt" d="m25.906666 57.613426l5.889765 -19.716537l5.889765 19.716537z" fill-rule="evenodd"></path><path fill="#434343" d="m9.275591 27.758589c-8.1825256E-4 -9.35161 4.255372 -17.993237 11.16506 -22.669165c6.909687 -4.675928 15.4229355 -4.675645 22.332397 7.4386597E-4c6.909458 4.6763887 11.16523 13.318298 11.1639595 22.669909l-8.272636 -0.0015449524c7.4005127E-4 -6.3957806 -2.678463 -12.306144 -7.0282288 -15.504401c-4.349766 -3.1982574 -9.709154 -3.1984358 -14.0590515 -4.682541E-4c-4.3498974 3.1979675 -7.0293407 9.108152 -7.028866 15.503933z" fill-rule="evenodd"></path><path stroke="#434343" stroke-width="1.0" stroke-linejoin="round" stroke-linecap="butt" d="m9.275591 27.758589c-8.1825256E-4 -9.35161 4.255372 -17.993237 11.16506 -22.669165c6.909687 -4.675928 15.4229355 -4.675645 22.332397 7.4386597E-4c6.909458 4.6763887 11.16523 13.318298 11.1639595 22.669909l-8.272636 -0.0015449524c7.4005127E-4 -6.3957806 -2.678463 -12.306144 -7.0282288 -15.504401c-4.349766 -3.1982574 -9.709154 -3.1984358 -14.0590515 -4.682541E-4c-4.3498974 3.1979675 -7.0293407 9.108152 -7.028866 15.503933z" fill-rule="evenodd"></path></g></svg>

