<?xml version="1.0" standalone="yes"?>

<svg version="1.1" viewBox="0.0 0.0 64.0 64.0" fill="none" stroke="none" stroke-linecap="square" stroke-miterlimit="10" xmlns="http://www.w3.org/2000/svg" xmlns:xlink="http://www.w3.org/1999/xlink"><clipPath id="p.0"><path d="m0 0l64.0 0l0 64.0l-64.0 0l0 -64.0z" clip-rule="nonzero"></path></clipPath><g clip-path="url(#p.0)"><path fill="#000000" fill-opacity="0.0" d="m0 0l64.0 0l0 64.0l-64.0 0z" fill-rule="evenodd"></path><path fill="#000000" fill-opacity="0.0" d="m1.2939633 25.023623l15.811023 0l0 21.070868l-15.811023 0z" fill-rule="evenodd"></path><path fill="#ffd966" d="m6.8845143 8.897797l0 0c0 -4.386475 3.555941 -7.942416 7.9424157 -7.942416l31.768711 0l0 0c2.1064606 0 4.126644 0.83678794 5.6161346 2.3262796c1.4894943 1.4894922 2.3262825 3.5096767 2.3262825 5.6161366l0 46.067924c0 4.3864746 -3.5559425 7.942417 -7.942417 7.942417l-31.768711 0c-4.3864746 0 -7.9424157 -3.5559425 -7.9424157 -7.942417z" fill-rule="evenodd"></path><path stroke="#ffd966" stroke-width="1.0" stroke-linejoin="round" stroke-linecap="butt" d="m6.8845143 8.897797l0 0c0 -4.386475 3.555941 -7.942416 7.9424157 -7.942416l31.768711 0l0 0c2.1064606 0 4.126644 0.83678794 5.6161346 2.3262796c1.4894943 1.4894922 2.3262825 3.5096767 2.3262825 5.6161366l0 46.067924c0 4.3864746 -3.5559425 7.942417 -7.942417 7.942417l-31.768711 0c-4.3864746 0 -7.9424157 -3.5559425 -7.9424157 -7.942417z" fill-rule="evenodd"></path><path fill="#c27ba0" d="m12.338583 14.960661l0 0c0 -0.8465643 0.6862755 -1.5328398 1.5328388 -1.5328398l10.162668 0c0.4065342 0 0.79641724 0.16149521 1.0838814 0.4489584c0.28746223 0.2874632 0.44895744 0.6773472 0.44895744 1.0838814l0 6.131172c0 0.84656334 -0.6862755 1.5328388 -1.5328388 1.5328388l-10.162668 0l0 0c-0.84656334 0 -1.5328388 -0.6862755 -1.5328388 -1.5328388z" fill-rule="evenodd"></path><path stroke="#434343" stroke-width="2.0" stroke-linejoin="round" stroke-linecap="butt" d="m12.338583 14.960661l0 0c0 -0.8465643 0.6862755 -1.5328398 1.5328388 -1.5328398l10.162668 0c0.4065342 0 0.79641724 0.16149521 1.0838814 0.4489584c0.28746223 0.2874632 0.44895744 0.6773472 0.44895744 1.0838814l0 6.131172c0 0.84656334 -0.6862755 1.5328388 -1.5328388 1.5328388l-10.162668 0l0 0c-0.84656334 0 -1.5328388 -0.6862755 -1.5328388 -1.5328388z" fill-rule="evenodd"></path><path fill="#c27ba0" d="m35.154854 14.960661l0 0c0 -0.8465643 0.6862755 -1.5328398 1.5328407 -1.5328398l10.16267 0c0.4065323 0 0.79641724 0.16149521 1.0838776 0.4489584c0.28746414 0.2874632 0.44895935 0.6773472 0.44895935 1.0838814l0 6.131172c0 0.84656334 -0.6862755 1.5328388 -1.5328369 1.5328388l-10.16267 0l0 0c-0.84656525 0 -1.5328407 -0.6862755 -1.5328407 -1.5328388z" fill-rule="evenodd"></path><path stroke="#434343" stroke-width="2.0" stroke-linejoin="round" stroke-linecap="butt" d="m35.154854 14.960661l0 0c0 -0.8465643 0.6862755 -1.5328398 1.5328407 -1.5328398l10.16267 0c0.4065323 0 0.79641724 0.16149521 1.0838776 0.4489584c0.28746414 0.2874632 0.44895935 0.6773472 0.44895935 1.0838814l0 6.131172c0 0.84656334 -0.6862755 1.5328388 -1.5328369 1.5328388l-10.16267 0l0 0c-0.84656525 0 -1.5328407 -0.6862755 -1.5328407 -1.5328388z" fill-rule="evenodd"></path><path fill="#434343" d="m15.71916 47.6588l0 0c0 -0.1826477 0.14806652 -0.33071518 0.33071518 -0.33071518l29.32282 0c0.087711334 0 0.17182922 0.034843445 0.23385239 0.09686661c0.06201935 0.06201935 0.09686279 0.14613724 0.09686279 0.23384857l0 1.3228226c0 0.1826477 -0.14806366 0.33071518 -0.33071518 0.33071518l-29.32282 0c-0.18264866 0 -0.33071518 -0.14806747 -0.33071518 -0.33071518z" fill-rule="evenodd"></path><path stroke="#434343" stroke-width="1.0" stroke-linejoin="round" stroke-linecap="butt" d="m15.71916 47.6588l0 0c0 -0.1826477 0.14806652 -0.33071518 0.33071518 -0.33071518l29.32282 0c0.087711334 0 0.17182922 0.034843445 0.23385239 0.09686661c0.06201935 0.06201935 0.09686279 0.14613724 0.09686279 0.23384857l0 1.3228226c0 0.1826477 -0.14806366 0.33071518 -0.33071518 0.33071518l-29.32282 0c-0.18264866 0 -0.33071518 -0.14806747 -0.33071518 -0.33071518z" fill-rule="evenodd"></path><path fill="#434343" d="m15.71916 44.325466l0 0c0 -0.22033691 0.17861938 -0.3989563 0.3989582 -0.3989563l1.5957851 0l0 0c0.105810165 0 0.20728683 0.04203415 0.2821045 0.11685181c0.074819565 0.07481766 0.116853714 0.17629623 0.116853714 0.2821045l0 4.5879135c0 0.22033691 -0.17862129 0.3989563 -0.3989582 0.3989563l-1.5957851 0c-0.22033882 0 -0.3989582 -0.17861938 -0.3989582 -0.3989563z" fill-rule="evenodd"></path><path stroke="#434343" stroke-width="1.0" stroke-linejoin="round" stroke-linecap="butt" d="m15.71916 44.325466l0 0c0 -0.22033691 0.17861938 -0.3989563 0.3989582 -0.3989563l1.5957851 0l0 0c0.105810165 0 0.20728683 0.04203415 0.2821045 0.11685181c0.074819565 0.07481766 0.116853714 0.17629623 0.116853714 0.2821045l0 4.5879135c0 0.22033691 -0.17862129 0.3989563 -0.3989582 0.3989563l-1.5957851 0c-0.22033882 0 -0.3989582 -0.17861938 -0.3989582 -0.3989563z" fill-rule="evenodd"></path><path fill="#434343" d="m43.30971 44.325466l0 0c0 -0.22033691 0.17861938 -0.3989563 0.3989563 -0.3989563l1.595787 0l0 0c0.10580826 0 0.20728683 0.04203415 0.2821045 0.11685181c0.07482147 0.07481766 0.11685181 0.17629623 0.11685181 0.2821045l0 4.5879135c0 0.22033691 -0.17861938 0.3989563 -0.3989563 0.3989563l-1.595787 0c-0.22033691 0 -0.3989563 -0.17861938 -0.3989563 -0.3989563z" fill-rule="evenodd"></path><path stroke="#434343" stroke-width="1.0" stroke-linejoin="round" stroke-linecap="butt" d="m43.30971 44.325466l0 0c0 -0.22033691 0.17861938 -0.3989563 0.3989563 -0.3989563l1.595787 0l0 0c0.10580826 0 0.20728683 0.04203415 0.2821045 0.11685181c0.07482147 0.07481766 0.11685181 0.17629623 0.11685181 0.2821045l0 4.5879135c0 0.22033691 -0.17861938 0.3989563 -0.3989563 0.3989563l-1.595787 0c-0.22033691 0 -0.3989563 -0.17861938 -0.3989563 -0.3989563z" fill-rule="evenodd"></path></g></svg>

