<?xml version="1.0" standalone="yes"?>

<svg version="1.1" viewBox="0.0 0.0 64.0 64.0" fill="none" stroke="none" stroke-linecap="square" stroke-miterlimit="10" xmlns="http://www.w3.org/2000/svg" xmlns:xlink="http://www.w3.org/1999/xlink"><clipPath id="p.0"><path d="m0 0l64.0 0l0 64.0l-64.0 0l0 -64.0z" clip-rule="nonzero"></path></clipPath><g clip-path="url(#p.0)"><path fill="#000000" fill-opacity="0.0" d="m0 0l64.0 0l0 64.0l-64.0 0z" fill-rule="nonzero"></path><path fill="#e06666" d="m1.1496063 11.470022l0 0c0 -5.699808 4.620608 -10.3204155 10.3204155 -10.3204155l41.280426 0l0 0c2.7371445 0 5.3621826 1.0873264 7.297638 3.02278c1.9354515 1.9354534 3.0227776 4.5604916 3.0227776 7.297636l0 41.56389c0 5.69981 -4.6206055 10.320419 -10.3204155 10.320419l-41.280426 0l0 0c-5.699808 0 -10.3204155 -4.6206093 -10.3204155 -10.320419z" fill-rule="nonzero"></path><path stroke="#e06666" stroke-width="1.0" stroke-linejoin="round" stroke-linecap="butt" d="m1.1496063 11.470022l0 0c0 -5.699808 4.620608 -10.3204155 10.3204155 -10.3204155l41.280426 0l0 0c2.7371445 0 5.3621826 1.0873264 7.297638 3.02278c1.9354515 1.9354534 3.0227776 4.5604916 3.0227776 7.297636l0 41.56389c0 5.69981 -4.6206055 10.320419 -10.3204155 10.320419l-41.280426 0l0 0c-5.699808 0 -10.3204155 -4.6206093 -10.3204155 -10.320419z" fill-rule="nonzero"></path><path fill="#f6b26b" d="m11.5958 5.4671917l2.4094486 -4.8188953l5.6692924 0l2.4094486 4.8188953l-2.4094486 4.8188953l-5.6692924 0z" fill-rule="nonzero"></path><path stroke="#434343" stroke-width="1.0" stroke-linejoin="round" stroke-linecap="butt" d="m11.5958 5.4671917l2.4094486 -4.8188953l5.6692924 0l2.4094486 4.8188953l-2.4094486 4.8188953l-5.6692924 0z" fill-rule="nonzero"></path><path fill="#f6b26b" d="m19.501312 10.753281l2.4094486 -4.8188953l5.6692924 0l2.4094486 4.8188953l-2.4094486 4.8188953l-5.6692924 0z" fill-rule="nonzero"></path><path stroke="#434343" stroke-width="1.0" stroke-linejoin="round" stroke-linecap="butt" d="m19.501312 10.753281l2.4094486 -4.8188953l5.6692924 0l2.4094486 4.8188953l-2.4094486 4.8188953l-5.6692924 0z" fill-rule="nonzero"></path><path fill="#f6b26b" d="m27.406824 15.677165l2.4094486 -4.8188953l5.6692924 0l2.4094467 4.8188953l-2.4094467 4.8188963l-5.6692924 0z" fill-rule="nonzero"></path><path stroke="#434343" stroke-width="1.0" stroke-linejoin="round" stroke-linecap="butt" d="m27.406824 15.677165l2.4094486 -4.8188953l5.6692924 0l2.4094467 4.8188953l-2.4094467 4.8188963l-5.6692924 0z" fill-rule="nonzero"></path><path fill="#f6b26b" d="m35.614174 10.753281l2.4094467 -4.8188953l5.6692924 0l2.4094505 4.8188953l-2.4094505 4.8188953l-5.6692924 0z" fill-rule="nonzero"></path><path stroke="#434343" stroke-width="1.0" stroke-linejoin="round" stroke-linecap="butt" d="m35.614174 10.753281l2.4094467 -4.8188953l5.6692924 0l2.4094505 4.8188953l-2.4094505 4.8188953l-5.6692924 0z" fill-rule="nonzero"></path><path fill="#f6b26b" d="m43.595802 5.4671917l2.4094467 -4.8188953l5.6692924 0l2.4094467 4.8188953l-2.4094467 4.8188953l-5.6692924 0z" fill-rule="nonzero"></path><path stroke="#434343" stroke-width="1.0" stroke-linejoin="round" stroke-linecap="butt" d="m43.595802 5.4671917l2.4094467 -4.8188953l5.6692924 0l2.4094467 4.8188953l-2.4094467 4.8188953l-5.6692924 0z" fill-rule="nonzero"></path><path fill="#ffffff" d="m21.244095 28.435696l1.2047234 -2.4094486l2.9133873 0l1.2047234 2.4094486l-1.2047234 2.4094467l-2.9133873 0z" fill-rule="nonzero"></path><path stroke="#434343" stroke-width="1.0" stroke-linejoin="round" stroke-linecap="butt" d="m21.244095 28.435696l1.2047234 -2.4094486l2.9133873 0l1.2047234 2.4094486l-1.2047234 2.4094467l-2.9133873 0z" fill-rule="nonzero"></path><path fill="#ffffff" d="m21.244095 33.254593l1.2047234 -2.4094467l2.9133873 0l1.2047234 2.4094467l-1.2047234 2.4094467l-2.9133873 0z" fill-rule="nonzero"></path><path stroke="#434343" stroke-width="1.0" stroke-linejoin="round" stroke-linecap="butt" d="m21.244095 33.254593l1.2047234 -2.4094467l2.9133873 0l1.2047234 2.4094467l-1.2047234 2.4094467l-2.9133873 0z" fill-rule="nonzero"></path><path fill="#ffffff" d="m21.244095 38.07349l1.2047234 -2.4094467l2.9133873 0l1.2047234 2.4094467l-1.2047234 2.4094467l-2.9133873 0z" fill-rule="nonzero"></path><path stroke="#434343" stroke-width="1.0" stroke-linejoin="round" stroke-linecap="butt" d="m21.244095 38.07349l1.2047234 -2.4094467l2.9133873 0l1.2047234 2.4094467l-1.2047234 2.4094467l-2.9133873 0z" fill-rule="nonzero"></path><path fill="#ffffff" d="m25.391077 40.391075l1.2047234 -2.4094467l2.9133854 0l1.2047253 2.4094467l-1.2047253 2.4094505l-2.9133854 0z" fill-rule="nonzero"></path><path stroke="#434343" stroke-width="1.0" stroke-linejoin="round" stroke-linecap="butt" d="m25.391077 40.391075l1.2047234 -2.4094467l2.9133854 0l1.2047253 2.4094467l-1.2047253 2.4094505l-2.9133854 0z" fill-rule="nonzero"></path><path fill="#ffffff" d="m25.391077 26.116798l1.2047234 -2.4094486l2.9133854 0l1.2047253 2.4094486l-1.2047253 2.4094467l-2.9133854 0z" fill-rule="nonzero"></path><path stroke="#434343" stroke-width="1.0" stroke-linejoin="round" stroke-linecap="butt" d="m25.391077 26.116798l1.2047234 -2.4094486l2.9133854 0l1.2047253 2.4094486l-1.2047253 2.4094467l-2.9133854 0z" fill-rule="nonzero"></path><path fill="#ffffff" d="m29.519686 23.616798l1.2047234 -2.4094486l2.9133854 0l1.2047234 2.4094486l-1.2047234 2.4094467l-2.9133854 0z" fill-rule="nonzero"></path><path stroke="#434343" stroke-width="1.0" stroke-linejoin="round" stroke-linecap="butt" d="m29.519686 23.616798l1.2047234 -2.4094486l2.9133854 0l1.2047234 2.4094486l-1.2047234 2.4094467l-2.9133854 0z" fill-rule="nonzero"></path><path fill="#ffffff" d="m37.650917 28.435696l1.2047272 -2.4094486l2.9133835 0l1.2047272 2.4094486l-1.2047272 2.4094467l-2.9133835 0z" fill-rule="nonzero"></path><path stroke="#434343" stroke-width="1.0" stroke-linejoin="round" stroke-linecap="butt" d="m37.650917 28.435696l1.2047272 -2.4094486l2.9133835 0l1.2047272 2.4094486l-1.2047272 2.4094467l-2.9133835 0z" fill-rule="nonzero"></path><path fill="#ffffff" d="m33.51706 26.11811l1.2047272 -2.4094486l2.9133835 0l1.2047234 2.4094486l-1.2047234 2.4094467l-2.9133835 0z" fill-rule="nonzero"></path><path stroke="#434343" stroke-width="1.0" stroke-linejoin="round" stroke-linecap="butt" d="m33.51706 26.11811l1.2047272 -2.4094486l2.9133835 0l1.2047234 2.4094486l-1.2047234 2.4094467l-2.9133835 0z" fill-rule="nonzero"></path><path fill="#ffffff" d="m37.650917 33.254593l1.2047272 -2.4094467l2.9133835 0l1.2047272 2.4094467l-1.2047272 2.4094467l-2.9133835 0z" fill-rule="nonzero"></path><path stroke="#434343" stroke-width="1.0" stroke-linejoin="round" stroke-linecap="butt" d="m37.650917 33.254593l1.2047272 -2.4094467l2.9133835 0l1.2047272 2.4094467l-1.2047272 2.4094467l-2.9133835 0z" fill-rule="nonzero"></path><path fill="#ffffff" d="m37.650917 38.07349l1.2047272 -2.4094467l2.9133835 0l1.2047272 2.4094467l-1.2047272 2.4094467l-2.9133835 0z" fill-rule="nonzero"></path><path stroke="#434343" stroke-width="1.0" stroke-linejoin="round" stroke-linecap="butt" d="m37.650917 38.07349l1.2047272 -2.4094467l2.9133835 0l1.2047272 2.4094467l-1.2047272 2.4094467l-2.9133835 0z" fill-rule="nonzero"></path><path fill="#ffffff" d="m33.51706 40.391075l1.2047272 -2.4094467l2.9133835 0l1.2047234 2.4094467l-1.2047234 2.4094505l-2.9133835 0z" fill-rule="nonzero"></path><path stroke="#434343" stroke-width="1.0" stroke-linejoin="round" stroke-linecap="butt" d="m33.51706 40.391075l1.2047272 -2.4094467l2.9133835 0l1.2047234 2.4094467l-1.2047234 2.4094505l-2.9133835 0z" fill-rule="nonzero"></path><path fill="#ffffff" d="m29.519686 42.892387l1.2047234 -2.4094467l2.9133854 0l1.2047234 2.4094467l-1.2047234 2.4094505l-2.9133854 0z" fill-rule="nonzero"></path><path stroke="#434343" stroke-width="1.0" stroke-linejoin="round" stroke-linecap="butt" d="m29.519686 42.892387l1.2047234 -2.4094467l2.9133854 0l1.2047234 2.4094467l-1.2047234 2.4094505l-2.9133854 0z" fill-rule="nonzero"></path><path fill="#3c78d8" d="m24.700787 33.254593l0 0c0 -4.200842 3.3490524 -7.6062984 7.480316 -7.6062984l0 0c1.983902 0 3.886551 0.80137444 5.289383 2.2278328c1.4028282 1.4264584 2.1909332 3.3611507 2.1909332 5.3784657l0 0c0 4.200844 -3.3490524 7.6063004 -7.480316 7.6063004l0 0c-4.1312637 0 -7.480316 -3.4054565 -7.480316 -7.6063004z" fill-rule="nonzero"></path><path stroke="#a4c2f4" stroke-width="2.0" stroke-linejoin="round" stroke-linecap="butt" d="m24.700787 33.254593l0 0c0 -4.200842 3.3490524 -7.6062984 7.480316 -7.6062984l0 0c1.983902 0 3.886551 0.80137444 5.289383 2.2278328c1.4028282 1.4264584 2.1909332 3.3611507 2.1909332 5.3784657l0 0c0 4.200844 -3.3490524 7.6063004 -7.480316 7.6063004l0 0c-4.1312637 0 -7.480316 -3.4054565 -7.480316 -7.6063004z" fill-rule="nonzero"></path></g></svg>

