<?xml version="1.0" standalone="yes"?>

<svg version="1.1" viewBox="0.0 0.0 64.0 64.0" fill="none" stroke="none" stroke-linecap="square" stroke-miterlimit="10" xmlns="http://www.w3.org/2000/svg" xmlns:xlink="http://www.w3.org/1999/xlink"><clipPath id="p.0"><path d="m0 0l64.0 0l0 64.0l-64.0 0l0 -64.0z" clip-rule="nonzero"></path></clipPath><g clip-path="url(#p.0)"><path fill="#000000" fill-opacity="0.0" d="m0 0l64.0 0l0 64.0l-64.0 0z" fill-rule="nonzero"></path><path fill="#000000" fill-opacity="0.0" d="m1.2939633 25.023623l15.811023 0l0 21.070868l-15.811023 0z" fill-rule="nonzero"></path><path fill="#b6d7a8" d="m2.5879266 9.996063l0 0c0 4.0508127 13.13533 7.334646 29.338583 7.334646c16.20325 0 29.338581 -3.2838335 29.338581 -7.334646l0 45.70866c0 4.0508156 -13.13533 7.334648 -29.338581 7.334648c-16.203253 0 -29.338583 -3.2838326 -29.338583 -7.334648z" fill-rule="nonzero"></path><path fill="#d3e7ca" d="m2.5879266 9.996063l0 0c0 -4.050813 13.13533 -7.334646 29.338583 -7.334646c16.20325 0 29.338581 3.2838328 29.338581 7.334646l0 0c0 4.0508127 -13.13533 7.334646 -29.338581 7.334646c-16.203253 0 -29.338583 -3.2838335 -29.338583 -7.334646z" fill-rule="nonzero"></path><path fill="#000000" fill-opacity="0.0" d="m61.26509 9.996063l0 0c0 4.0508127 -13.13533 7.334646 -29.338581 7.334646c-16.203253 0 -29.338583 -3.2838335 -29.338583 -7.334646l0 0c0 -4.050813 13.13533 -7.334646 29.338583 -7.334646c16.20325 0 29.338581 3.2838328 29.338581 7.334646l0 45.70866c0 4.0508156 -13.13533 7.334648 -29.338581 7.334648c-16.203253 0 -29.338583 -3.2838326 -29.338583 -7.334648l0 -45.70866" fill-rule="nonzero"></path><path stroke="#434343" stroke-width="3.0" stroke-linejoin="round" stroke-linecap="butt" d="m61.26509 9.996063l0 0c0 4.0508127 -13.13533 7.334646 -29.338581 7.334646c-16.203253 0 -29.338583 -3.2838335 -29.338583 -7.334646l0 0c0 -4.050813 13.13533 -7.334646 29.338583 -7.334646c16.20325 0 29.338581 3.2838328 29.338581 7.334646l0 45.70866c0 4.0508156 -13.13533 7.334648 -29.338581 7.334648c-16.203253 0 -29.338583 -3.2838326 -29.338583 -7.334648l0 -45.70866" fill-rule="nonzero"></path><path fill="#434343" d="m18.342525 45.057716l0 -17.1875l12.734375 0l0 2.90625l-9.265625 0l0 3.8125l8.625 0l0 2.890625l-8.625 0l0 4.6875l9.59375 0l0 2.890625l-13.0625 0zm16.023438 0l0 -17.1875l11.78125 0l0 2.90625l-8.3125 0l0 4.078125l7.171875 0l0 2.90625l-7.171875 0l0 7.296875l-3.46875 0z" fill-rule="nonzero"></path></g></svg>

