<?xml version="1.0" standalone="yes"?>

<svg version="1.1" viewBox="0.0 0.0 64.0 64.0" fill="none" stroke="none" stroke-linecap="square" stroke-miterlimit="10" xmlns="http://www.w3.org/2000/svg" xmlns:xlink="http://www.w3.org/1999/xlink"><clipPath id="p.0"><path d="m0 0l64.0 0l0 64.0l-64.0 0l0 -64.0z" clip-rule="nonzero"></path></clipPath><g clip-path="url(#p.0)"><path fill="#000000" fill-opacity="0.0" d="m0 0l64.0 0l0 64.0l-64.0 0z" fill-rule="nonzero"></path><path fill="#e06666" d="m22.36483 31.375456l0 0c0 -3.5080204 2.843811 -6.3518333 6.3518333 -6.3518333l28.178223 0c1.6846123 0 3.3002243 0.6692085 4.4914246 1.8604088c1.1912003 1.1912003 1.8604088 2.8068123 1.8604088 4.4914246l0 25.406569c0 3.5080223 -2.843811 6.3518333 -6.3518333 6.3518333l-28.178223 0c-3.5080223 0 -6.3518333 -2.843811 -6.3518333 -6.3518333z" fill-rule="nonzero"></path><path stroke="#e06666" stroke-width="1.0" stroke-linejoin="round" stroke-linecap="butt" d="m22.36483 31.375456l0 0c0 -3.5080204 2.843811 -6.3518333 6.3518333 -6.3518333l28.178223 0c1.6846123 0 3.3002243 0.6692085 4.4914246 1.8604088c1.1912003 1.1912003 1.8604088 2.8068123 1.8604088 4.4914246l0 25.406569c0 3.5080223 -2.843811 6.3518333 -6.3518333 6.3518333l-28.178223 0c-3.5080223 0 -6.3518333 -2.843811 -6.3518333 -6.3518333z" fill-rule="nonzero"></path><path fill="#434343" d="m39.354465 42.488113l0 5.09375l1.3125 0q0.46875 0 0.671875 0.1875q0.203125 0.171875 0.203125 0.46875q0 0.28125 -0.203125 0.46875q-0.203125 0.171875 -0.671875 0.171875l-3.921875 0q-0.46875 0 -0.671875 -0.171875q-0.203125 -0.1875 -0.203125 -0.484375q0 -0.28125 0.203125 -0.453125q0.203125 -0.1875 0.671875 -0.1875l1.3125 0l0 -5.09375l-1.3125 0q-0.46875 0 -0.671875 -0.171875q-0.203125 -0.1875 -0.203125 -0.484375q0 -0.296875 0.203125 -0.46875q0.203125 -0.1875 0.671875 -0.1875l3.921875 0.015625q0.46875 0 0.671875 0.171875q0.203125 0.171875 0.203125 0.46875q0 0.296875 -0.203125 0.484375q-0.203125 0.171875 -0.671875 0.171875l-1.3125 0zm8.326309 3.390625l1.96875 1.703125q0.359375 0.015625 0.53125 0.203125q0.1875 0.171875 0.1875 0.453125q0 0.28125 -0.203125 0.46875q-0.203125 0.171875 -0.671875 0.171875l-1.46875 0q-0.484375 0 -0.6875 -0.171875q-0.1875 -0.1875 -0.1875 -0.484375q0 -0.234375 0.140625 -0.40625q0.140625 -0.171875 0.390625 -0.234375l-0.96875 -0.84375l-1.0 0.84375q0.3125 0.078125 0.4375 0.234375q0.125 0.15625 0.125 0.40625q0 0.296875 -0.203125 0.484375q-0.1875 0.171875 -0.65625 0.171875l-1.46875 0q-0.46875 0 -0.671875 -0.171875q-0.203125 -0.1875 -0.203125 -0.484375q0 -0.265625 0.171875 -0.4375q0.1875 -0.1875 0.546875 -0.203125l1.921875 -1.703125l-1.703125 -1.46875q-0.328125 -0.015625 -0.515625 -0.1875q-0.171875 -0.1875 -0.171875 -0.453125q0 -0.296875 0.203125 -0.46875q0.203125 -0.1875 0.671875 -0.1875l1.21875 0q0.46875 0 0.671875 0.1875q0.203125 0.171875 0.203125 0.453125q0 0.375 -0.359375 0.609375l0.78125 0.65625l0.78125 -0.671875q-0.359375 -0.25 -0.359375 -0.5625q0 -0.3125 0.203125 -0.484375q0.203125 -0.1875 0.671875 -0.1875l1.203125 0q0.46875 0 0.671875 0.1875q0.203125 0.171875 0.203125 0.46875q0 0.265625 -0.171875 0.453125q-0.171875 0.171875 -0.515625 0.1875l-1.71875 1.46875z" fill-rule="nonzero"></path><path fill="#000000" fill-opacity="0.0" d="m1.2939633 25.023623l15.811023 0l0 21.070868l-15.811023 0z" fill-rule="nonzero"></path><path fill="#000000" fill-opacity="0.0" d="m42.805775 25.023623l0 -10.078741" fill-rule="nonzero"></path><path stroke="#434343" stroke-width="2.0" stroke-linejoin="round" stroke-linecap="butt" d="m42.805775 25.023623l0 -10.078741" fill-rule="nonzero"></path><path fill="#ffd966" d="m35.829395 7.968504l0 0c0 -3.8442497 3.1234322 -6.96063 6.9763794 -6.96063l0 0c1.8502502 0 3.6247177 0.73335004 4.9330444 2.0387213c1.3083229 1.3053715 2.043335 3.075835 2.043335 4.9219084l0 0c0 3.8442497 -3.1234322 6.9606295 -6.9763794 6.9606295l0 0c-3.8529472 0 -6.9763794 -3.1163797 -6.9763794 -6.9606295z" fill-rule="nonzero"></path><path stroke="#434343" stroke-width="2.0" stroke-linejoin="round" stroke-linecap="butt" d="m35.829395 7.968504l0 0c0 -3.8442497 3.1234322 -6.96063 6.9763794 -6.96063l0 0c1.8502502 0 3.6247177 0.73335004 4.9330444 2.0387213c1.3083229 1.3053715 2.043335 3.075835 2.043335 4.9219084l0 0c0 3.8442497 -3.1234322 6.9606295 -6.9763794 6.9606295l0 0c-3.8529472 0 -6.9763794 -3.1163797 -6.9763794 -6.9606295z" fill-rule="nonzero"></path><path fill="#ffd966" d="m0.84514433 44.07874l0 0c0 -3.8442497 3.123431 -6.9606285 6.976378 -6.9606285l0 0c1.8502507 0 3.6247191 0.73334885 4.933044 2.0387192c1.3083248 1.3053741 2.043334 3.0758362 2.043334 4.9219093l0 0c0 3.8442497 -3.1234312 6.9606323 -6.976378 6.9606323l0 0c-3.852947 0 -6.976378 -3.1163826 -6.976378 -6.9606323z" fill-rule="nonzero"></path><path stroke="#434343" stroke-width="2.0" stroke-linejoin="round" stroke-linecap="butt" d="m0.84514433 44.07874l0 0c0 -3.8442497 3.123431 -6.9606285 6.976378 -6.9606285l0 0c1.8502507 0 3.6247191 0.73334885 4.933044 2.0387192c1.3083248 1.3053741 2.043334 3.0758362 2.043334 4.9219093l0 0c0 3.8442497 -3.1234312 6.9606323 -6.976378 6.9606323l0 0c-3.852947 0 -6.976378 -3.1163826 -6.976378 -6.9606323z" fill-rule="nonzero"></path><path fill="#000000" fill-opacity="0.0" d="m14.7979 44.07874l7.5590544 0" fill-rule="nonzero"></path><path stroke="#434343" stroke-width="2.0" stroke-linejoin="round" stroke-linecap="butt" d="m14.7979 44.07874l7.5590544 0" fill-rule="nonzero"></path></g></svg>

