<?xml version="1.0" standalone="yes"?>

<svg version="1.1" viewBox="0.0 0.0 64.0 64.0" fill="none" stroke="none" stroke-linecap="square" stroke-miterlimit="10" xmlns="http://www.w3.org/2000/svg" xmlns:xlink="http://www.w3.org/1999/xlink"><clipPath id="p.0"><path d="m0 0l64.0 0l0 64.0l-64.0 0l0 -64.0z" clip-rule="nonzero"></path></clipPath><g clip-path="url(#p.0)"><path fill="#000000" fill-opacity="0.0" d="m0 0l64.0 0l0 64.0l-64.0 0z" fill-rule="evenodd"></path><path fill="#000000" fill-opacity="0.0" d="m21.73491 55.131233c8.283464 0 16.566929 -13.055119 16.566929 -26.110235" fill-rule="evenodd"></path><path stroke="#93c47d" stroke-width="4.0" stroke-linejoin="round" stroke-linecap="butt" d="m21.73491 55.131233c8.283464 0 16.566929 -13.055119 16.566929 -26.110235" fill-rule="evenodd"></path><path fill="#000000" fill-opacity="0.0" d="m21.73491 55.131233c15.732281 0 31.464565 -6.629921 31.464565 -13.259842" fill-rule="evenodd"></path><path stroke="#93c47d" stroke-width="4.0" stroke-linejoin="round" stroke-linecap="butt" d="m21.73491 55.131233c15.732281 0 31.464565 -6.629921 31.464565 -13.259842" fill-rule="evenodd"></path><path fill="#434343" d="m28.920614 28.013306l11.258116 -17.415855l7.4785156 19.406628z" fill-rule="evenodd"></path><path stroke="#434343" stroke-width="1.0" stroke-linejoin="round" stroke-linecap="butt" d="m28.920614 28.013306l11.258116 -17.415855l7.4785156 19.406628z" fill-rule="evenodd"></path><path fill="#ffff00" d="m34.29207 22.79529l0 0c0.27915192 -2.7473106 2.5728645 -4.7547092 5.12315 -4.483654c2.5502853 0.27105713 4.3913994 2.717926 4.1122475 5.4652348c-0.27915192 2.7473106 -2.5728645 4.7547092 -5.12315 4.483654c-2.5502853 -0.27105713 -4.3913994 -2.717926 -4.1122475 -5.4652348z" fill-rule="evenodd"></path><path fill="#cbcb00" d="m37.10055 21.589994c0.029075623 -0.2861786 0.26800537 -0.49528313 0.5336609 -0.46704674c0.26565552 0.028234482 0.4574356 0.2831173 0.42836 0.569294c-0.029079437 0.2861786 -0.2680092 0.49528313 -0.5336647 0.46704865c-0.2656517 -0.02823639 -0.4574356 -0.2831173 -0.42835617 -0.5692959m2.9587479 0.3144703c0.029075623 -0.2861786 0.26800537 -0.49528313 0.5336609 -0.46704865c0.26565552 0.02823639 0.4574356 0.2831173 0.42836 0.5692959c-0.029079437 0.2861786 -0.2680092 0.49528313 -0.5336609 0.46704674c-0.26565552 -0.028234482 -0.45743942 -0.2831173 -0.42836 -0.569294" fill-rule="evenodd"></path><path fill="#000000" fill-opacity="0.0" d="m36.186516 25.189457q2.3146744 2.1176987 4.999798 0.5314026" fill-rule="evenodd"></path><path fill="#000000" fill-opacity="0.0" d="m34.29207 22.79529l0 0c0.27915192 -2.7473106 2.5728645 -4.7547092 5.12315 -4.483654c2.5502853 0.27105713 4.3913994 2.717926 4.1122475 5.4652348c-0.27915192 2.7473106 -2.5728645 4.7547092 -5.12315 4.483654c-2.5502853 -0.27105713 -4.3913994 -2.717926 -4.1122475 -5.4652348z" fill-rule="evenodd"></path><path stroke="#434343" stroke-width="1.0" stroke-linejoin="round" stroke-linecap="butt" d="m37.10055 21.589994c0.029075623 -0.2861786 0.26800537 -0.49528313 0.5336609 -0.46704674c0.26565552 0.028234482 0.4574356 0.2831173 0.42836 0.569294c-0.029079437 0.2861786 -0.2680092 0.49528313 -0.5336647 0.46704865c-0.2656517 -0.02823639 -0.4574356 -0.2831173 -0.42835617 -0.5692959m2.9587479 0.3144703c0.029075623 -0.2861786 0.26800537 -0.49528313 0.5336609 -0.46704865c0.26565552 0.02823639 0.4574356 0.2831173 0.42836 0.5692959c-0.029079437 0.2861786 -0.2680092 0.49528313 -0.5336609 0.46704674c-0.26565552 -0.028234482 -0.45743942 -0.2831173 -0.42836 -0.569294" fill-rule="evenodd"></path><path stroke="#434343" stroke-width="1.0" stroke-linejoin="round" stroke-linecap="butt" d="m36.186516 25.189457q2.3146744 2.1176987 4.999798 0.5314026" fill-rule="evenodd"></path><path stroke="#434343" stroke-width="1.0" stroke-linejoin="round" stroke-linecap="butt" d="m34.29207 22.79529l0 0c0.27915192 -2.7473106 2.5728645 -4.7547092 5.12315 -4.483654c2.5502853 0.27105713 4.3913994 2.717926 4.1122475 5.4652348c-0.27915192 2.7473106 -2.5728645 4.7547092 -5.12315 4.483654c-2.5502853 -0.27105713 -4.3913994 -2.717926 -4.1122475 -5.4652348z" fill-rule="evenodd"></path><path fill="#434343" d="m44.015415 39.74346l13.3077545 -15.904932l5.0437775 20.177008z" fill-rule="evenodd"></path><path stroke="#434343" stroke-width="1.0" stroke-linejoin="round" stroke-linecap="butt" d="m44.015415 39.74346l13.3077545 -15.904932l5.0437775 20.177008z" fill-rule="evenodd"></path><path fill="#ffff00" d="m49.985916 35.223053l0 0c0.61375046 -2.6924057 3.1362076 -4.4035797 5.6340675 -3.82201c2.4978561 0.5815697 4.0252266 3.235649 3.4114761 5.9280586c-0.61375046 2.6924057 -3.1362076 4.403576 -5.6340675 3.8220062c-2.4978561 -0.58156586 -4.0252266 -3.235649 -3.4114761 -5.928055z" fill-rule="evenodd"></path><path fill="#cbcb00" d="m52.920963 34.371033c0.06393051 -0.28046036 0.32668686 -0.4587059 0.58687973 -0.3981247c0.2601967 0.060577393 0.41929626 0.33704376 0.35536194 0.6175041c-0.06393051 0.28046036 -0.32668686 0.4587059 -0.58687973 0.3981247c-0.26019287 -0.060577393 -0.41929626 -0.33704376 -0.35536194 -0.6175041m2.8979225 0.67471313c0.063934326 -0.28045654 0.32669067 -0.4587059 0.58688354 -0.3981247c0.26019287 0.060581207 0.41929245 0.33704758 0.35536194 0.61750793c-0.063934326 0.28045654 -0.32669067 0.4587059 -0.58688354 0.3981247c-0.26019287 -0.060581207 -0.41929245 -0.33704758 -0.35536194 -0.61750793" fill-rule="evenodd"></path><path fill="#000000" fill-opacity="0.0" d="m51.572674 37.831364q2.0377007 2.3854294 4.8970184 1.1401596" fill-rule="evenodd"></path><path fill="#000000" fill-opacity="0.0" d="m49.985916 35.223053l0 0c0.61375046 -2.6924057 3.1362076 -4.4035797 5.6340675 -3.82201c2.4978561 0.5815697 4.0252266 3.235649 3.4114761 5.9280586c-0.61375046 2.6924057 -3.1362076 4.403576 -5.6340675 3.8220062c-2.4978561 -0.58156586 -4.0252266 -3.235649 -3.4114761 -5.928055z" fill-rule="evenodd"></path><path stroke="#434343" stroke-width="1.0" stroke-linejoin="round" stroke-linecap="butt" d="m52.920963 34.371033c0.06393051 -0.28046036 0.32668686 -0.4587059 0.58687973 -0.3981247c0.2601967 0.060577393 0.41929626 0.33704376 0.35536194 0.6175041c-0.06393051 0.28046036 -0.32668686 0.4587059 -0.58687973 0.3981247c-0.26019287 -0.060577393 -0.41929626 -0.33704376 -0.35536194 -0.6175041m2.8979225 0.67471313c0.063934326 -0.28045654 0.32669067 -0.4587059 0.58688354 -0.3981247c0.26019287 0.060581207 0.41929245 0.33704758 0.35536194 0.61750793c-0.063934326 0.28045654 -0.32669067 0.4587059 -0.58688354 0.3981247c-0.26019287 -0.060581207 -0.41929245 -0.33704758 -0.35536194 -0.61750793" fill-rule="evenodd"></path><path stroke="#434343" stroke-width="1.0" stroke-linejoin="round" stroke-linecap="butt" d="m51.572674 37.831364q2.0377007 2.3854294 4.8970184 1.1401596" fill-rule="evenodd"></path><path stroke="#434343" stroke-width="1.0" stroke-linejoin="round" stroke-linecap="butt" d="m49.985916 35.223053l0 0c0.61375046 -2.6924057 3.1362076 -4.4035797 5.6340675 -3.82201c2.4978561 0.5815697 4.0252266 3.235649 3.4114761 5.9280586c-0.61375046 2.6924057 -3.1362076 4.403576 -5.6340675 3.8220062c-2.4978561 -0.58156586 -4.0252266 -3.235649 -3.4114761 -5.928055z" fill-rule="evenodd"></path><path fill="#000000" fill-opacity="0.0" d="m11.309711 47.572178l0 -27.622047" fill-rule="evenodd"></path><path stroke="#e06666" stroke-width="4.0" stroke-linejoin="round" stroke-linecap="butt" d="m11.309711 47.572178l0 -27.622047" fill-rule="evenodd"></path><path fill="#434343" d="m1.900037 19.939396l9.398306 -18.484818l9.442847 18.529362z" fill-rule="evenodd"></path><path stroke="#434343" stroke-width="1.0" stroke-linejoin="round" stroke-linecap="butt" d="m1.900037 19.939396l9.398306 -18.484818l9.442847 18.529362z" fill-rule="evenodd"></path><path fill="#ffff00" d="m6.7034826 14.194674l0 0c-0.0061502457 -2.7613192 2.0678196 -4.9948244 4.6323395 -4.988674c2.5645208 0.006149292 4.6484613 2.2496262 4.6546116 5.0109444c0.0061502457 2.7613182 -2.0678196 4.9948235 -4.6323404 4.988674c-2.5645208 -0.006149292 -4.648461 -2.2496262 -4.6546106 -5.0109444z" fill-rule="evenodd"></path><path fill="#cbcb00" d="m9.3723 12.705768c-6.4086914E-4 -0.28763676 0.21539783 -0.5202942 0.48253536 -0.5196533c0.26713753 6.4086914E-4 0.48421478 0.2343359 0.48485565 0.5219736c6.4086914E-4 0.28763676 -0.21539783 0.5202942 -0.48253536 0.5196533c-0.26713753 -6.4086914E-4 -0.48421478 -0.2343359 -0.48485565 -0.5219736m2.9752645 0.0071353912c-6.4086914E-4 -0.2876377 0.21539783 -0.5202942 0.48253536 -0.5196543c0.26713753 6.4086914E-4 0.48421478 0.23433685 0.4848547 0.5219736c6.4086914E-4 0.2876377 -0.21539783 0.5202942 -0.48253536 0.5196543c-0.26713753 -6.4086914E-4 -0.48421478 -0.23433685 -0.4848547 -0.5219736" fill-rule="evenodd"></path><path fill="#000000" fill-opacity="0.0" d="m8.83502 16.380224q2.5209389 1.8671646 5.027711 0.012056351" fill-rule="evenodd"></path><path fill="#000000" fill-opacity="0.0" d="m6.7034826 14.194674l0 0c-0.0061502457 -2.7613192 2.0678196 -4.9948244 4.6323395 -4.988674c2.5645208 0.006149292 4.6484613 2.2496262 4.6546116 5.0109444c0.0061502457 2.7613182 -2.0678196 4.9948235 -4.6323404 4.988674c-2.5645208 -0.006149292 -4.648461 -2.2496262 -4.6546106 -5.0109444z" fill-rule="evenodd"></path><path stroke="#434343" stroke-width="1.0" stroke-linejoin="round" stroke-linecap="butt" d="m9.3723 12.705768c-6.4086914E-4 -0.28763676 0.21539783 -0.5202942 0.48253536 -0.5196533c0.26713753 6.4086914E-4 0.48421478 0.2343359 0.48485565 0.5219736c6.4086914E-4 0.28763676 -0.21539783 0.5202942 -0.48253536 0.5196533c-0.26713753 -6.4086914E-4 -0.48421478 -0.2343359 -0.48485565 -0.5219736m2.9752645 0.0071353912c-6.4086914E-4 -0.2876377 0.21539783 -0.5202942 0.48253536 -0.5196543c0.26713753 6.4086914E-4 0.48421478 0.23433685 0.4848547 0.5219736c6.4086914E-4 0.2876377 -0.21539783 0.5202942 -0.48253536 0.5196543c-0.26713753 -6.4086914E-4 -0.48421478 -0.23433685 -0.4848547 -0.5219736" fill-rule="evenodd"></path><path stroke="#434343" stroke-width="1.0" stroke-linejoin="round" stroke-linecap="butt" d="m8.83502 16.380224q2.5209389 1.8671646 5.027711 0.012056351" fill-rule="evenodd"></path><path stroke="#434343" stroke-width="1.0" stroke-linejoin="round" stroke-linecap="butt" d="m6.7034826 14.194674l0 0c-0.0061502457 -2.7613192 2.0678196 -4.9948244 4.6323395 -4.988674c2.5645208 0.006149292 4.6484613 2.2496262 4.6546116 5.0109444c0.0061502457 2.7613182 -2.0678196 4.9948235 -4.6323404 4.988674c-2.5645208 -0.006149292 -4.648461 -2.2496262 -4.6546106 -5.0109444z" fill-rule="evenodd"></path><path fill="#f6b26b" d="m0.88451445 50.091915l0 0c0 -1.391613 1.1281239 -2.5197372 2.5197353 -2.5197372l15.810922 0c0.66827583 0 1.3091812 0.2654724 1.781723 0.7380142c0.4725418 0.4725418 0.7380142 1.1134453 0.7380142 1.781723l0 10.07864c0 1.3916092 -1.1281242 2.5197334 -2.5197372 2.5197334l-15.810922 0c-1.3916116 0 -2.5197353 -1.1281242 -2.5197353 -2.5197334z" fill-rule="evenodd"></path><path stroke="#434343" stroke-width="1.0" stroke-linejoin="round" stroke-linecap="butt" d="m0.88451445 50.091915l0 0c0 -1.391613 1.1281239 -2.5197372 2.5197353 -2.5197372l15.810922 0c0.66827583 0 1.3091812 0.2654724 1.781723 0.7380142c0.4725418 0.4725418 0.7380142 1.1134453 0.7380142 1.781723l0 10.07864c0 1.3916092 -1.1281242 2.5197334 -2.5197372 2.5197334l-15.810922 0c-1.3916116 0 -2.5197353 -1.1281242 -2.5197353 -2.5197334z" fill-rule="evenodd"></path></g></svg>

