<?xml version="1.0" standalone="yes"?>

<svg version="1.1" viewBox="0.0 0.0 64.0 64.0" fill="none" stroke="none" stroke-linecap="square" stroke-miterlimit="10" xmlns="http://www.w3.org/2000/svg" xmlns:xlink="http://www.w3.org/1999/xlink"><clipPath id="p.0"><path d="m0 0l64.0 0l0 64.0l-64.0 0l0 -64.0z" clip-rule="nonzero"></path></clipPath><g clip-path="url(#p.0)"><path fill="#000000" fill-opacity="0.0" d="m0 0l64.0 0l0 64.0l-64.0 0z" fill-rule="evenodd"></path><path fill="#000000" fill-opacity="0.0" d="m4.703412 32.404198l12.385827 -24.77164l30.220472 0l12.385826 24.77164l-12.385826 24.771645l-30.220472 0z" fill-rule="evenodd"></path><path stroke="#434343" stroke-width="3.0" stroke-linejoin="round" stroke-linecap="butt" d="m4.703412 32.404198l12.385827 -24.77164l30.220472 0l12.385826 24.77164l-12.385826 24.771645l-30.220472 0z" fill-rule="evenodd"></path><path fill="#000000" fill-opacity="0.0" d="m47.144356 2.6587927l0 58.96063" fill-rule="evenodd"></path><path stroke="#434343" stroke-width="3.0" stroke-linejoin="round" stroke-linecap="butt" d="m47.144356 2.6587927l0 58.96063" fill-rule="evenodd"></path><path fill="#000000" fill-opacity="0.0" d="m16.763779 2.6587927l30.393703 58.96063" fill-rule="evenodd"></path><path stroke="#434343" stroke-width="3.0" stroke-linejoin="round" stroke-linecap="butt" d="m16.763779 2.6587927l30.393703 58.96063" fill-rule="evenodd"></path><path fill="#000000" fill-opacity="0.0" d="m16.763779 2.6587927l0 58.96063" fill-rule="evenodd"></path><path stroke="#434343" stroke-width="3.0" stroke-linejoin="round" stroke-linecap="butt" d="m16.763779 2.6587927l0 58.96063" fill-rule="evenodd"></path><path fill="#6d9eeb" d="m41.490814 52.826805l0 0c0 -0.97122574 0.78733444 -1.758564 1.758564 -1.758564l7.789955 0c0.46640396 0 0.9137001 0.18527603 1.243496 0.51507187c0.32979584 0.32979584 0.51507187 0.777092 0.51507187 1.2434921l0 7.034054c0 0.97122574 -0.78733826 1.758564 -1.7585678 1.758564l-7.789955 0c-0.97122955 0 -1.758564 -0.78733826 -1.758564 -1.758564z" fill-rule="evenodd"></path><path stroke="#6d9eeb" stroke-width="2.0" stroke-linejoin="round" stroke-linecap="butt" d="m41.490814 52.826805l0 0c0 -0.97122574 0.78733444 -1.758564 1.758564 -1.758564l7.789955 0c0.46640396 0 0.9137001 0.18527603 1.243496 0.51507187c0.32979584 0.32979584 0.51507187 0.777092 0.51507187 1.2434921l0 7.034054c0 0.97122574 -0.78733826 1.758564 -1.7585678 1.758564l-7.789955 0c-0.97122955 0 -1.758564 -0.78733826 -1.758564 -1.758564z" fill-rule="evenodd"></path><path fill="#000000" fill-opacity="0.0" d="m1.2939633 25.023623l15.811023 0l0 21.070868l-15.811023 0z" fill-rule="evenodd"></path><path fill="#6d9eeb" d="m11.110236 4.417358l0 0c0 -0.97122884 0.78733635 -1.7585652 1.758565 -1.7585652l7.789957 0c0.46640015 0 0.9136982 0.18527675 1.2434921 0.51507187c0.32979584 0.32979488 0.51507187 0.77709293 0.51507187 1.2434933l0 7.0340505c0 0.9712286 -0.78733635 1.758565 -1.758564 1.758565l-7.789957 0c-0.9712286 0 -1.758565 -0.78733635 -1.758565 -1.758565z" fill-rule="evenodd"></path><path stroke="#6d9eeb" stroke-width="2.0" stroke-linejoin="round" stroke-linecap="butt" d="m11.110236 4.417358l0 0c0 -0.97122884 0.78733635 -1.7585652 1.758565 -1.7585652l7.789957 0c0.46640015 0 0.9136982 0.18527675 1.2434921 0.51507187c0.32979584 0.32979488 0.51507187 0.77709293 0.51507187 1.2434933l0 7.0340505c0 0.9712286 -0.78733635 1.758565 -1.758564 1.758565l-7.789957 0c-0.9712286 0 -1.758565 -0.78733635 -1.758565 -1.758565z" fill-rule="evenodd"></path><path fill="#e06666" d="m41.490814 4.417358l0 0c0 -0.97122884 0.78733444 -1.7585652 1.758564 -1.7585652l7.789955 0c0.46640396 0 0.9137001 0.18527675 1.243496 0.51507187c0.32979584 0.32979488 0.51507187 0.77709293 0.51507187 1.2434933l0 7.0340505c0 0.9712286 -0.78733826 1.758565 -1.7585678 1.758565l-7.789955 0c-0.97122955 0 -1.758564 -0.78733635 -1.758564 -1.758565z" fill-rule="evenodd"></path><path stroke="#e06666" stroke-width="2.0" stroke-linejoin="round" stroke-linecap="butt" d="m41.490814 4.417358l0 0c0 -0.97122884 0.78733444 -1.7585652 1.758564 -1.7585652l7.789955 0c0.46640396 0 0.9137001 0.18527675 1.243496 0.51507187c0.32979584 0.32979488 0.51507187 0.77709293 0.51507187 1.2434933l0 7.0340505c0 0.9712286 -0.78733826 1.758565 -1.7585678 1.758565l-7.789955 0c-0.97122955 0 -1.758564 -0.78733635 -1.758564 -1.758565z" fill-rule="evenodd"></path><path fill="#6d9eeb" d="m51.32021 28.887175l0 0c0 -0.97122955 0.78733826 -1.7585659 1.758564 -1.7585659l7.789959 0c0.46640015 0 0.9136963 0.18527794 1.2434921 0.51507187c0.32979584 0.32979584 0.51507187 0.7770939 0.51507187 1.243494l0 7.034052c0 0.97122574 -0.78733826 1.758564 -1.758564 1.758564l-7.789959 0c-0.97122574 0 -1.758564 -0.78733826 -1.758564 -1.758564z" fill-rule="evenodd"></path><path stroke="#6d9eeb" stroke-width="2.0" stroke-linejoin="round" stroke-linecap="butt" d="m51.32021 28.887175l0 0c0 -0.97122955 0.78733826 -1.7585659 1.758564 -1.7585659l7.789959 0c0.46640015 0 0.9136963 0.18527794 1.2434921 0.51507187c0.32979584 0.32979584 0.51507187 0.7770939 0.51507187 1.243494l0 7.034052c0 0.97122574 -0.78733826 1.758564 -1.758564 1.758564l-7.789959 0c-0.97122574 0 -1.758564 -0.78733826 -1.758564 -1.758564z" fill-rule="evenodd"></path><path fill="#e06666" d="m11.110236 52.826805l0 0c0 -0.97122574 0.78733635 -1.758564 1.758565 -1.758564l7.789957 0c0.46640015 0 0.9136982 0.18527603 1.2434921 0.51507187c0.32979584 0.32979584 0.51507187 0.777092 0.51507187 1.2434921l0 7.034054c0 0.97122574 -0.78733635 1.758564 -1.758564 1.758564l-7.789957 0c-0.9712286 0 -1.758565 -0.78733826 -1.758565 -1.758564z" fill-rule="evenodd"></path><path stroke="#e06666" stroke-width="2.0" stroke-linejoin="round" stroke-linecap="butt" d="m11.110236 52.826805l0 0c0 -0.97122574 0.78733635 -1.758564 1.758565 -1.758564l7.789957 0c0.46640015 0 0.9136982 0.18527603 1.2434921 0.51507187c0.32979584 0.32979584 0.51507187 0.777092 0.51507187 1.2434921l0 7.034054c0 0.97122574 -0.78733635 1.758564 -1.758564 1.758564l-7.789957 0c-0.9712286 0 -1.758565 -0.78733826 -1.758565 -1.758564z" fill-rule="evenodd"></path><path fill="#6d9eeb" d="m1.2939633 28.887175l0 0c0 -0.97122955 0.78733647 -1.7585659 1.7585653 -1.7585659l7.789956 0c0.46640015 0 0.9136982 0.18527794 1.2434931 0.51507187c0.32979584 0.32979584 0.51507187 0.7770939 0.51507187 1.243494l0 7.034052c0 0.97122574 -0.78733635 1.758564 -1.758565 1.758564l-7.789956 0c-0.97122884 0 -1.7585653 -0.78733826 -1.7585653 -1.758564z" fill-rule="evenodd"></path><path stroke="#6d9eeb" stroke-width="2.0" stroke-linejoin="round" stroke-linecap="butt" d="m1.2939633 28.887175l0 0c0 -0.97122955 0.78733647 -1.7585659 1.7585653 -1.7585659l7.789956 0c0.46640015 0 0.9136982 0.18527794 1.2434931 0.51507187c0.32979584 0.32979584 0.51507187 0.7770939 0.51507187 1.243494l0 7.034052c0 0.97122574 -0.78733635 1.758564 -1.758565 1.758564l-7.789956 0c-0.97122884 0 -1.7585653 -0.78733826 -1.7585653 -1.758564z" fill-rule="evenodd"></path></g></svg>

