<?xml version="1.0" standalone="yes"?>

<svg version="1.1" viewBox="0.0 0.0 64.0 64.0" fill="none" stroke="none" stroke-linecap="square" stroke-miterlimit="10" xmlns="http://www.w3.org/2000/svg" xmlns:xlink="http://www.w3.org/1999/xlink"><clipPath id="p.0"><path d="m0 0l64.0 0l0 64.0l-64.0 0l0 -64.0z" clip-rule="nonzero"></path></clipPath><g clip-path="url(#p.0)"><path fill="#000000" fill-opacity="0.0" d="m0 0l64.0 0l0 64.0l-64.0 0z" fill-rule="evenodd"></path><path fill="#000000" fill-opacity="0.0" d="m53.986877 37.732285c0 9.527557 -5.889763 19.055119 -11.77953 19.055119" fill-rule="evenodd"></path><path stroke="#434343" stroke-width="1.0" stroke-linejoin="round" stroke-linecap="butt" d="m53.986877 37.732285c0 4.7637787 -1.4724426 9.527557 -3.6811028 13.100391c-1.104332 1.7864189 -2.3927155 3.2751007 -3.7731285 4.317177c-0.17255402 0.13026047 -0.34654236 0.25354004 -0.52178955 0.36955643c-0.087623596 0.058002472 -0.17556381 0.11419296 -0.26379395 0.1685257l-0.24769211 0.1468277" fill-rule="evenodd"></path><path fill="#434343" stroke="#434343" stroke-width="1.0" stroke-linecap="butt" d="m45.49937 55.834763l0.76765823 -1.392868l-2.6553917 1.9391365l3.2805977 0.22138977z" fill-rule="evenodd"></path><path fill="#000000" fill-opacity="0.0" d="m27.879265 7.2440944c13.055119 0 26.110237 9.51181 26.110237 19.023623" fill-rule="evenodd"></path><path stroke="#434343" stroke-width="1.0" stroke-linejoin="round" stroke-linecap="butt" d="m27.879265 7.2440944c6.527561 0 13.055119 2.377953 17.950787 5.944882c2.447834 1.7834644 4.4876976 3.864174 5.9156 6.093504c0.7139549 1.114666 1.2749138 2.2664871 1.6573906 3.4368858l0.051734924 0.16323662" fill-rule="evenodd"></path><path fill="#434343" stroke="#434343" stroke-width="1.0" stroke-linecap="butt" d="m53.454773 22.882603l-1.2862778 -0.9353409l1.592907 2.8764572l0.6287155 -3.227394z" fill-rule="evenodd"></path><path fill="#000000" fill-opacity="0.0" d="m14.745407 12.9763775l0 43.811028l4.9133854 0" fill-rule="evenodd"></path><path stroke="#434343" stroke-width="1.0" stroke-linejoin="round" stroke-linecap="butt" d="m14.745407 12.9763775l0 43.811028l4.9133854 0" fill-rule="evenodd"></path><path fill="#e06666" d="m44.884514 28.178516l0 0c0 -1.0553055 0.85549545 -1.910799 1.9108009 -1.910799l14.383125 0c0.5067749 0 0.99279404 0.20131493 1.3511391 0.55965996c0.35834503 0.35834312 0.55965805 0.84436226 0.55965805 1.3511391l0 7.642967c0 1.0553055 -0.85549164 1.9108009 -1.9107971 1.9108009l-14.383125 0c-1.0553055 0 -1.9108009 -0.85549545 -1.9108009 -1.9108009z" fill-rule="evenodd"></path><path stroke="#e06666" stroke-width="1.0" stroke-linejoin="round" stroke-linecap="butt" d="m44.884514 28.178516l0 0c0 -1.0553055 0.85549545 -1.910799 1.9108009 -1.910799l14.383125 0c0.5067749 0 0.99279404 0.20131493 1.3511391 0.55965996c0.35834503 0.35834312 0.55965805 0.84436226 0.55965805 1.3511391l0 7.642967c0 1.0553055 -0.85549164 1.9108009 -1.9107971 1.9108009l-14.383125 0c-1.0553055 0 -1.9108009 -0.85549545 -1.9108009 -1.9108009z" fill-rule="evenodd"></path><path fill="#434343" d="m57.123337 32.395l0 2.921875l1.703125 0q0.4375 0 0.625 0.171875q0.1875 0.15625 0.1875 0.4375q0 0.265625 -0.1875 0.4375q-0.1875 0.15625 -0.625 0.15625l-3.625 0q-0.421875 0 -0.609375 -0.15625q-0.1875 -0.171875 -0.1875 -0.453125q0 -0.265625 0.1875 -0.421875q0.1875 -0.171875 0.609375 -0.171875l0.71875 0l0 -2.921875l-0.578125 0q-0.421875 0 -0.609375 -0.15625q-0.1875 -0.171875 -0.1875 -0.4375019q0 -0.265625 0.1875 -0.4375q0.1875 -0.171875 0.609375 -0.171875l0.578125 0l0 -0.453125q0 -0.78125 0.578125 -1.296875q0.59375 -0.515625 1.71875 -0.515625q0.5 0 1.15625 0.09375q0.65625 0.078125 0.828125 0.25q0.1875 0.15625 0.1875 0.421875q0 0.265625 -0.171875 0.4375q-0.15625 0.171875 -0.390625 0.171875q-0.109375 0 -0.34375 -0.03125q-0.734375 -0.15625 -1.3125 -0.15625q-0.59375 0 -0.828125 0.1875q-0.21875 0.171875 -0.21875 0.4375l0 0.453125l1.84375 0q0.4375 0 0.625 0.171875q0.1875 0.171875 0.1875 0.4375q0 0.2656269 -0.1875 0.4375019q-0.1875 0.15625 -0.625 0.15625l-1.84375 0z" fill-rule="nonzero"></path><path fill="#000000" fill-opacity="0.0" d="m1.2939633 25.023623l15.811023 0l0 21.070868l-15.811023 0z" fill-rule="evenodd"></path><path fill="#93c47d" d="m19.66929 52.968544l0 0c0 -1.0553055 0.85549545 -1.9108009 1.9108009 -1.9108009l18.729582 0c0.5067749 0 0.99279404 0.20131683 1.3511391 0.55965805c0.35834503 0.35834503 0.55966187 0.84436417 0.55966187 1.3511429l0 7.642967c0 1.0553055 -0.85549545 1.9107971 -1.9108009 1.9107971l-18.729582 0c-1.0553055 0 -1.9108009 -0.85549164 -1.9108009 -1.9107971z" fill-rule="evenodd"></path><path stroke="#93c47d" stroke-width="1.0" stroke-linejoin="round" stroke-linecap="butt" d="m19.66929 52.968544l0 0c0 -1.0553055 0.85549545 -1.9108009 1.9108009 -1.9108009l18.729582 0c0.5067749 0 0.99279404 0.20131683 1.3511391 0.55965805c0.35834503 0.35834503 0.55966187 0.84436417 0.55966187 1.3511429l0 7.642967c0 1.0553055 -0.85549545 1.9107971 -1.9108009 1.9107971l-18.729582 0c-1.0553055 0 -1.9108009 -0.85549164 -1.9108009 -1.9107971z" fill-rule="evenodd"></path><path fill="#434343" d="m32.385197 58.9494l0 1.34375l1.3125 0q0.46875 0 0.65625 0.1875q0.203125 0.171875 0.203125 0.46875q0 0.28125 -0.203125 0.46875q-0.1875 0.171875 -0.65625 0.171875l-2.828127 0q-0.46875 0 -0.671875 -0.171875q-0.1875 -0.1875 -0.1875 -0.484375q0 -0.28125 0.203125 -0.453125q0.203125 -0.1875 0.65625 -0.1875l0.203125 0l0 -5.09375l-0.203125 0q-0.46875 0 -0.671875 -0.171875q-0.1875 -0.1875 -0.1875 -0.484375q0 -0.296875 0.1875 -0.46875q0.203125 -0.1875 0.671875 -0.1875l3.000002 0.015625q1.3125 0 2.078125 0.71875q0.78125 0.71875 0.78125 1.75q0 0.578125 -0.25 1.078125q-0.203125 0.375 -0.671875 0.75q-0.453125 0.375 -0.9375 0.5625q-0.46875 0.1875 -1.265625 0.1875l-1.21875 0zm0 -1.296875l1.203125 0q0.84375 0 1.34375 -0.375q0.5 -0.390625 0.5 -0.9375q0 -0.453125 -0.40625 -0.796875q-0.40625 -0.34375 -1.15625 -0.34375l-1.484375 0l0 2.453125z" fill-rule="nonzero"></path><path fill="#6d9eeb" d="m1.6115485 3.4226103l0 0c0 -1.0553052 0.85549414 -1.9107993 1.9107994 -1.9107993l22.446117 0c0.5067749 0 0.99279404 0.20131576 1.3511391 0.5596602c0.35834503 0.35834432 0.55965996 0.8443637 0.55965996 1.3511391l0 7.642968c0 1.0553055 -0.85549355 1.910799 -1.910799 1.910799l-22.446117 0c-1.0553052 0 -1.9107994 -0.85549355 -1.9107994 -1.910799z" fill-rule="evenodd"></path><path stroke="#6d9eeb" stroke-width="1.0" stroke-linejoin="round" stroke-linecap="butt" d="m1.6115485 3.4226103l0 0c0 -1.0553052 0.85549414 -1.9107993 1.9107994 -1.9107993l22.446117 0c0.5067749 0 0.99279404 0.20131576 1.3511391 0.5596602c0.35834503 0.35834432 0.55965996 0.8443637 0.55965996 1.3511391l0 7.642968c0 1.0553055 -0.85549355 1.910799 -1.910799 1.910799l-22.446117 0c-1.0553052 0 -1.9107994 -0.85549355 -1.9107994 -1.910799z" fill-rule="evenodd"></path><path fill="#434343" d="m18.718077 8.200344q0 1.734375 -1.109375 2.890625q-1.09375 1.140625 -2.531249 1.140625q-1.296875 0 -2.34375 -0.953125q-1.296875 -1.1875 -1.296875 -3.078125q0 -1.8906255 1.296875 -3.0937505q1.046875 -0.953125 2.34375 -0.953125q1.437499 0 2.531249 1.15625q1.109375 1.140625 1.109375 2.8906255zm-1.296875 0q0 -1.1875005 -0.71875 -1.9687505q-0.71874905 -0.78125 -1.624999 -0.78125q-0.90625 0 -1.625 0.78125q-0.71875 0.78125 -0.71875 1.9687505q0 1.171875 0.71875 1.953125q0.71875 0.78125 1.625 0.78125q0.90625 0 1.624999 -0.765625q0.71875 -0.78125 0.71875 -1.96875z" fill-rule="nonzero"></path></g></svg>

