<?xml version="1.0" standalone="yes"?>

<svg version="1.1" viewBox="0.0 0.0 64.0 64.0" fill="none" stroke="none" stroke-linecap="square" stroke-miterlimit="10" xmlns="http://www.w3.org/2000/svg" xmlns:xlink="http://www.w3.org/1999/xlink"><clipPath id="p.0"><path d="m0 0l64.0 0l0 64.0l-64.0 0l0 -64.0z" clip-rule="nonzero"></path></clipPath><g clip-path="url(#p.0)"><path fill="#000000" fill-opacity="0.0" d="m0 0l64.0 0l0 64.0l-64.0 0z" fill-rule="evenodd"></path><path fill="#000000" fill-opacity="0.0" d="m39.278214 21.711287l19.671917 0l0 34.708664l-19.608925 0" fill-rule="evenodd"></path><path stroke="#434343" stroke-width="1.0" stroke-linejoin="round" stroke-linecap="butt" d="m39.278214 21.711287l19.671917 0l0 34.708664l-19.608925 0" fill-rule="evenodd"></path><path fill="#000000" fill-opacity="0.0" d="m20.67979 51.2021l0 -39.181103" fill-rule="evenodd"></path><path stroke="#434343" stroke-width="1.0" stroke-linejoin="round" stroke-linecap="butt" d="m20.67979 51.2021l0 -39.181103" fill-rule="evenodd"></path><path fill="#6d9eeb" d="m2.0734909 3.3071215l0 0c0 -0.9625313 0.7802856 -1.742817 1.7428169 -1.742817l33.711216 0c0.46222687 0 0.9055176 0.18361771 1.232357 0.5104593c0.32684326 0.3268416 0.5104599 0.770134 0.5104599 1.2323577l0 6.971059c0 0.9625311 -0.7802849 1.7428169 -1.7428169 1.7428169l-33.711216 0c-0.9625313 0 -1.7428169 -0.78028584 -1.7428169 -1.7428169z" fill-rule="evenodd"></path><path stroke="#6d9eeb" stroke-width="1.0" stroke-linejoin="round" stroke-linecap="butt" d="m2.0734909 3.3071215l0 0c0 -0.9625313 0.7802856 -1.742817 1.7428169 -1.742817l33.711216 0c0.46222687 0 0.9055176 0.18361771 1.232357 0.5104593c0.32684326 0.3268416 0.5104599 0.770134 0.5104599 1.2323577l0 6.971059c0 0.9625311 -0.7802849 1.7428169 -1.7428169 1.7428169l-33.711216 0c-0.9625313 0 -1.7428169 -0.78028584 -1.7428169 -1.7428169z" fill-rule="evenodd"></path><path fill="#434343" d="m16.410198 8.285151l1.109375 -0.171875q0.0625 0.328125 0.28125 0.5q0.21875 0.15625 0.59375 0.15625q0.4374981 0 0.6406231 -0.15625q0.15625 -0.109375 0.15625 -0.296875q0 -0.125 -0.078125 -0.203125q-0.09375 -0.078125 -0.375 -0.140625q-1.3281231 -0.296875 -1.6874981 -0.53125q-0.484375 -0.34375 -0.484375 -0.9375q0 -0.546875 0.421875 -0.90625q0.421875 -0.375 1.328125 -0.375q0.8437481 0 1.2499981 0.28125q0.421875 0.28125 0.578125 0.828125l-1.03125 0.1875q-0.0625 -0.25 -0.25 -0.375q-0.1875 -0.125 -0.5312481 -0.125q-0.4375 0 -0.625 0.125q-0.125 0.078125 -0.125 0.21875q0 0.109375 0.109375 0.203125q0.15625 0.109375 1.0312481 0.3125q0.875 0.1875 1.21875 0.484375q0.34375 0.28125 0.34375 0.8125q0 0.5625 -0.484375 0.984375q-0.46875 0.40625 -1.4062481 0.40625q-0.84375 0 -1.34375 -0.34375q-0.484375 -0.34375 -0.640625 -0.9375zm6.464842 -4.5625q0.828125 0 1.296875 0.59375q0.5625 0.703125 0.5625 2.328125q0 1.625 -0.5625 2.34375q-0.46875 0.578125 -1.296875 0.578125q-0.84375 0 -1.359375 -0.640625q-0.5 -0.640625 -0.5 -2.296875q0 -1.609375 0.5625 -2.328125q0.453125 -0.578125 1.296875 -0.578125zm0 0.90625q-0.203125 0 -0.359375 0.125q-0.15625 0.125 -0.25 0.453125q-0.109375 0.4375 -0.109375 1.4375q0 1.015625 0.09375 1.390625q0.109375 0.375 0.265625 0.5q0.15625 0.125 0.359375 0.125q0.1875 0 0.34375 -0.125q0.15625 -0.125 0.25 -0.453125q0.109375 -0.421875 0.109375 -1.4375q0 -1.0 -0.109375 -1.375q-0.09375 -0.390625 -0.25 -0.515625q-0.15625 -0.125 -0.34375 -0.125z" fill-rule="nonzero"></path><path fill="#000000" fill-opacity="0.0" d="m1.2939633 25.023623l15.811023 0l0 21.070868l-15.811023 0z" fill-rule="evenodd"></path><path fill="#6d9eeb" d="m2.0734909 34.34387l0 0c0 -0.96253204 0.7802856 -1.7428169 1.7428169 -1.7428169l33.711216 0c0.46222687 0 0.9055176 0.18361664 1.232357 0.5104561c0.32684326 0.32684326 0.5104599 0.770134 0.5104599 1.2323608l0 6.971058c0 0.96253204 -0.7802849 1.7428169 -1.7428169 1.7428169l-33.711216 0c-0.9625313 0 -1.7428169 -0.7802849 -1.7428169 -1.7428169z" fill-rule="evenodd"></path><path stroke="#6d9eeb" stroke-width="1.0" stroke-linejoin="round" stroke-linecap="butt" d="m2.0734909 34.34387l0 0c0 -0.96253204 0.7802856 -1.7428169 1.7428169 -1.7428169l33.711216 0c0.46222687 0 0.9055176 0.18361664 1.232357 0.5104561c0.32684326 0.32684326 0.5104599 0.770134 0.5104599 1.2323608l0 6.971058c0 0.96253204 -0.7802849 1.7428169 -1.7428169 1.7428169l-33.711216 0c-0.9625313 0 -1.7428169 -0.7802849 -1.7428169 -1.7428169z" fill-rule="evenodd"></path><path fill="#434343" d="m13.07426 39.321896l1.109375 -0.171875q0.0625 0.328125 0.28125 0.5q0.21875 0.15625 0.59375 0.15625q0.4375 0 0.640625 -0.15625q0.15625 -0.109375 0.15625 -0.296875q0 -0.125 -0.078125 -0.203125q-0.09375 -0.078125 -0.375 -0.140625q-1.328125 -0.296875 -1.6875 -0.53125q-0.484375 -0.34375 -0.484375 -0.9375q0 -0.546875 0.421875 -0.90625q0.421875 -0.375 1.328125 -0.375q0.84375 0 1.250001 0.28125q0.421875 0.28125 0.578125 0.828125l-1.031251 0.1875q-0.0625 -0.25 -0.25 -0.375q-0.1875 -0.125 -0.53125 -0.125q-0.4375 0 -0.625 0.125q-0.125 0.078125 -0.125 0.21875q0 0.109375 0.109375 0.203125q0.15625 0.109375 1.03125 0.3125q0.87500095 0.1875 1.218751 0.484375q0.34375 0.28125 0.34375 0.8125q0 0.5625 -0.484375 0.984375q-0.46875095 0.40625 -1.406251 0.40625q-0.84375 0 -1.34375 -0.34375q-0.484375 -0.34375 -0.640625 -0.9375zm7.417968 1.1875l-1.109375 0l0 -4.140625q-0.59375 0.5625 -1.4062481 0.828125l0 -0.984375q0.421875 -0.140625 0.9218731 -0.53125q0.515625 -0.40625 0.703125 -0.921875l0.890625 0l0 5.75zm1.8710938 0l0 -1.09375l1.09375 0l0 1.09375l-1.09375 0zm4.8007812 0l-1.109375 0l0 -4.140625q-0.59375 0.5625 -1.40625 0.828125l0 -0.984375q0.421875 -0.140625 0.921875 -0.53125q0.515625 -0.40625 0.703125 -0.921875l0.890625 0l0 5.75z" fill-rule="nonzero"></path><path fill="#e06666" d="m2.0813649 21.711287l2.6141732 -5.228344l31.968506 0l2.61417 5.228344l-2.61417 5.228344l-31.968506 0z" fill-rule="evenodd"></path><path stroke="#e06666" stroke-width="1.0" stroke-linejoin="round" stroke-linecap="butt" d="m2.0813649 21.711287l2.6141732 -5.228344l31.968506 0l2.61417 5.228344l-2.61417 5.228344l-31.968506 0z" fill-rule="evenodd"></path><path fill="#434343" d="m18.814556 19.672535l0 -1.015625l1.09375 0l0 1.015625l-1.09375 0zm0 4.71875l0 -4.15625l1.09375 0l0 4.15625l-1.09375 0zm1.7382812 -4.15625l0.609375 0l0 -0.3125q0 -0.515625 0.109375 -0.765625q0.109375 -0.265625 0.40625 -0.421875q0.3125 -0.171875 0.765625 -0.171875q0.46875 0 0.921875 0.140625l-0.15625 0.765625q-0.265625 -0.0625 -0.5 -0.0625q-0.234375 0 -0.34375 0.109375q-0.109375 0.109375 -0.109375 0.4375l0 0.28125l0.828125 0l0 0.875l-0.828125 0l0 3.28125l-1.09375 0l0 -3.28125l-0.609375 0l0 -0.875z" fill-rule="nonzero"></path><path fill="#6d9eeb" d="m2.0813649 52.944916l0 0c0 -0.96253204 0.7802856 -1.7428169 1.7428169 -1.7428169l33.711216 0c0.46222687 0 0.9055176 0.18362045 1.2323608 0.5104599c0.32683945 0.32684326 0.5104561 0.770134 0.5104561 1.232357l0 6.9710617c0 0.9625282 -0.7802849 1.7428169 -1.7428169 1.7428169l-33.711216 0c-0.9625313 0 -1.7428169 -0.7802887 -1.7428169 -1.7428169z" fill-rule="evenodd"></path><path stroke="#6d9eeb" stroke-width="1.0" stroke-linejoin="round" stroke-linecap="butt" d="m2.0813649 52.944916l0 0c0 -0.96253204 0.7802856 -1.7428169 1.7428169 -1.7428169l33.711216 0c0.46222687 0 0.9055176 0.18362045 1.2323608 0.5104599c0.32683945 0.32684326 0.5104561 0.770134 0.5104561 1.232357l0 6.9710617c0 0.9625282 -0.7802849 1.7428169 -1.7428169 1.7428169l-33.711216 0c-0.9625313 0 -1.7428169 -0.7802887 -1.7428169 -1.7428169z" fill-rule="evenodd"></path><path fill="#434343" d="m13.082134 57.922947l1.109375 -0.171875q0.0625 0.328125 0.28125 0.5q0.21875 0.15625 0.59375 0.15625q0.4375 0 0.640625 -0.15625q0.15625 -0.109375 0.15625 -0.296875q0 -0.125 -0.078125 -0.203125q-0.09375 -0.078125 -0.375 -0.140625q-1.328125 -0.296875 -1.6875 -0.53125q-0.484375 -0.34375 -0.484375 -0.9375q0 -0.546875 0.421875 -0.90625q0.421875 -0.375 1.328125 -0.375q0.84375 0 1.25 0.28125q0.421875 0.28125 0.578125 0.828125l-1.03125 0.1875q-0.0625 -0.25 -0.25 -0.375q-0.1875 -0.125 -0.53125 -0.125q-0.4375 0 -0.625 0.125q-0.125 0.078125 -0.125 0.21875q0 0.109375 0.109375 0.203125q0.15625 0.109375 1.03125 0.3125q0.875 0.1875 1.21875 0.484375q0.34375 0.28125 0.34375 0.8125q0 0.5625 -0.484375 0.984375q-0.46875 0.40625 -1.40625 0.40625q-0.84375 0 -1.34375 -0.34375q-0.484375 -0.34375 -0.640625 -0.9375zm7.417967 1.1875l-1.109375 0l0 -4.140625q-0.59375 0.5625 -1.4062481 0.828125l0 -0.984375q0.421875 -0.140625 0.9218731 -0.53125q0.515625 -0.40625 0.703125 -0.921875l0.890625 0l0 5.75zm1.8710938 0l0 -1.09375l1.09375 0l0 1.09375l-1.09375 0zm5.6914062 -1.015625l0 1.015625l-3.84375 0q0.0625 -0.578125 0.375 -1.09375q0.3125 -0.515625 1.234375 -1.375q0.734375 -0.6875 0.90625 -0.9375q0.234375 -0.34375 0.234375 -0.671875q0 -0.375 -0.203125 -0.5625q-0.203125 -0.203125 -0.546875 -0.203125q-0.34375 0 -0.546875 0.21875q-0.203125 0.203125 -0.234375 0.671875l-1.09375 -0.109375q0.09375 -0.90625 0.609375 -1.296875q0.515625 -0.390625 1.296875 -0.390625q0.84375 0 1.328125 0.453125q0.484375 0.453125 0.484375 1.140625q0 0.390625 -0.140625 0.734375q-0.140625 0.34375 -0.4375 0.734375q-0.203125 0.25 -0.71875 0.734375q-0.515625 0.46875 -0.65625 0.625q-0.140625 0.15625 -0.21875 0.3125l2.171875 0z" fill-rule="nonzero"></path></g></svg>

