<?xml version="1.0" standalone="yes"?>

<svg version="1.1" viewBox="0.0 0.0 64.0 64.0" fill="none" stroke="none" stroke-linecap="square" stroke-miterlimit="10" xmlns="http://www.w3.org/2000/svg" xmlns:xlink="http://www.w3.org/1999/xlink"><clipPath id="p.0"><path d="m0 0l64.0 0l0 64.0l-64.0 0l0 -64.0z" clip-rule="nonzero"></path></clipPath><g clip-path="url(#p.0)"><path fill="#000000" fill-opacity="0.0" d="m0 0l64.0 0l0 64.0l-64.0 0z" fill-rule="nonzero"></path><path fill="#000000" fill-opacity="0.0" d="m1.9081365 11.756106l0 0c0 -5.5519495 4.500745 -10.052694 10.052694 -10.052694l40.20957 0l0 0c2.6661415 0 5.2230835 1.0591202 7.10833 2.944366c1.8852463 1.8852458 2.9443665 4.442188 2.9443665 7.1083283l0 40.493034c0 5.5519524 -4.5007477 10.052696 -10.052696 10.052696l-40.20957 0c-5.5519495 0 -10.052694 -4.500744 -10.052694 -10.052696z" fill-rule="nonzero"></path><path stroke="#434343" stroke-width="3.0" stroke-linejoin="round" stroke-linecap="butt" d="m1.9081365 11.756106l0 0c0 -5.5519495 4.500745 -10.052694 10.052694 -10.052694l40.20957 0l0 0c2.6661415 0 5.2230835 1.0591202 7.10833 2.944366c1.8852463 1.8852458 2.9443665 4.442188 2.9443665 7.1083283l0 40.493034c0 5.5519524 -4.5007477 10.052696 -10.052696 10.052696l-40.20957 0c-5.5519495 0 -10.052694 -4.500744 -10.052694 -10.052696z" fill-rule="nonzero"></path><path fill="#000000" fill-opacity="0.0" d="m1.2939633 25.023623l15.811023 0l0 21.070868l-15.811023 0z" fill-rule="nonzero"></path><path fill="#000000" fill-opacity="0.0" d="m6.4080367 9.597113l24.444094 0" fill-rule="nonzero"></path><path stroke="#000000" stroke-width="4.0" stroke-linejoin="round" stroke-linecap="butt" d="m6.4080367 9.597113l24.444094 0" fill-rule="nonzero"></path><path fill="#000000" fill-opacity="0.0" d="m6.4080367 16.736221l24.444094 0" fill-rule="nonzero"></path><path stroke="#000000" stroke-width="4.0" stroke-linejoin="round" stroke-linecap="butt" d="m6.4080367 16.736221l24.444094 0" fill-rule="nonzero"></path><path fill="#000000" fill-opacity="0.0" d="m6.365263 24.01181l24.444094 0" fill-rule="nonzero"></path><path stroke="#000000" stroke-width="4.0" stroke-linejoin="round" stroke-linecap="butt" d="m6.365263 24.01181l24.444094 0" fill-rule="nonzero"></path><path fill="#000000" fill-opacity="0.0" d="m6.365263 31.562992l24.444094 0" fill-rule="nonzero"></path><path stroke="#000000" stroke-width="4.0" stroke-linejoin="round" stroke-linecap="butt" d="m6.365263 31.562992l24.444094 0" fill-rule="nonzero"></path><path fill="#000000" fill-opacity="0.0" d="m6.4080367 39.108925l24.444094 0" fill-rule="nonzero"></path><path stroke="#000000" stroke-width="4.0" stroke-linejoin="round" stroke-linecap="butt" d="m6.4080367 39.108925l24.444094 0" fill-rule="nonzero"></path><path fill="#000000" fill-opacity="0.0" d="m6.365263 46.862206l24.444094 0" fill-rule="nonzero"></path><path stroke="#000000" stroke-width="4.0" stroke-linejoin="round" stroke-linecap="butt" d="m6.365263 46.862206l24.444094 0" fill-rule="nonzero"></path><path fill="#000000" fill-opacity="0.0" d="m6.4080367 54.413387l24.444094 0" fill-rule="nonzero"></path><path stroke="#000000" stroke-width="4.0" stroke-linejoin="round" stroke-linecap="butt" d="m6.4080367 54.413387l24.444094 0" fill-rule="nonzero"></path><path fill="#000000" fill-opacity="0.0" d="m34.774323 9.590551l23.655903 0" fill-rule="nonzero"></path><path stroke="#000000" stroke-width="4.0" stroke-linejoin="round" stroke-linecap="butt" d="m34.774323 9.590551l23.655903 0" fill-rule="nonzero"></path><path fill="#000000" fill-opacity="0.0" d="m34.774323 16.729658l23.655903 0" fill-rule="nonzero"></path><path stroke="#000000" stroke-width="4.0" stroke-linejoin="round" stroke-linecap="butt" d="m34.774323 16.729658l23.655903 0" fill-rule="nonzero"></path><path fill="#000000" fill-opacity="0.0" d="m34.732925 24.005249l23.655907 0" fill-rule="nonzero"></path><path stroke="#000000" stroke-width="4.0" stroke-linejoin="round" stroke-linecap="butt" d="m34.732925 24.005249l23.655907 0" fill-rule="nonzero"></path><path fill="#000000" fill-opacity="0.0" d="m34.732925 31.55643l23.655907 0" fill-rule="nonzero"></path><path stroke="#000000" stroke-width="4.0" stroke-linejoin="round" stroke-linecap="butt" d="m34.732925 31.55643l23.655907 0" fill-rule="nonzero"></path><path fill="#000000" fill-opacity="0.0" d="m34.774323 39.102364l23.655903 0" fill-rule="nonzero"></path><path stroke="#000000" stroke-width="4.0" stroke-linejoin="round" stroke-linecap="butt" d="m34.774323 39.102364l23.655903 0" fill-rule="nonzero"></path><path fill="#000000" fill-opacity="0.0" d="m34.732925 46.855644l23.655907 0" fill-rule="nonzero"></path><path stroke="#000000" stroke-width="4.0" stroke-linejoin="round" stroke-linecap="butt" d="m34.732925 46.855644l23.655907 0" fill-rule="nonzero"></path><path fill="#000000" fill-opacity="0.0" d="m34.774323 54.406826l23.655903 0" fill-rule="nonzero"></path><path stroke="#000000" stroke-width="4.0" stroke-linejoin="round" stroke-linecap="butt" d="m34.774323 54.406826l23.655903 0" fill-rule="nonzero"></path></g></svg>

