<?xml version="1.0" standalone="yes"?>

<svg version="1.1" viewBox="0.0 0.0 64.0 64.0" fill="none" stroke="none" stroke-linecap="square" stroke-miterlimit="10" xmlns="http://www.w3.org/2000/svg" xmlns:xlink="http://www.w3.org/1999/xlink"><clipPath id="p.0"><path d="m0 0l64.0 0l0 64.0l-64.0 0l0 -64.0z" clip-rule="nonzero"></path></clipPath><g clip-path="url(#p.0)"><path fill="#000000" fill-opacity="0.0" d="m0 0l64.0 0l0 64.0l-64.0 0z" fill-rule="nonzero"></path><path fill="#000000" fill-opacity="0.0" d="m2.0866141 11.80275l0 0c0 -5.525526 4.4793234 -10.004849 10.0048485 -10.004849l40.021797 0l0 0c2.65345 0 5.198223 1.0540792 7.074497 2.9303527c1.8762703 1.8762732 2.9303513 4.421046 2.9303513 7.0744967l0 40.525734c0 5.525528 -4.4793243 10.0048485 -10.0048485 10.0048485l-40.021797 0c-5.5255256 0 -10.0048485 -4.4793205 -10.0048485 -10.0048485z" fill-rule="nonzero"></path><path stroke="#434343" stroke-width="3.0" stroke-linejoin="round" stroke-linecap="butt" d="m2.0866141 11.80275l0 0c0 -5.525526 4.4793234 -10.004849 10.0048485 -10.004849l40.021797 0l0 0c2.65345 0 5.198223 1.0540792 7.074497 2.9303527c1.8762703 1.8762732 2.9303513 4.421046 2.9303513 7.0744967l0 40.525734c0 5.525528 -4.4793243 10.0048485 -10.0048485 10.0048485l-40.021797 0c-5.5255256 0 -10.0048485 -4.4793205 -10.0048485 -10.0048485z" fill-rule="nonzero"></path><path fill="#e06666" d="m22.750656 11.144409l0 0c0 -1.4293013 1.158678 -2.5879784 2.5879784 -2.5879784l14.698059 0c0.68637466 0 1.3446388 0.2726612 1.829979 0.7580013c0.4853363 0.48534012 0.7579994 1.1436024 0.7579994 1.829977l0 10.351603c0 1.4293003 -1.1586761 2.5879784 -2.5879784 2.5879784l-14.698059 0l0 0c-1.4293003 0 -2.5879784 -1.158678 -2.5879784 -2.5879784z" fill-rule="nonzero"></path><path stroke="#e06666" stroke-width="1.0" stroke-linejoin="round" stroke-linecap="butt" d="m22.750656 11.144409l0 0c0 -1.4293013 1.158678 -2.5879784 2.5879784 -2.5879784l14.698059 0c0.68637466 0 1.3446388 0.2726612 1.829979 0.7580013c0.4853363 0.48534012 0.7579994 1.1436024 0.7579994 1.829977l0 10.351603c0 1.4293003 -1.1586761 2.5879784 -2.5879784 2.5879784l-14.698059 0l0 0c-1.4293003 0 -2.5879784 -1.158678 -2.5879784 -2.5879784z" fill-rule="nonzero"></path><path fill="#000000" fill-opacity="0.0" d="m1.2939633 25.023623l15.811023 0l0 21.070868l-15.811023 0z" fill-rule="nonzero"></path><path fill="#93c47d" d="m8.346457 37.14966l0 0c0 -1.4293022 1.1586771 -2.5879784 2.5879784 -2.5879784l14.698059 0c0.68637466 0 1.3446369 0.2726593 1.829977 0.7579994c0.48534012 0.48534012 0.7580013 1.1436043 0.7580013 1.829979l0 10.351601c0 1.4293022 -1.158678 2.5879784 -2.5879784 2.5879784l-14.698059 0l0 0c-1.4293013 0 -2.5879784 -1.1586761 -2.5879784 -2.5879784z" fill-rule="nonzero"></path><path stroke="#93c47d" stroke-width="1.0" stroke-linejoin="round" stroke-linecap="butt" d="m8.346457 37.14966l0 0c0 -1.4293022 1.1586771 -2.5879784 2.5879784 -2.5879784l14.698059 0c0.68637466 0 1.3446369 0.2726593 1.829977 0.7579994c0.48534012 0.48534012 0.7580013 1.1436043 0.7580013 1.829979l0 10.351601c0 1.4293022 -1.158678 2.5879784 -2.5879784 2.5879784l-14.698059 0l0 0c-1.4293013 0 -2.5879784 -1.1586761 -2.5879784 -2.5879784z" fill-rule="nonzero"></path><path fill="#6d9eeb" d="m35.779526 37.14966l0 0c0 -1.4293022 1.15868 -2.5879784 2.5879784 -2.5879784l14.698059 0c0.68637466 0 1.3446388 0.2726593 1.829979 0.7579994c0.48534012 0.48534012 0.7579994 1.1436043 0.7579994 1.829979l0 10.351601c0 1.4293022 -1.1586761 2.5879784 -2.5879784 2.5879784l-14.698059 0l0 0c-1.4292984 0 -2.5879784 -1.1586761 -2.5879784 -2.5879784z" fill-rule="nonzero"></path><path stroke="#6d9eeb" stroke-width="1.0" stroke-linejoin="round" stroke-linecap="butt" d="m35.779526 37.14966l0 0c0 -1.4293022 1.15868 -2.5879784 2.5879784 -2.5879784l14.698059 0c0.68637466 0 1.3446388 0.2726593 1.829979 0.7579994c0.48534012 0.48534012 0.7579994 1.1436043 0.7579994 1.829979l0 10.351601c0 1.4293022 -1.1586761 2.5879784 -2.5879784 2.5879784l-14.698059 0l0 0c-1.4292984 0 -2.5879784 -1.1586761 -2.5879784 -2.5879784z" fill-rule="nonzero"></path><path fill="#000000" fill-opacity="0.0" d="m32.687664 24.08399l0 5.2388496l-14.393702 0l0 5.249338" fill-rule="nonzero"></path><path stroke="#434343" stroke-width="2.0" stroke-linejoin="round" stroke-linecap="butt" d="m32.687664 24.08399l0 5.2388496l-14.393702 0l0 5.249338" fill-rule="nonzero"></path><path fill="#000000" fill-opacity="0.0" d="m32.687664 24.08399l0 5.2388496l13.0393715 0l0 5.249338" fill-rule="nonzero"></path><path stroke="#434343" stroke-width="2.0" stroke-linejoin="round" stroke-linecap="butt" d="m32.687664 24.08399l0 5.2388496l13.0393715 0l0 5.249338" fill-rule="nonzero"></path></g></svg>

