<?xml version="1.0" standalone="yes"?>

<svg version="1.1" viewBox="0.0 0.0 64.0 64.0" fill="none" stroke="none" stroke-linecap="square" stroke-miterlimit="10" xmlns="http://www.w3.org/2000/svg" xmlns:xlink="http://www.w3.org/1999/xlink"><clipPath id="p.0"><path d="m0 0l64.0 0l0 64.0l-64.0 0l0 -64.0z" clip-rule="nonzero"></path></clipPath><g clip-path="url(#p.0)"><path fill="#000000" fill-opacity="0.0" d="m0 0l64.0 0l0 64.0l-64.0 0z" fill-rule="nonzero"></path><path fill="#e06666" d="m19.480314 4.2100377l0 0c0 -1.768506 1.4336586 -3.2021637 3.2021637 -3.2021637l18.635042 0c0.84926605 0 1.6637497 0.33736992 2.2642746 0.9378921c0.6005211 0.60052216 0.9378891 1.4150051 0.9378891 2.2642717l0 12.808271c0 1.768507 -1.4336548 3.2021637 -3.2021637 3.2021637l-18.635042 0l0 0c-1.7685051 0 -3.2021637 -1.4336567 -3.2021637 -3.2021637z" fill-rule="nonzero"></path><path stroke="#e06666" stroke-width="1.0" stroke-linejoin="round" stroke-linecap="butt" d="m19.480314 4.2100377l0 0c0 -1.768506 1.4336586 -3.2021637 3.2021637 -3.2021637l18.635042 0c0.84926605 0 1.6637497 0.33736992 2.2642746 0.9378921c0.6005211 0.60052216 0.9378891 1.4150051 0.9378891 2.2642717l0 12.808271c0 1.768507 -1.4336548 3.2021637 -3.2021637 3.2021637l-18.635042 0l0 0c-1.7685051 0 -3.2021637 -1.4336567 -3.2021637 -3.2021637z" fill-rule="nonzero"></path><path fill="#000000" fill-opacity="0.0" d="m1.2939633 25.023623l15.811023 0l0 21.070868l-15.811023 0z" fill-rule="nonzero"></path><path fill="#93c47d" d="m0.95013124 46.98169l0 0c0 -1.7685051 1.4336576 -3.2021637 3.202164 -3.2021637l17.595673 0c0.84926796 0 1.6637497 0.33737183 2.2642727 0.9378929c0.6005211 0.6005249 0.937891 1.4150047 0.937891 2.2642708l0 12.808273c0 1.7685051 -1.4336567 3.2021637 -3.2021637 3.2021637l-17.595673 0l0 0c-1.7685063 0 -3.202164 -1.4336586 -3.202164 -3.2021637z" fill-rule="nonzero"></path><path stroke="#93c47d" stroke-width="1.0" stroke-linejoin="round" stroke-linecap="butt" d="m0.95013124 46.98169l0 0c0 -1.7685051 1.4336576 -3.2021637 3.202164 -3.2021637l17.595673 0c0.84926796 0 1.6637497 0.33737183 2.2642727 0.9378929c0.6005211 0.6005249 0.937891 1.4150047 0.937891 2.2642708l0 12.808273c0 1.7685051 -1.4336567 3.2021637 -3.2021637 3.2021637l-17.595673 0l0 0c-1.7685063 0 -3.202164 -1.4336586 -3.202164 -3.2021637z" fill-rule="nonzero"></path><path fill="#6d9eeb" d="m38.902885 46.98169l0 0c0 -1.7685051 1.4336586 -3.2021637 3.2021637 -3.2021637l17.595673 0c0.84926987 0 1.6637497 0.33737183 2.2642746 0.9378929c0.6005211 0.6005249 0.9378891 1.4150047 0.9378891 2.2642708l0 12.808273c0 1.7685051 -1.4336548 3.2021637 -3.2021637 3.2021637l-17.595673 0l0 0c-1.7685051 0 -3.2021637 -1.4336586 -3.2021637 -3.2021637z" fill-rule="nonzero"></path><path stroke="#6d9eeb" stroke-width="1.0" stroke-linejoin="round" stroke-linecap="butt" d="m38.902885 46.98169l0 0c0 -1.7685051 1.4336586 -3.2021637 3.2021637 -3.2021637l17.595673 0c0.84926987 0 1.6637497 0.33737183 2.2642746 0.9378929c0.6005211 0.6005249 0.9378891 1.4150047 0.9378891 2.2642708l0 12.808273c0 1.7685051 -1.4336548 3.2021637 -3.2021637 3.2021637l-17.595673 0l0 0c-1.7685051 0 -3.2021637 -1.4336586 -3.2021637 -3.2021637z" fill-rule="nonzero"></path><path fill="#000000" fill-opacity="0.0" d="m32.0 20.220472l0 8.758551l-19.055119 0l0 14.800503" fill-rule="nonzero"></path><path stroke="#434343" stroke-width="2.0" stroke-linejoin="round" stroke-linecap="butt" d="m32.0 20.220472l0 8.758551l-19.055119 0l0 7.2205048" fill-rule="evenodd"></path><path fill="#434343" stroke="#434343" stroke-width="2.0" stroke-linecap="butt" d="m12.944881 42.779526c-1.8170166 0 -3.289999 -1.4729805 -3.289999 -3.289997c0 -1.8170166 1.4729824 -3.290001 3.289999 -3.290001c1.8170176 0 3.290001 1.4729843 3.290001 3.290001c0 1.8170166 -1.4729834 3.289997 -3.290001 3.289997z" fill-rule="nonzero"></path><path fill="#000000" fill-opacity="0.0" d="m32.0 20.220472l0 8.758551l18.897636 0l0 14.800503" fill-rule="nonzero"></path><path stroke="#434343" stroke-width="2.0" stroke-linejoin="round" stroke-linecap="butt" d="m32.0 20.220472l0 8.758551l18.897636 0l0 7.2205048" fill-rule="evenodd"></path><path fill="#434343" stroke="#434343" stroke-width="2.0" stroke-linecap="butt" d="m50.897636 42.779526c-1.8170166 0 -3.289997 -1.4729805 -3.289997 -3.289997c0 -1.8170166 1.4729805 -3.290001 3.289997 -3.290001c1.8170166 0 3.290001 1.4729843 3.290001 3.290001c0 1.8170166 -1.4729843 3.289997 -3.290001 3.289997z" fill-rule="nonzero"></path><path fill="#000000" fill-opacity="0.0" d="m38.902885 53.385826l-13.952755 0" fill-rule="nonzero"></path><path stroke="#434343" stroke-width="2.0" stroke-linejoin="round" stroke-linecap="butt" d="m38.902885 53.385826l-6.372757 0" fill-rule="evenodd"></path><path fill="#434343" stroke="#434343" stroke-width="2.0" stroke-linecap="butt" d="m25.95013 53.385826c0 -1.8170166 1.4729843 -3.290001 3.290001 -3.290001c1.8170166 0 3.290001 1.4729843 3.290001 3.290001c0 1.8170166 -1.4729843 3.290001 -3.290001 3.290001c-1.8170166 0 -3.290001 -1.4729843 -3.290001 -3.290001z" fill-rule="nonzero"></path><path fill="#000000" fill-opacity="0.0" d="m17.257217 0.35958004l29.259842 0l0 21.070866l-29.259842 0z" fill-rule="nonzero"></path><path fill="#434343" d="m33.569717 7.6925135q0.15625 -0.203125 0.328125 -0.296875q0.171875 -0.109375 0.375 -0.109375q0.359375 0 0.578125 0.25q0.21875 0.234375 0.21875 0.8125l0 1.359375q0 0.578125 -0.21875 0.828125q-0.21875 0.234375 -0.578125 0.234375q-0.3125 0 -0.515625 -0.171875q-0.1875 -0.1875 -0.28125 -0.671875q-0.0625 -0.328125 -0.21875 -0.515625q-0.328125 -0.34375 -0.90625 -0.546875q-0.5625 -0.21875 -1.140625 -0.21875q-0.71875 0 -1.328125 0.3125q-0.59375 0.3125 -1.0625 1.015625q-0.453125 0.703125 -0.453125 1.671875l0 1.03125q0 1.15625 0.828125 1.9375q0.84375 0.765625 2.34375 0.765625q0.890625 0 1.5 -0.234375q0.359375 -0.140625 0.765625 -0.5625q0.25 -0.25 0.390625 -0.3125q0.140625 -0.078125 0.328125 -0.078125q0.3125 0 0.546875 0.25q0.25 0.234375 0.25 0.5625q0 0.328125 -0.328125 0.703125q-0.46875 0.54687595 -1.21875 0.85937595q-1.015625 0.421875 -2.234375 0.421875q-1.421875 0 -2.5625 -0.59375q-0.921875 -0.46875095 -1.578125 -1.468751q-0.640625 -1.015625 -0.640625 -2.21875l0 -1.078125q0 -1.25 0.578125 -2.328125q0.59375 -1.09375 1.625 -1.671875q1.03125 -0.59375 2.1875 -0.59375q0.6875 0 1.296875 0.171875q0.609375 0.15625 1.125 0.484375z" fill-rule="nonzero"></path><path fill="#000000" fill-opacity="0.0" d="m-1.67979 42.850395l29.259844 0l0 21.070866l-29.259844 0z" fill-rule="nonzero"></path><path fill="#434343" d="m9.6170845 52.870827l0 4.765625l0.578125 0q0.578125 0 0.828125 0.234375q0.25 0.21875 0.25 0.578125q0 0.34375 -0.25 0.578125q-0.25 0.21875 -0.828125 0.21875l-2.09375 0q-0.5781245 0 -0.8281245 -0.21875q-0.25 -0.234375 -0.25 -0.59375q0 -0.34375 0.25 -0.5625q0.234375 -0.234375 0.7499995 -0.234375l0 -6.265625q-0.42187452 -0.03125 -0.6406245 -0.25q-0.21875 -0.21875 -0.21875 -0.546875q0 -0.359375 0.25 -0.578125q0.25 -0.234375 0.8281245 -0.234375l1.75 0.015625l2.1875 4.8125l2.140625 -4.828125l1.765625 0.015625q0.578125 0 0.828125 0.21875q0.25 0.21875 0.25 0.578125q0 0.328125 -0.21875 0.546875q-0.21875 0.21875 -0.640625 0.25l0 6.265625q0.515625 0 0.75 0.234375q0.25 0.21875 0.25 0.578125q0 0.34375 -0.25 0.578125q-0.25 0.21875 -0.828125 0.21875l-2.109375 0q-0.5625 0 -0.8125 -0.21875q-0.25 -0.234375 -0.25 -0.59375q0 -0.34375 0.25 -0.5625q0.25 -0.234375 0.8125 -0.234375l0.59375 0l0 -4.765625l-1.84375 4.125l-1.390625 0l-1.859375 -4.125z" fill-rule="nonzero"></path><path fill="#000000" fill-opacity="0.0" d="m36.272964 42.850395l29.259842 0l0 21.070866l-29.259842 0z" fill-rule="nonzero"></path><path fill="#434343" d="m50.06984 56.902077l2.328125 -5.53125l-0.375 0q-0.578125 0 -0.828125 -0.21875q-0.234375 -0.21875 -0.234375 -0.578125q0 -0.359375 0.234375 -0.578125q0.25 -0.234375 0.828125 -0.234375l2.15625 0.015625q0.578125 0 0.8125 0.21875q0.25 0.21875 0.25 0.578125q0 0.421875 -0.375 0.671875q-0.171875 0.125 -0.734375 0.125l-3.28125 7.875l-1.546875 0l-3.28125 -7.875q-0.5625 0 -0.734375 -0.125q-0.390625 -0.234375 -0.390625 -0.671875q0 -0.359375 0.25 -0.578125q0.25 -0.234375 0.828125 -0.234375l2.171875 0.015625q0.5625 0 0.8125 0.21875q0.25 0.21875 0.25 0.578125q0 0.359375 -0.25 0.578125q-0.234375 0.21875 -0.8125 0.21875l-0.375 0l2.296875 5.53125z" fill-rule="nonzero"></path></g></svg>

