<?xml version="1.0" standalone="yes"?>

<svg version="1.1" viewBox="0.0 0.0 64.0 64.0" fill="none" stroke="none" stroke-linecap="square" stroke-miterlimit="10" xmlns="http://www.w3.org/2000/svg" xmlns:xlink="http://www.w3.org/1999/xlink"><clipPath id="p.0"><path d="m0 0l64.0 0l0 64.0l-64.0 0l0 -64.0z" clip-rule="nonzero"></path></clipPath><g clip-path="url(#p.0)"><path fill="#000000" fill-opacity="0.0" d="m0 0l64.0 0l0 64.0l-64.0 0z" fill-rule="evenodd"></path><path fill="#ffff00" d="m12.499498 41.86615l0 0c7.6189194 -7.6363144 15.917517 -11.683378 18.535433 -9.0393715l0 0c1.2571678 1.2696991 1.0094185 3.9441376 -0.6887455 7.4349747c-1.698164 3.4908333 -4.707638 7.5121117 -8.366373 11.179199l0 0c-7.6189194 7.6363144 -15.917516 11.68338 -18.535433 9.0393715l0 0c-1.2571678 -1.2696991 -1.009419 -3.9441376 0.68874526 -7.434971c1.698164 -3.490837 4.7076387 -7.5121155 8.366373 -11.179203z" fill-rule="evenodd"></path><path stroke="#ff9900" stroke-width="1.0" stroke-linejoin="round" stroke-linecap="butt" d="m12.499498 41.86615l0 0c7.6189194 -7.6363144 15.917517 -11.683378 18.535433 -9.0393715l0 0c1.2571678 1.2696991 1.0094185 3.9441376 -0.6887455 7.4349747c-1.698164 3.4908333 -4.707638 7.5121117 -8.366373 11.179199l0 0c-7.6189194 7.6363144 -15.917516 11.68338 -18.535433 9.0393715l0 0c-1.2571678 -1.2696991 -1.009419 -3.9441376 0.68874526 -7.434971c1.698164 -3.490837 4.7076387 -7.5121155 8.366373 -11.179203z" fill-rule="evenodd"></path><path fill="#ff0000" d="m20.184805 37.64602l0 0c3.8181572 -3.8268585 8.281208 -5.5613136 9.968504 -3.8740158l0 0c0.8102665 0.8102646 0.85897636 2.317379 0.13541031 4.189789c-0.72356606 1.8724098 -2.1601353 3.9567413 -3.993679 5.7944603l0 0c-3.8181572 3.8268547 -8.281208 5.5613136 -9.968504 3.8740158l0 0c-1.687295 -1.687294 0.040109634 -6.1573944 3.8582687 -9.984249z" fill-rule="evenodd"></path><path stroke="#0000ff" stroke-width="3.0" stroke-linejoin="round" stroke-linecap="butt" d="m20.184805 37.64602l0 0c3.8181572 -3.8268585 8.281208 -5.5613136 9.968504 -3.8740158l0 0c0.8102665 0.8102646 0.85897636 2.317379 0.13541031 4.189789c-0.72356606 1.8724098 -2.1601353 3.9567413 -3.993679 5.7944603l0 0c-3.8181572 3.8268547 -8.281208 5.5613136 -9.968504 3.8740158l0 0c-1.687295 -1.687294 0.040109634 -6.1573944 3.8582687 -9.984249z" fill-rule="evenodd"></path><path fill="#e06666" d="m33.46292 13.424931l0 0c1.5891228 -1.5941906 4.1653023 -1.593895 5.754059 6.5898895E-4l11.506447 11.548442l0 0c0.7629471 0.7657318 1.1914978 1.8042183 1.1913719 2.887003c-1.2207031E-4 1.0827847 -0.4289093 2.1211739 -1.1920357 2.8867302l-13.993313 14.037949c-1.589119 1.5941925 -4.1652985 1.593895 -5.754055 -6.599426E-4l-11.506447 -11.548439c-1.5887566 -1.5945549 -1.5884609 -4.1795444 6.6185E-4 -5.773735z" fill-rule="evenodd"></path><path stroke="#e06666" stroke-width="1.0" stroke-linejoin="round" stroke-linecap="butt" d="m33.46292 13.424931l0 0c1.5891228 -1.5941906 4.1653023 -1.593895 5.754059 6.5898895E-4l11.506447 11.548442l0 0c0.7629471 0.7657318 1.1914978 1.8042183 1.1913719 2.887003c-1.2207031E-4 1.0827847 -0.4289093 2.1211739 -1.1920357 2.8867302l-13.993313 14.037949c-1.589119 1.5941925 -4.1652985 1.593895 -5.754055 -6.599426E-4l-11.506447 -11.548439c-1.5887566 -1.5945549 -1.5884609 -4.1795444 6.6185E-4 -5.773735z" fill-rule="evenodd"></path><path fill="#434343" d="m38.6324 12.167983l19.716534 -6.425197l-6.425194 19.779528z" fill-rule="evenodd"></path><path stroke="#434343" stroke-width="1.0" stroke-linejoin="round" stroke-linecap="butt" d="m38.6324 12.167983l19.716534 -6.425197l-6.425194 19.779528z" fill-rule="evenodd"></path><path fill="#434343" d="m42.934223 40.00663l2.771656 2.8031502l-0.015792847 5.5905952l-5.5905075 5.5905075l-5.5433083 -5.6063004z" fill-rule="evenodd"></path><path stroke="#434343" stroke-width="1.0" stroke-linejoin="round" stroke-linecap="butt" d="m42.934223 40.00663l2.771656 2.8031502l-0.015792847 5.5905952l-5.5905075 5.5905075l-5.5433083 -5.6063004z" fill-rule="evenodd"></path><path fill="#434343" d="m24.274529 21.217972l-2.7716541 -2.8031483l-5.5591 -0.015703201l-5.5905066 5.5905056l5.5433073 5.6063004z" fill-rule="evenodd"></path><path stroke="#434343" stroke-width="1.0" stroke-linejoin="round" stroke-linecap="butt" d="m24.274529 21.217972l-2.7716541 -2.8031483l-5.5591 -0.015703201l-5.5905066 5.5905056l5.5433073 5.6063004z" fill-rule="evenodd"></path><path fill="#ffff00" d="m46.091152 11.502393l0 0c1.9482193 -1.9569149 4.994091 -2.069725 6.80315 -0.25196838c1.8090591 1.8177557 1.6962509 4.8777304 -0.25196838 6.8346453c-1.9482155 1.9569149 -4.994091 2.069725 -6.80315 0.25196838c-1.8090591 -1.8177567 -1.6962471 -4.8777313 0.25196838 -6.8346453z" fill-rule="evenodd"></path><path fill="#cbcb00" d="m49.031136 12.336725c0.20293808 -0.20384598 0.5202179 -0.21559715 0.7086601 -0.026247025c0.18844604 0.18934917 0.17669296 0.5080967 -0.026245117 0.7119417c-0.20293808 0.20384598 -0.5202179 0.21559715 -0.7086601 0.026247025c-0.18844604 -0.18934917 -0.17669296 -0.5080967 0.026245117 -0.7119417m2.0988045 2.1088943c0.20293808 -0.20384502 0.5202179 -0.2155962 0.7086601 -0.026247025c0.18844604 0.18935013 0.17669296 0.50809765 -0.026245117 0.7119427c-0.20293808 0.20384502 -0.5202179 0.2155962 -0.7086601 0.026247025c-0.18844604 -0.18935013 -0.17669296 -0.50809765 0.026245117 -0.7119427" fill-rule="evenodd"></path><path fill="#000000" fill-opacity="0.0" d="m46.05296 14.555064q0.46229553 3.1028872 3.5466385 3.5636873" fill-rule="evenodd"></path><path fill="#000000" fill-opacity="0.0" d="m46.091152 11.502393l0 0c1.9482193 -1.9569149 4.994091 -2.069725 6.80315 -0.25196838c1.8090591 1.8177557 1.6962509 4.8777304 -0.25196838 6.8346453c-1.9482155 1.9569149 -4.994091 2.069725 -6.80315 0.25196838c-1.8090591 -1.8177567 -1.6962471 -4.8777313 0.25196838 -6.8346453z" fill-rule="evenodd"></path><path stroke="#434343" stroke-width="1.0" stroke-linejoin="round" stroke-linecap="butt" d="m49.031136 12.336725c0.20293808 -0.20384598 0.5202179 -0.21559715 0.7086601 -0.026247025c0.18844604 0.18934917 0.17669296 0.5080967 -0.026245117 0.7119417c-0.20293808 0.20384598 -0.5202179 0.21559715 -0.7086601 0.026247025c-0.18844604 -0.18934917 -0.17669296 -0.5080967 0.026245117 -0.7119417m2.0988045 2.1088943c0.20293808 -0.20384502 0.5202179 -0.2155962 0.7086601 -0.026247025c0.18844604 0.18935013 0.17669296 0.50809765 -0.026245117 0.7119427c-0.20293808 0.20384502 -0.5202179 0.2155962 -0.7086601 0.026247025c-0.18844604 -0.18935013 -0.17669296 -0.50809765 0.026245117 -0.7119427" fill-rule="evenodd"></path><path stroke="#434343" stroke-width="1.0" stroke-linejoin="round" stroke-linecap="butt" d="m46.05296 14.555064q0.46229553 3.1028872 3.5466385 3.5636873" fill-rule="evenodd"></path><path stroke="#434343" stroke-width="1.0" stroke-linejoin="round" stroke-linecap="butt" d="m46.091152 11.502393l0 0c1.9482193 -1.9569149 4.994091 -2.069725 6.80315 -0.25196838c1.8090591 1.8177557 1.6962509 4.8777304 -0.25196838 6.8346453c-1.9482155 1.9569149 -4.994091 2.069725 -6.80315 0.25196838c-1.8090591 -1.8177567 -1.6962471 -4.8777313 0.25196838 -6.8346453z" fill-rule="evenodd"></path><path fill="#434343" d="m27.806124 29.59508l2.8661423 2.8661404l-2.7086601 2.708664l-2.8661423 -2.8661423z" fill-rule="evenodd"></path><path stroke="#434343" stroke-width="1.0" stroke-linejoin="round" stroke-linecap="butt" d="m27.806124 29.59508l2.8661423 2.8661404l-2.7086601 2.708664l-2.8661423 -2.8661423z" fill-rule="evenodd"></path><path fill="#434343" d="m34.56845 29.59508l2.8661423 2.8661404l-2.7086601 2.708664l-2.8661423 -2.8661423z" fill-rule="evenodd"></path><path stroke="#434343" stroke-width="1.0" stroke-linejoin="round" stroke-linecap="butt" d="m34.56845 29.59508l2.8661423 2.8661404l-2.7086601 2.708664l-2.8661423 -2.8661423z" fill-rule="evenodd"></path><path fill="#434343" d="m34.56845 22.792234l2.8661423 2.8661423l-2.7086601 2.708662l-2.8661423 -2.8661423z" fill-rule="evenodd"></path><path stroke="#434343" stroke-width="1.0" stroke-linejoin="round" stroke-linecap="butt" d="m34.56845 22.792234l2.8661423 2.8661423l-2.7086601 2.708662l-2.8661423 -2.8661423z" fill-rule="evenodd"></path><path fill="#434343" d="m41.319683 22.792234l2.8661423 2.8661423l-2.7086601 2.708662l-2.8661423 -2.8661423z" fill-rule="evenodd"></path><path stroke="#434343" stroke-width="1.0" stroke-linejoin="round" stroke-linecap="butt" d="m41.319683 22.792234l2.8661423 2.8661423l-2.7086601 2.708662l-2.8661423 -2.8661423z" fill-rule="evenodd"></path></g></svg>

