<?xml version="1.0" standalone="yes"?>

<svg version="1.1" viewBox="0.0 0.0 64.0 64.0" fill="none" stroke="none" stroke-linecap="square" stroke-miterlimit="10" xmlns="http://www.w3.org/2000/svg" xmlns:xlink="http://www.w3.org/1999/xlink"><clipPath id="p.0"><path d="m0 0l64.0 0l0 64.0l-64.0 0l0 -64.0z" clip-rule="nonzero"></path></clipPath><g clip-path="url(#p.0)"><path fill="#000000" fill-opacity="0.0" d="m0 0l64.0 0l0 64.0l-64.0 0z" fill-rule="nonzero"></path><path fill="#93c47d" d="m30.89239 47.152298l0 0c0 -1.8148956 1.471262 -3.2861557 3.2861538 -3.2861557l25.616665 0c0.8715439 0 1.7073898 0.3462181 2.3236656 0.9624901c0.616272 0.6162758 0.9624901 1.4521217 0.9624901 2.3236656l0 13.144226c0 1.8148918 -1.4712601 3.286152 -3.2861557 3.286152l-25.616665 0c-1.8148918 0 -3.2861538 -1.4712601 -3.2861538 -3.286152z" fill-rule="nonzero"></path><path stroke="#93c47d" stroke-width="1.0" stroke-linejoin="round" stroke-linecap="butt" d="m30.89239 47.152298l0 0c0 -1.8148956 1.471262 -3.2861557 3.2861538 -3.2861557l25.616665 0c0.8715439 0 1.7073898 0.3462181 2.3236656 0.9624901c0.616272 0.6162758 0.9624901 1.4521217 0.9624901 2.3236656l0 13.144226c0 1.8148918 -1.4712601 3.286152 -3.2861557 3.286152l-25.616665 0c-1.8148918 0 -3.2861538 -1.4712601 -3.2861538 -3.286152z" fill-rule="nonzero"></path><path fill="#434343" d="m42.23297 50.670033l2.109375 0q0.71875 0 1.09375 0.109375q0.5 0.15625 0.859375 0.53125q0.359375 0.375 0.546875 0.9375q0.1875 0.546875 0.1875 1.34375q0 0.703125 -0.171875 1.21875q-0.21875 0.625 -0.609375 1.015625q-0.296875 0.296875 -0.8125 0.453125q-0.390625 0.125 -1.03125 0.125l-2.171875 0l0 -5.734375zm1.15625 0.96875l0 3.796875l0.859375 0q0.484375 0 0.703125 -0.046875q0.28125 -0.078125 0.46875 -0.234375q0.1875 -0.171875 0.296875 -0.5625q0.125 -0.390625 0.125 -1.046875q0 -0.671875 -0.125 -1.015625q-0.109375 -0.359375 -0.328125 -0.5625q-0.203125 -0.203125 -0.53125 -0.265625q-0.234375 -0.0625 -0.953125 -0.0625l-0.515625 0zm4.6523438 4.765625l0 -5.6875l1.15625 0l0 4.71875l2.875 0l0 0.96875l-4.03125 0z" fill-rule="nonzero"></path><path fill="#6d9eeb" d="m30.850393 25.433136l0 0c0 -1.8148918 1.471262 -3.2861538 3.2861538 -3.2861538l25.616669 0c0.87154007 0 1.7073898 0.3462181 2.3236618 0.962492c0.616272 0.6162739 0.9624939 1.4521198 0.9624939 2.3236618l0 13.144226c0 1.8148918 -1.4712639 3.2861557 -3.2861557 3.2861557l-25.616669 0c-1.8148918 0 -3.2861538 -1.4712639 -3.2861538 -3.2861557z" fill-rule="nonzero"></path><path stroke="#6d9eeb" stroke-width="1.0" stroke-linejoin="round" stroke-linecap="butt" d="m30.850393 25.433136l0 0c0 -1.8148918 1.471262 -3.2861538 3.2861538 -3.2861538l25.616669 0c0.87154007 0 1.7073898 0.3462181 2.3236618 0.962492c0.616272 0.6162739 0.9624939 1.4521198 0.9624939 2.3236618l0 13.144226c0 1.8148918 -1.4712639 3.2861557 -3.2861557 3.2861557l-25.616669 0c-1.8148918 0 -3.2861538 -1.4712639 -3.2861538 -3.2861557z" fill-rule="nonzero"></path><path fill="#434343" d="m42.2066 28.950874l2.28125 0q0.6875 0 1.015625 0.0625q0.328125 0.0625 0.59375 0.25q0.265625 0.171875 0.4375 0.46875q0.1875 0.296875 0.1875 0.671875q0 0.390625 -0.21875 0.734375q-0.21875 0.328125 -0.59375 0.5q0.53125 0.15625 0.8125 0.53125q0.28125 0.359375 0.28125 0.859375q0 0.390625 -0.1875 0.765625q-0.1875 0.359375 -0.5 0.578125q-0.3125 0.21875 -0.765625 0.265625q-0.296875 0.03125 -1.40625 0.046875l-1.9375 0l0 -5.734375zm1.15625 0.953125l0 1.328125l0.75 0q0.671875 0 0.84375 -0.015625q0.296875 -0.03125 0.46875 -0.203125q0.171875 -0.171875 0.171875 -0.453125q0 -0.265625 -0.15625 -0.421875q-0.140625 -0.171875 -0.4375 -0.203125q-0.171875 -0.03125 -0.984375 -0.03125l-0.65625 0zm0 2.28125l0 1.53125l1.0625 0q0.625 0 0.796875 -0.03125q0.25 -0.046875 0.40625 -0.21875q0.171875 -0.1875 0.171875 -0.5q0 -0.25 -0.125 -0.421875q-0.125 -0.1875 -0.359375 -0.265625q-0.234375 -0.09375 -1.03125 -0.09375l-0.921875 0zm4.6367188 2.5l0 -5.6875l1.15625 0l0 4.71875l2.875 0l0 0.96875l-4.03125 0z" fill-rule="nonzero"></path><path fill="#e06666" d="m30.839895 3.7139764l0 0c0 -1.8148931 1.471262 -3.2861547 3.2861538 -3.2861547l25.616669 0c0.87154007 0 1.707386 0.34621888 2.3236618 0.96249247c0.616272 0.61627376 0.9624901 1.45212 0.9624901 2.3236623l0 13.144226c0 1.8148937 -1.4712601 3.2861557 -3.286152 3.2861557l-25.616669 0c-1.8148918 0 -3.2861538 -1.471262 -3.2861538 -3.2861557z" fill-rule="nonzero"></path><path stroke="#e06666" stroke-width="1.0" stroke-linejoin="round" stroke-linecap="butt" d="m30.839895 3.7139764l0 0c0 -1.8148931 1.471262 -3.2861547 3.2861538 -3.2861547l25.616669 0c0.87154007 0 1.707386 0.34621888 2.3236618 0.96249247c0.616272 0.61627376 0.9624901 1.45212 0.9624901 2.3236623l0 13.144226c0 1.8148937 -1.4712601 3.2861557 -3.286152 3.2861557l-25.616669 0c-1.8148918 0 -3.2861538 -1.471262 -3.2861538 -3.2861557z" fill-rule="nonzero"></path><path fill="#434343" d="m43.51251 7.2317142l1.15625 0l0 3.109375q0 0.734375 0.046875 0.953125q0.0625 0.359375 0.34375 0.578125q0.28125 0.203125 0.765625 0.203125q0.5 0 0.75 -0.203125q0.25 -0.203125 0.296875 -0.484375q0.046875 -0.296875 0.046875 -0.984375l0 -3.171875l1.15625 0l0 3.015625q0 1.03125 -0.09375 1.453125q-0.09375 0.421875 -0.34375 0.71875q-0.25 0.296875 -0.671875 0.46875q-0.421875 0.171875 -1.109375 0.171875q-0.8125 0 -1.234375 -0.1875q-0.421875 -0.1875 -0.671875 -0.484375q-0.25 -0.3125 -0.328125 -0.640625q-0.109375 -0.5 -0.109375 -1.453125l0 -3.0625zm5.7460938 5.734375l0 -5.734375l1.15625 0l0 5.734375l-1.15625 0z" fill-rule="nonzero"></path><path fill="#000000" fill-opacity="0.0" d="m1.2939633 25.023623l15.811023 0l0 21.070868l-15.811023 0z" fill-rule="nonzero"></path><path fill="#ffd966" d="m0.7191601 32.00525l0 0c0 -4.861845 4.025912 -8.80315 8.992126 -8.80315l0 0c2.38486 0 4.672042 0.92747307 6.3583927 2.5783844c1.6863518 1.6509094 2.6337337 3.890026 2.6337337 6.224766l0 0c0 4.861847 -4.0259132 8.80315 -8.992126 8.80315l0 0c-4.9662147 0 -8.992126 -3.9413033 -8.992126 -8.80315z" fill-rule="nonzero"></path><path stroke="#434343" stroke-width="2.0" stroke-linejoin="round" stroke-linecap="butt" d="m0.7191601 32.00525l0 0c0 -4.861845 4.025912 -8.80315 8.992126 -8.80315l0 0c2.38486 0 4.672042 0.92747307 6.3583927 2.5783844c1.6863518 1.6509094 2.6337337 3.890026 2.6337337 6.224766l0 0c0 4.861847 -4.0259132 8.80315 -8.992126 8.80315l0 0c-4.9662147 0 -8.992126 -3.9413033 -8.992126 -8.80315z" fill-rule="nonzero"></path><path fill="#000000" fill-opacity="0.0" d="m-4.9580054 22.257217l18.614174 0l0 19.559055l-18.614174 0z" fill-rule="nonzero"></path><path fill="#434343" d="m9.916995 34.94362l-2.0000005 0q0 -0.4375 0 -0.53125q0 -0.96875 0.31250048 -1.59375q0.328125 -0.625 1.28125 -1.4062481q0.96875 -0.78125 1.15625 -1.015625q0.28125 -0.390625 0.28125 -0.84375q0 -0.640625 -0.515625 -1.09375q-0.5 -0.46875 -1.375 -0.46875q-0.828125 0 -1.3906255 0.484375q-0.5625 0.46875 -0.78125 1.453125l-2.015625 -0.25q0.09375 -1.40625 1.1875 -2.375q1.109375 -0.984375 2.9062505 -0.984375q1.890625 0 3.0 1.0q1.125 0.984375 1.125 2.296875q0 0.71875 -0.40625 1.375q-0.40625 0.640625 -1.75 1.7656231q-0.703125 0.578125 -0.875 0.9375q-0.15625 0.34375 -0.140625 1.25zm-2.0000005 2.953125l0 -2.203125l2.2031255 0l0 2.203125l-2.2031255 0z" fill-rule="nonzero"></path><path fill="#000000" fill-opacity="0.0" d="m9.711287 23.202099c0 -6.4566917 10.566929 -12.913385 21.133858 -12.913385" fill-rule="nonzero"></path><path stroke="#434343" stroke-width="2.0" stroke-linejoin="round" stroke-linecap="butt" d="m9.711287 23.202099c0 -3.2283459 2.6417322 -6.4566917 6.60433 -8.877952c1.9813004 -1.2106304 4.2928143 -2.2194881 6.7694397 -2.9256887l0.25179672 -0.06957817" fill-rule="evenodd"></path><path fill="#434343" stroke="#434343" stroke-width="2.0" stroke-linecap="butt" d="m29.854605 10.425939c0.24934006 1.7998276 -1.0075779 3.4610062 -2.8074055 3.7103472c-1.7998276 0.24934006 -3.4610062 -1.0075788 -3.7103462 -2.8074064c-0.24934006 -1.7998276 1.0075779 -3.4610062 2.8074055 -3.7103462c1.7998276 -0.24934006 3.4610062 1.0075779 3.7103462 2.8074055z" fill-rule="nonzero"></path><path fill="#000000" fill-opacity="0.0" d="m9.711287 40.8084c0 6.4566917 10.598425 12.913387 21.19685 12.913387" fill-rule="nonzero"></path><path stroke="#434343" stroke-width="2.0" stroke-linejoin="round" stroke-linecap="butt" d="m9.711287 40.8084c0 3.2283478 2.6496058 6.4566917 6.624016 8.877953c1.9872036 1.2106285 4.3056107 2.2194862 6.7896156 2.9256897l0.27410698 0.07551575" fill-rule="evenodd"></path><path fill="#434343" stroke="#434343" stroke-width="2.0" stroke-linecap="butt" d="m29.917488 53.585342c-0.24791527 1.8000259 -1.9081001 3.058258 -3.7081242 2.810341c-1.800024 -0.24791718 -3.0582561 -1.9081001 -2.810341 -3.708126c0.24791718 -1.8000221 1.9081001 -3.0582542 3.708126 -2.810337c1.800024 0.24791336 3.0582561 1.9081001 2.810339 3.7081223z" fill-rule="nonzero"></path><path fill="#000000" fill-opacity="0.0" d="m18.703413 32.00525c3.0367546 0 4.5538273 0.01574707 6.073511 0.031497955c1.5196857 0.01574707 3.0419846 0.03149414 6.083969 0.03149414" fill-rule="nonzero"></path><path stroke="#434343" stroke-width="2.0" stroke-linejoin="round" stroke-linecap="butt" d="m18.703413 32.00525c1.5183773 0 2.6568336 0.0039367676 3.6056576 0.009841919l0.97195435 0.008529663" fill-rule="evenodd"></path><path fill="#434343" stroke="#434343" stroke-width="2.0" stroke-linecap="butt" d="m29.86091 32.062355c-0.010696411 1.8169861 -1.4923248 3.281273 -3.309311 3.2705765c-1.8169861 -0.010696411 -3.281271 -1.4923248 -3.2705746 -3.309311c0.010694504 -1.8169861 1.4923248 -3.281273 3.309309 -3.2705765c1.8169861 0.010696411 3.281273 1.4923248 3.2705765 3.309311z" fill-rule="nonzero"></path></g></svg>

